<svg width="32px" height="24px" viewBox="0 0 32 24" version="1.1" xmlns="http://www.w3.org/2000/svg" xmlns:xlink="http://www.w3.org/1999/xlink">
    <g stroke="none" stroke-width="1" fill="none" fill-rule="evenodd">
        <g transform="translate(-50.000000, -166.000000)" fill="#FF8F8F" fill-rule="nonzero">
            <g transform="translate(50.000000, 163.000000)">
                <path d="M30.2672619,17.9476161 L29.622969,17.9476161 L29.622969,4.99889458 L30.2672619,4.99889458 C31.2230053,4.99889458 32,4.94711533 32,3.99962708 C32,3.05213882 31.2226427,3 30.2672619,3 L1.73273811,3 C0.77699472,3 0,3.05177924 0,3.9992675 C0,4.94675576 0.777357293,4.998535 1.73273811,4.998535 L2.37775612,4.998535 L2.37775612,17.9472565 L1.73273811,17.9472565 C0.77699472,17.9472565 0,17.9990357 0,18.946524 C0,19.8940123 0.777357293,19.9457915 1.73273811,19.9457915 L14.6055428,19.9457915 L4.9317229,26.0640182 C4.71055315,26.2657415 4.69641279,26.6069812 4.89981645,26.8259642 C5.00713816,26.9413888 5.1536178,27 5.30009744,27 C5.43171157,27 5.56368828,26.9528953 5.66810941,26.8576071 L15.45614,20.6358218 L15.45614,26.4606329 C15.45614,26.7583635 15.6997893,27 16,27 C16.3002107,27 16.54386,26.7583635 16.54386,26.4606329 L16.54386,20.6358218 L26.3318906,26.8576071 C26.4363117,26.9532548 26.5682884,27 26.7002651,27 C26.8467448,27 26.993587,26.9413888 27.1005461,26.8259642 C27.3043124,26.6069812 27.2894468,26.265382 27.0686397,26.0640182 L17.3944572,19.9465107 L30.2672619,19.9465107 C31.2230053,19.9465107 32,19.8947314 32,18.9472432 C32,17.9997549 31.2226427,17.9476161 30.2672619,17.9476161 Z M4.00755606,18.0791641 L4.00755606,4.74903276 L27.7620752,4.74903276 L27.7620752,18.0791641 L4.00755606,18.0791641 Z"></path>
            </g>
        </g>
    </g>
</svg>