<svg width="30px" height="24px" viewBox="0 0 30 24" version="1.1" xmlns="http://www.w3.org/2000/svg" xmlns:xlink="http://www.w3.org/1999/xlink">
    <g stroke="none" stroke-width="1" fill="none" fill-rule="evenodd">
        <g transform="translate(-51.000000, -246.000000)" fill-rule="nonzero">
            <g transform="translate(51.000000, 243.000000)">
                <g transform="translate(0.000000, 3.000000)">
                    <path d="M29.8047745,2.86190899 L27.138091,0.195225524 C26.8777485,-0.0650751748 26.4556942,-0.0650751748 26.1953517,0.195225524 L18.1953014,8.19527591 C18.0702313,8.32025849 18,8.48983165 18,8.66664555 L18,11.333329 C18,11.5101737 18.0700981,11.6798057 18.1951462,11.8048538 C18.3201943,11.9299019 18.4898263,12 18.666671,12 L21.3333544,12 C21.5101698,12 21.6797457,11.9297749 21.8047241,11.8046986 L29.8047745,3.80464826 C30.0650752,3.54430575 30.0650752,3.12225149 29.8047745,2.86190899 Z" fill="#F6C860"></path>
                    <path d="M15,7 L5,7 C4.44771525,7 4,7.22385763 4,7.5 C4,7.77614237 4.44771525,8 5,8 L15,8 C15.5522847,8 16,7.75 16,7.5 C16,7.25 15.5522847,7 15,7 Z" fill="#8FC8FF"></path>
                    <path d="M5,12 L15,12 C15.5522847,12 16,11.7761424 16,11.5 C16,11.2238576 15.5522847,11 15,11 L5,11 C4.44771525,11 4,11.2238576 4,11.5 C4,11.7761424 4.44771525,12 5,12 Z" fill="#8FC8FF"></path>
                    <path d="M4.81818182,16 L21.1818182,16 C21.6336875,16 22,15.7761424 22,15.5 C22,15.2238576 21.6336875,15 21.1818182,15 L4.81818182,15 C4.36631248,15 4,15.2238576 4,15.5 C4,15.7761424 4.36631248,16 4.81818182,16 Z" fill="#8FC8FF"></path>
                    <path d="M26.2941175,12.1874408 C26.1068714,12.1873363 25.9272622,12.2564427 25.7948592,12.3795353 C25.6624561,12.5026279 25.5881227,12.6696074 25.5882352,12.8436866 L25.5882352,16.7811612 C25.5869514,17.8679701 24.6396001,18.748705 23.4705881,18.7498985 L16.4117646,18.7498985 C16.2591049,18.7498154 16.110555,18.7958808 15.9885176,18.8811477 L11.4705882,22.0311274 L11.4705882,19.4061443 C11.4707006,19.2320651 11.3963672,19.0650857 11.2639642,18.941993 C11.1315612,18.8189004 10.9519519,18.749794 10.7647058,18.7498985 L3.52941175,18.7498985 C2.36039975,18.748705 1.41304849,17.8679701 1.4117647,16.7811612 L1.4117647,6.28122886 C1.41304849,5.19442002 2.36039975,4.31368507 3.52941175,4.31249155 L19.235294,4.31249155 C19.6251421,4.31249155 19.9411764,4.0186803 19.9411764,3.65624577 C19.9411764,3.29381124 19.6251421,3 19.235294,3 L3.52941175,3 C1.58111479,3.00211551 0.00227551624,4.4699332 0,6.28122886 L0,16.7811612 C0.00227551624,18.5924569 1.58111479,20.0602746 3.52941175,20.0623901 L10.0588235,20.0623901 L10.0588235,23.343619 C10.0586361,23.5922041 10.2096206,23.8195269 10.4487673,23.9307198 C10.687914,24.0419127 10.9741232,24.0178662 11.1879529,23.8686156 L16.6468235,20.0623901 L23.4705881,20.0623901 C25.4188851,20.0602746 26.9977244,18.5924569 27,16.7811612 L27,12.8436866 C27,12.6696074 26.9257789,12.5026279 26.7933759,12.3795353 C26.6609729,12.2564427 26.4813636,12.1873363 26.2941175,12.1874408 Z" fill="#8FC8FF"></path>
                </g>
            </g>
        </g>
    </g>
</svg>