<svg width="31px" height="24px" viewBox="0 0 31 24" version="1.1" xmlns="http://www.w3.org/2000/svg" xmlns:xlink="http://www.w3.org/1999/xlink">
    <g stroke="none" stroke-width="1" fill="none" fill-rule="evenodd">
        <g transform="translate(-50.000000, -86.000000)" fill-rule="nonzero">
            <g transform="translate(42.000000, 83.000000)">
                <g transform="translate(8.000000, 3.000000)">
                    <path d="M28.0543847,-3.37507799e-14 L19.383253,-3.37507799e-14 C17.7918615,0.00177920666 16.5023601,0.994019191 16.5000479,2.21855624 L16.5000479,8.89078135 C16.5023601,10.1153184 17.7918615,11.1075584 19.383253,11.1093376 L28.0543847,11.1093376 C29.6457762,11.1075584 30.9352776,10.1153184 30.9375898,8.89078135 L30.9375898,2.21855624 C30.9352776,0.994019191 29.6457762,0.00177920666 28.0543847,-3.37507799e-14" fill="#FF8F8F"></path>
                    <path d="M28.0543847,12.8906624 L19.383253,12.8906624 C17.7918615,12.8924416 16.5023601,13.8846816 16.5000479,15.1092187 L16.5000479,21.7814438 C16.5023601,23.0059808 17.7918615,23.9982208 19.383253,24 L28.0543847,24 C29.6457762,23.9982208 30.9352776,23.0059808 30.9375898,21.7814438 L30.9375898,15.1092187 C30.9352776,13.8846816 29.6457762,12.8924416 28.0543847,12.8906624" fill="#B25CFF"></path>
                    <path d="M11.5543368,12.8906624 L2.88320509,12.8906624 C1.29181363,12.8924416 0.00231223244,13.8846816 2.66453526e-14,15.1092187 L2.66453526e-14,21.7814438 C0.00231223244,23.0059808 1.29181363,23.9982208 2.88320509,24 L11.5543368,24 C13.1457283,23.9982208 14.4352297,23.0059808 14.4375419,21.7814438 L14.4375419,15.1092187 C14.4352297,13.8846816 13.1457283,12.8924416 11.5543368,12.8906624" fill="#50E38C"></path>
                    <path d="M11.5543368,-3.46389584e-14 L2.88320509,-3.46389584e-14 C1.29181363,0.00177920666 0.00231223244,0.994019191 2.66453526e-14,2.21855624 L2.66453526e-14,8.89078135 C0.00231223244,10.1153184 1.29181363,11.1075584 2.88320509,11.1093376 L11.5543368,11.1093376 C13.1457283,11.1075584 14.4352297,10.1153184 14.4375419,8.89078135 L14.4375419,2.21855624 C14.4352297,0.994019191 13.1457283,0.00177920666 11.5543368,-3.46389584e-14" fill="#8FC8FF"></path>
                </g>
            </g>
        </g>
    </g>
</svg>