<svg width="308px" height="162px" viewBox="0 0 308 162" version="1.1" xmlns="http://www.w3.org/2000/svg" xmlns:xlink="http://www.w3.org/1999/xlink">
    <g id="Symbols" stroke="none" stroke-width="1" fill="none" fill-rule="evenodd">
        <g id="Logo-(Light)" fill="currentColor" fill-rule="nonzero">
            <path d="M43.5091499,82.1607658 C17.3329134,82.1607658 0,64.7148643 0,41.0214441 C0,17.3280238 16.7433585,0 40.9151085,0 C54.0032268,0 63.4361048,3.53633138 70.0391194,11.080505 L58.8375767,22.16101 C54.8286036,18.0352901 50.2300755,14.8525918 40.9151085,14.8525918 C26.4120585,14.8525918 16.9791805,26.0509745 16.9791805,41.0214441 C16.9791805,55.9919136 26.6478805,67.4260517 43.5091499,67.4260517 C48.6972329,67.4260517 55.0644255,66.48303 59.1913097,64.4791089 L59.1913097,52.6913376 L39.8539097,52.6913376 L39.8539097,38.1923789 L74.2839145,38.1923789 L74.2839145,72.8484265 C69.6853865,76.6205133 58.1301109,82.1607658 43.5091499,82.1607658 Z M114.27921,0.235755426 L150.949523,81.0998664 L133.61661,81.0998664 L129.843459,72.0232825 L97.3000293,72.0232825 L93.5268781,81.0998664 L77.6088964,81.0998664 L112.864278,0.235755426 L114.27921,0.235755426 Z M122.258109,46.5874395 L104.620205,46.5874395 C107.007748,50.0056412 108.676449,52.5174385 109.626309,54.1228314 C110.57617,55.7282243 111.836443,58.1187373 113.407129,61.2943705 C114.98406,58.1076101 116.244968,55.717097 117.189854,54.1228314 C118.134741,52.5285658 119.824159,50.0167685 122.258109,46.5874395 Z M113.421612,31.9668374 C111.844681,35.1535978 110.583773,37.5441108 109.638886,39.1383764 C108.694,40.732642 107.021291,43.2125335 104.62076,46.5780507 L104.62076,46.5780507 L122.238026,46.5780507 C119.830823,43.2236607 118.152292,40.7437693 117.202432,39.1383764 C116.252571,37.5329835 114.992298,35.1424705 113.421612,31.9668374 Z M173.022353,37.0136404 C173.023792,37.0346558 173.611905,45.6253098 173.611905,51.0410496 L173.611905,81.0998664 L157.811834,81.0998664 L157.811834,0.117877713 L159.108855,0.117877713 L198.609032,43.496876 L237.519654,0.117877713 L238.934585,0.117877713 L238.934585,81.0998664 L223.016604,81.0998664 L223.016604,51.0410496 C223.016604,45.6186748 223.606159,37.0136018 223.606159,37.0136018 C223.606159,37.0136018 218.771809,44.0862646 214.998657,48.3298622 L199.080676,66.1293969 L197.547833,66.1293969 L181.629851,48.3298622 C177.861738,44.0919308 173.035258,37.0324843 173.022376,37.0136396 L173.022353,37.0136404 Z M251.692445,81.0998664 L251.692445,0.943021702 L304.752384,0.943021702 L304.752384,15.4419804 L268.199982,15.4419804 L268.199982,40.9035663 L300.389678,40.9035663 L300.389678,55.0488919 L268.199982,55.0488919 L268.199982,66.6009077 L306.403138,66.6009077 L306.403138,81.0998664 L251.692445,81.0998664 Z M51.7182145,131.416509 C51.7165425,131.402205 50.734899,123.001701 50.734899,117.872418 L50.734899,86.7428124 L65.0476327,86.7428124 L65.0476327,161.67232 L63.5180276,161.67232 L26.042702,126.501327 C22.3331085,123.010929 17.2071119,116.361755 17.1928735,116.343283 C17.1956669,116.364421 18.2854189,124.542165 18.2854189,129.887354 L18.2854189,161.01696 L3.97268518,161.01696 L3.97268518,86.0874522 L5.50229031,86.0874522 L42.9776159,121.258446 C46.5802991,124.64183 51.7102001,131.405956 51.7182072,131.416515 L51.7182145,131.416509 Z M76.8929893,161.01696 L76.8929893,86.7428124 L92.1890405,86.7428124 L92.1890405,161.01696 L76.8929893,161.01696 Z M141.728238,162 C117.473071,162 101.412217,145.83445 101.412217,123.879886 C101.412217,101.925322 116.926783,85.8689989 139.324572,85.8689989 C151.452156,85.8689989 160.192757,89.1457995 166.311177,96.1363075 L155.931714,106.403616 C152.216959,102.580682 147.955916,99.6315615 139.324572,99.6315615 C125.885899,99.6315615 117.145298,110.008097 117.145298,123.879886 C117.145298,137.751675 126.104414,148.346664 141.728238,148.346664 C146.535568,148.346664 152.435474,147.472851 156.259486,145.615997 L156.259486,134.693328 L138.341255,134.693328 L138.341255,121.258446 L170.244448,121.258446 L170.244448,153.371092 C165.983405,156.866346 155.276169,162 141.728238,162 Z M180.669456,161.01696 L180.669456,86.7428124 L195.965508,86.7428124 L195.965508,124.7537 L227.759443,124.7537 L227.759443,86.7428124 L243.055494,86.7428124 L243.055494,161.01696 L227.759443,161.01696 L227.759443,138.407036 L195.965508,138.407036 L195.965508,161.01696 L180.669456,161.01696 Z M271.507992,161.01696 L271.507992,100.177695 L250.312035,100.177695 L250.312035,86.7428124 L308,86.7428124 L308,100.177695 L286.804043,100.177695 L286.804043,161.01696 L271.507992,161.01696 Z" id="GAMENIGHT"></path>
        </g>
    </g>
</svg>