<svg xmlns="http://www.w3.org/2000/svg" width="1200" height="1200" viewBox="0 0 1200 1200">
  <g fill="none" fill-rule="evenodd">
    <rect width="1199" height="1199" x=".5" y=".5" stroke="#FFF"/>
    <path fill="#000" fill-rule="nonzero" d="M169.516169,604.021254 C67.5308314,604.021254 0,536.068391 0,443.781057 C0,351.493722 65.2338643,284 159.409514,284 C210.402182,284 247.153655,297.774229 272.879686,327.159251 L229.237312,370.318502 C213.617936,354.248568 195.701593,341.851762 159.409514,341.851762 C102.904124,341.851762 66.1526512,385.470154 66.1526512,443.781057 C66.1526512,502.09196 103.822911,546.628634 169.516169,546.628634 C189.729479,546.628634 214.536723,542.955506 230.615492,535.150109 L230.615492,489.236013 L155.274973,489.236013 L155.274973,432.761674 L289.417849,432.761674 L289.417849,567.749118 C271.501506,582.441629 226.480952,604.021254 169.516169,604.021254 Z M445.243675,284.918282 L588.115025,599.888986 L520.584194,599.888986 L505.883605,564.535131 L379.091023,564.535131 L364.390434,599.888986 L302.372324,599.888986 L439.730954,284.918282 L445.243675,284.918282 Z M476.330294,465.460953 L407.611187,465.460953 C416.913302,478.775059 423.414737,488.558665 427.115491,494.811769 C430.816245,501.064874 435.726401,510.376069 441.845958,522.745357 C447.989843,510.332728 452.902473,501.021532 456.583849,494.811769 C460.265224,488.602006 466.847373,478.818401 476.330294,465.460953 Z M441.902384,408.512805 C435.758498,420.925433 430.845868,430.236629 427.164492,436.446392 C423.483117,442.656155 416.96607,452.315485 407.613351,465.424383 L407.613351,465.424383 L476.252051,465.424383 C466.873338,452.358827 460.333604,442.699496 456.63285,436.446392 C452.932096,430.193288 448.021941,420.882092 441.902384,408.512805 Z M674.113063,428.170414 C674.11867,428.25227 676.41002,461.713398 676.41002,482.808039 L676.41002,599.888986 L614.851303,599.888986 L614.851303,284.459141 L619.90463,284.459141 L773.801423,453.423017 L925.401248,284.459141 L930.913969,284.459141 L930.913969,599.888986 L868.895859,599.888986 L868.895859,482.808039 C868.895859,461.687555 871.192826,428.170264 871.192826,428.170264 C871.192826,428.170264 852.357696,455.718722 837.657107,472.247797 L775.638996,541.578083 L769.666882,541.578083 L707.648772,472.247797 C692.967811,455.740792 674.163344,428.243812 674.113153,428.170411 L674.113063,428.170414 Z M980.619917,599.888986 L980.619917,287.673128 L1187.34695,287.673128 L1187.34695,344.147467 L1044.93499,344.147467 L1044.93499,443.321916 L1170.3494,443.321916 L1170.3494,498.418832 L1044.93499,498.418832 L1044.93499,543.414647 L1193.77846,543.414647 L1193.77846,599.888986 L980.619917,599.888986 Z M201.499537,795.875416 C201.493023,795.8197 197.668438,763.099217 197.668438,743.120345 L197.668438,621.868609 L253.432335,621.868609 L253.432335,913.723666 L247.472835,913.723666 L101.465073,776.730476 C87.012111,763.135163 67.0406956,737.236219 66.9852214,737.16427 C66.9961047,737.246602 71.2418916,769.099422 71.2418916,789.919261 L71.2418916,911.170998 L15.4779942,911.170998 L15.4779942,619.315941 L21.4374947,619.315941 L167.445257,756.309131 C181.481685,769.48762 201.468312,795.834312 201.499509,795.875439 L201.499537,795.875416 Z M299.583075,911.170998 L299.583075,621.868609 L359.17808,621.868609 L359.17808,911.170998 L299.583075,911.170998 Z M552.187939,915 C457.687288,915 395.112533,852.034186 395.112533,766.519803 C395.112533,681.005421 455.558895,618.465051 542.82301,618.465051 C590.073335,618.465051 624.127623,631.228392 647.965625,658.456852 L607.526158,698.448653 C593.053085,683.558089 576.45162,672.071082 542.82301,672.071082 C490.464541,672.071082 456.410253,712.488328 456.410253,766.519803 C456.410253,820.551279 491.315898,861.819414 552.187939,861.819414 C570.917798,861.819414 593.904442,858.415856 608.803194,851.183297 L608.803194,808.638828 L538.991902,808.638828 L538.991902,756.309131 L663.290055,756.309131 L663.290055,881.389869 C646.68859,895.0041 604.972086,915 552.187939,915 Z M703.906973,911.170998 L703.906973,621.868609 L763.501978,621.868609 L763.501978,769.923361 L887.374453,769.923361 L887.374453,621.868609 L946.969457,621.868609 L946.969457,911.170998 L887.374453,911.170998 L887.374453,823.103947 L763.501978,823.103947 L763.501978,911.170998 L703.906973,911.170998 Z M1057.82335,911.170998 L1057.82335,674.198306 L975.241696,674.198306 L975.241696,621.868609 L1200,621.868609 L1200,674.198306 L1117.41835,674.198306 L1117.41835,911.170998 L1057.82335,911.170998 Z"/>
  </g>
</svg>
