
<svg width="109px" height="127px" viewBox="0 0 109 127" version="1.1" xmlns="http://www.w3.org/2000/svg" xmlns:xlink="http://www.w3.org/1999/xlink">
    <g  stroke="none" stroke-width="1" fill="none" fill-rule="evenodd">
        <g fill="#FFFFFF">
            <path d="M33.2332679,58.1266494 C33.9434443,57.9911276 34.6734821,57.9982252 35.3798675,58.1470512 L35.3798675,58.1470512 L62.5258084,63.9154531 C62.6030428,63.9262817 62.6815247,63.9433116 62.7580823,63.9545952 L62.7580823,63.9545952 L62.8029204,63.9630826 C62.9228512,63.9937155 63.0408419,64.0264768 63.1584848,64.0673449 C63.2126765,64.0814119 63.2688086,64.1015829 63.3216307,64.1162023 C63.4370966,64.1522424 63.5522818,64.194232 63.6648011,64.2358203 C63.799756,64.2963659 63.9323858,64.3616525 64.061709,64.4325603 L64.061709,64.4325603 L64.153019,64.477135 C64.1997427,64.5044314 64.2441376,64.5257796 64.2920136,64.5558832 C64.5571289,64.7044429 64.8088226,64.8756835 65.0448604,65.0663146 C65.0882643,65.1018152 65.1309236,65.1374091 65.1734577,65.1745052 C66.2224163,66.086481 66.8704185,67.3668512 66.9813565,68.7454131 L66.9813565,68.7454131 L69.5816331,101.894363 C69.7197321,103.697316 68.9238002,105.449587 67.4673913,106.548982 L67.4673913,106.548982 L42.0612773,125.685832 C41.660732,126.025569 41.2120251,126.305805 40.7299858,126.517118 C40.5628862,126.591391 40.3915465,126.654103 40.2184948,126.715255 C40.0488441,126.774052 39.8748549,126.820548 39.6995028,126.859981 C39.5533834,126.895137 39.4064534,126.927202 39.2580521,126.951432 C39.1512536,126.966442 39.0430578,126.974225 38.9359761,126.981908 L38.9359761,126.981908 L38.8525834,126.993628 L38.4988117,127.000274 C38.3740156,126.996079 38.2504714,126.992805 38.1268133,126.980774 L38.1268133,126.980774 L38.0975909,126.984881 L38.0242311,126.980458 C37.9170617,126.96899 37.8115235,126.95583 37.7061531,126.941229 C37.588832,126.923855 37.4720966,126.905296 37.3564284,126.878478 L37.3564284,126.878478 L37.2393018,126.851865 C37.0744407,126.812088 36.9108681,126.765507 36.7505657,126.710368 C36.5817657,126.653105 36.4162367,126.587292 36.2541282,126.513991 C36.0928603,126.441319 35.934493,126.360137 35.7803828,126.27211 C35.6700325,126.211412 35.5614121,126.147171 35.4553125,126.079624 L35.4553125,126.079624 L11.1246532,111.957295 C9.8873772,111.241224 8.99166005,110.066082 8.63557994,108.692226 L8.63557994,108.692226 L0.869159749,78.4830393 C-0.21578601,75.8502994 0.984725702,72.8323952 3.59671949,71.6265836 L3.59671949,71.6265836 L31.9693688,58.5459366 C32.3712919,58.3569276 32.7955224,58.221072 33.2312628,58.1304232 L33.2312628,58.1304232 Z M26.6410845,108.14633 L26.4823462,108.152108 C26.1011257,108.182129 25.7637999,108.335552 25.4965285,108.612748 C24.4283885,109.718975 24.8853302,112.468131 26.516813,114.760382 C28.1486783,117.052759 30.3353469,118.01002 31.4036442,116.903776 C32.473633,115.796108 32.0293161,113.046252 30.3976355,110.754175 C29.1737481,109.035127 27.6263699,108.06296 26.4826948,108.151913 Z M48.1946295,104.112146 C47.748242,103.97095 47.2725651,103.980754 46.8031794,104.111136 L46.8031794,104.111136 C45.3955739,104.511679 44.0124798,106.044111 43.3359621,108.129594 C42.4339983,110.910083 43.1400512,113.622569 44.9250607,114.183184 C46.7076835,114.742992 48.8955267,112.944334 49.7975186,110.163802 C50.6994325,107.383242 49.9771694,104.671932 48.1946295,104.112146 Z M15.1401234,102.070636 L14.9949953,102.074387 C14.6938143,102.097208 14.4343099,102.221283 14.2242206,102.448848 C13.3862592,103.356937 13.7536114,105.642717 15.0537431,107.544421 C16.3542031,109.446029 18.0885292,110.248142 18.9263304,109.340008 C19.7654297,108.430691 19.397541,106.146161 18.0968132,104.244513 C17.1215153,102.818136 15.8974019,102.004891 14.9950571,102.0743 Z M24.5264618,97.94932 L24.3681265,97.9546813 C23.9868606,97.9847035 23.6473274,98.1248112 23.3804303,98.4019546 C22.3122463,99.5081938 22.7711433,102.27106 24.402621,104.563232 C26.0344746,106.855729 28.2211376,107.812991 29.289462,106.706738 C30.3590942,105.599086 29.9008749,102.851178 28.2691951,100.559107 C27.0452522,98.8399879 25.5118311,97.8659382 24.368156,97.9548909 Z M61.8568075,95.2566336 C61.4104192,95.1154321 60.9347472,95.1252303 60.4653176,95.2556239 C59.0577612,95.6562332 57.6607663,97.1906239 56.9842434,99.2760297 C56.0822804,102.056524 56.8022285,104.767052 58.587238,105.327666 C60.3698615,105.88748 62.5418798,104.07705 63.4438773,101.296517 C64.34578,98.5159587 63.6393576,95.8164519 61.8568075,95.2566336 Z M12.4664859,92.1200045 L12.3328894,92.1223875 C12.0118604,92.1444613 11.7334922,92.2837104 11.512246,92.545975 C10.6295465,93.5930084 11.0590989,96.2564186 12.4757481,98.4913989 C13.8922259,100.726701 15.7562057,101.685469 16.639056,100.638454 C17.5229403,99.5900393 17.0920857,96.9280267 15.6755484,94.6930307 C14.6132796,93.0167564 13.2970071,92.0586756 12.3328894,92.1223875 Z M45.542327,86.4524014 C45.0959009,86.3108903 44.6222516,86.3350808 44.1528611,86.4654689 C42.7452137,86.8657142 41.3621296,88.3982174 40.685669,90.4836201 C39.7837171,93.2641126 40.4877636,95.9628905 42.2727795,96.5235094 C44.0553967,97.0833183 46.2293323,95.2865311 47.1313186,92.506 C48.033234,89.7254508 47.3248827,87.0122189 45.542327,86.4524014 Z M22.298769,87.2496894 L22.1403792,87.2552723 C21.7590887,87.2850786 21.4195179,87.4252029 21.1526201,87.7023407 C20.0844744,88.8085689 20.5433536,91.5715103 22.1748272,93.863695 C23.8066979,96.1561107 26.007268,97.111418 27.0755925,96.0051647 C28.145219,94.8975138 27.6870154,92.149677 26.0553292,89.857601 C24.8314661,88.1384818 23.2840536,87.1663141 22.1403792,87.2552723 Z M9.68457629,82.3379164 L9.538878,82.3428448 C9.18780775,82.3700909 8.87988029,82.5171719 8.63461358,82.7783925 C7.65416552,83.8225695 8.0837874,86.4341744 9.59619617,88.6119254 C11.1081842,90.7895612 13.121539,91.7129853 14.1016965,90.6688492 C15.083409,89.6233305 14.6506006,86.9994311 13.1381819,84.8215691 C12.0041643,83.1881731 10.5917387,82.2595081 9.53882922,82.3430653 Z M59.7867749,78.1034982 C59.3403433,77.961988 58.8667722,77.9861675 58.397337,78.1165619 C56.9897405,78.516845 55.5926667,80.0512018 54.9162061,82.1366045 C54.0142625,84.9171971 54.7322077,87.6139598 56.5172108,88.1745692 C58.2998344,88.7343829 60.4738536,86.9376233 61.3758454,84.1571308 C62.277749,81.3765382 61.5693258,78.6633221 59.7867749,78.1034982 Z M38.1710183,74.7541109 C37.5836657,73.9456647 35.7555275,73.6137744 33.6548416,73.8335486 C32.9545841,73.9067095 32.2219572,74.0369124 31.4965102,74.2349456 C28.5948587,75.0287013 26.8749824,76.554431 27.6581717,77.6326649 C28.4397384,78.7097323 31.4290528,78.9317718 34.3307434,78.1380106 C37.2323835,77.3442959 38.9525603,75.8310019 38.1710183,74.7541109 Z M24.1203921,70.3398551 C23.4481797,69.2908976 20.9576002,69.0116933 18.5534219,69.7211439 C16.1492419,70.4306228 14.7373415,71.8597668 15.4096496,72.9091213 C16.0810226,73.9571339 18.5723748,74.2373768 20.9766211,73.5278829 C23.380805,72.8184315 24.7917557,71.3878409 24.1203921,70.3398551 Z M38.3217202,69.0584071 C37.5699591,68.0641701 34.6863156,67.8668558 31.8715175,68.6198784 C29.0567377,69.3727073 27.3758989,70.7863513 28.1275941,71.7801196 C28.8782962,72.7723349 31.7768994,72.9697511 34.5917038,72.2167332 C37.4065555,71.4638885 39.0725195,70.0508281 38.3217202,69.0584071 Z M48.596483,66.1014791 C45.9556503,66.1154203 43.4908707,67.0521535 43.0997134,68.2049873 C42.7083014,69.3594144 44.5409289,70.293106 47.18187,70.2793689 C49.8226925,70.2653954 52.2710761,69.3184211 52.6627177,68.1640067 C53.053611,67.0111594 51.2373467,66.0877585 48.596483,66.1014791 Z M38.1320797,63.9711926 C37.506655,63.0484632 35.1545968,62.8283417 32.8806727,63.4762662 C30.6066951,64.1244175 29.2758782,65.3964065 29.9012608,66.318917 C30.5257347,67.2402731 32.8648879,67.464047 35.1387664,66.8157578 C37.4127487,66.1676395 38.7565819,64.892466 38.1320797,63.9711926 Z M87.186867,0.310932687 L87.4451677,0.318819063 C87.6139207,0.326771544 87.782073,0.34717799 87.9488976,0.374334802 C88.0887292,0.394926164 88.228166,0.418548095 88.3660948,0.449643934 C88.4644918,0.474177076 88.5615329,0.505618196 88.6575675,0.536753498 L88.6575675,0.536753498 L88.7344,0.555909987 L89.0450021,0.675400933 C89.152241,0.723355288 89.258717,0.770048998 89.3621738,0.824553481 L89.3621738,0.824553481 L89.3890974,0.831266274 L89.4514395,0.861192251 C89.5407301,0.909354103 89.6279972,0.958438685 89.7146049,1.00874222 C89.8106372,1.06574319 89.9057374,1.12358771 89.9969667,1.18838286 L89.9969667,1.18838286 L90.0895396,1.25351302 C90.2190147,1.34724364 90.3449437,1.44655666 90.464976,1.55230428 C90.5916558,1.6629481 90.7124403,1.78002136 90.8275782,1.90252659 C90.9422079,2.02417503 91.0512795,2.15234795 91.1542039,2.28508701 C91.2287343,2.37806247 91.3004954,2.4735698 91.3688826,2.57111784 L91.3688826,2.57111784 L107.538417,23.7271061 C108.361421,24.8010912 108.723343,26.1614048 108.54432,27.5067956 L108.54432,27.5067956 L104.552718,57.0676376 C104.56042,59.7885181 102.439672,62.041159 99.7344611,62.1854414 L99.7344611,62.1854414 L70.3554513,63.7372422 C69.9379508,63.7625174 69.5199438,63.7327169 69.1080078,63.6587196 L69.1080078,63.6587196 C68.4378888,63.5299125 67.8043466,63.2648646 67.241886,62.8824277 L67.241886,62.8824277 L45.6443717,48.1420339 C45.5809351,48.1050501 45.5186199,48.0621208 45.455935,48.0249731 L45.455935,48.0249731 L45.4198909,48.0015491 C45.3263065,47.9318575 45.2351703,47.8609648 45.1472244,47.7830011 C45.1050177,47.7513105 45.0632941,47.7135154 45.0224775,47.68182 C44.9347089,47.6089125 44.8493036,47.5308247 44.7660783,47.4540381 C44.6700563,47.3524764 44.5777486,47.2475315 44.4903238,47.1387703 L44.4903238,47.1387703 L44.4266411,47.0668507 C44.3956526,47.0260669 44.3645748,46.9913871 44.333582,46.9477039 C44.1554978,46.7219038 43.9971849,46.4807333 43.8594183,46.2279043 C43.8342439,46.1810168 43.8097517,46.1343102 43.7859033,46.086315 C43.1967438,44.9052262 43.0881267,43.5393297 43.4824135,42.2766495 L43.4824135,42.2766495 L53.0221242,11.9380602 C53.5438838,10.2891412 54.8614001,9.01624864 56.5218709,8.55682499 L56.5218709,8.55682499 L85.4729749,0.579204983 C85.9429534,0.419682836 86.4337042,0.330032918 86.9289514,0.313360917 C87.1009934,0.306675125 87.2726123,0.311752046 87.4451677,0.318819063 Z M73.3645927,50.4025301 C70.6600124,50.0801087 68.7135335,50.7561097 69.0084645,51.9111812 C69.3035786,53.0682204 71.7280958,54.2663025 74.4326934,54.5885454 C77.1372058,54.9109554 79.0967635,54.2396999 78.8015388,53.0831039 C78.5066184,51.9282511 76.069194,50.7247795 73.3645927,50.4025301 Z M100.648299,45.6375292 C100.033678,43.0931682 98.4803188,41.4989914 97.1686392,42.0787112 C95.8549806,42.6591021 95.2869671,45.2033156 95.9019097,47.7480437 C96.3628377,49.656478 97.3481204,51.0297704 98.3711255,51.3492804 C98.7118684,51.4565536 99.0566583,51.438672 99.3848618,51.293658 C100.69683,50.7140102 101.263274,48.1821528 100.648299,45.6375292 Z M97.2398528,30.0520699 C96.7602345,27.8067616 95.4747085,26.4196391 94.3710866,26.9505436 C93.2658382,27.4820634 92.7509058,29.7362571 93.2307536,31.9817029 C93.5903606,33.6658251 94.4056571,34.8739313 95.25581,35.1444446 C95.5395309,35.2349978 95.8228085,35.2162848 96.0994955,35.0833033 C97.2032469,34.5524999 97.7191353,32.297346 97.2398528,30.0520699 Z M74.9191174,26.1805515 C73.6194618,25.0248764 71.1314759,25.9350016 69.358028,28.2163356 C67.5846332,30.4977118 67.1939261,33.2869997 68.4935266,34.4426611 C68.8185237,34.7333117 69.2268308,34.8786043 69.6702231,34.9230419 C71.0032653,35.047674 72.7279593,34.1044002 74.0580223,32.3933853 C75.8314272,30.1120751 76.220501,27.3378347 74.9191174,26.1805515 Z M95.5381528,15.5352127 C94.9267715,12.9876105 93.3698027,11.3983003 92.0600165,11.9798561 C90.7482706,12.5620503 90.1730917,15.0898068 90.7844181,17.6370856 C91.2430259,19.5475809 92.241959,20.9265775 93.2620027,21.249081 L93.2620027,21.249081 C93.6025121,21.3562142 93.9477473,21.3415968 94.2755858,21.1957287 C95.5852304,20.6141323 96.1492474,18.0825726 95.5381528,15.5352127 Z M63.9901413,12.1173991 C62.6920174,10.9629628 60.2035311,11.8856383 58.4320548,14.1646387 C56.660649,16.443697 56.2736795,19.2165731 57.5717397,20.3709878 C57.8964336,20.6610225 58.3007328,20.8203174 58.7436465,20.8647042 C60.0752008,20.9887946 61.8103361,20.0496179 63.1389664,18.3403705 C64.9103996,16.0613939 65.2899839,13.2734284 63.9901413,12.1173991 Z" ></path>
        </g>
    </g>
</svg>