
<svg width="150px" height="163px" viewBox="0 0 150 163" version="1.1" xmlns="http://www.w3.org/2000/svg" xmlns:xlink="http://www.w3.org/1999/xlink">
    <g stroke="none" stroke-width="1" fill="none" fill-rule="evenodd">
        <g transform="translate(-112.000000, -907.000000)" fill="currentColor" fill-rule="nonzero">
            <g transform="translate(71.000000, 907.000000)">
                <path d="M84.3144737,64.2351452 L96.0328947,64.2351452 C97.4296559,64.2351452 98.5733806,65.3240934 98.6592932,66.6979931 L98.6644737,66.8641774 L98.6644737,75.0312661 C102.919474,75.9766004 107.024849,77.6444223 110.749333,79.9400611 L111.334211,80.3077339 L117.075,74.5422661 C117.568421,74.045379 118.240789,73.7667016 118.940789,73.7667016 C119.570789,73.7667016 120.178408,73.9934951 120.653336,74.4001262 L120.806579,74.5422661 L129.092105,82.8670968 C130.068764,83.8478401 130.111228,85.4058772 129.219496,86.43682 L129.092105,86.5740323 L123.336842,92.3565887 C125.695592,96.0642472 127.429717,100.165774 128.446711,104.429001 L128.601316,105.103452 L136.715789,105.103452 C138.113816,105.103452 139.256373,106.191185 139.342194,107.564991 L139.347368,107.731169 L139.347368,119.502661 C139.347368,120.898071 138.257365,122.040689 136.882135,122.126518 L136.715789,122.131694 L128.601316,122.131694 C127.660066,126.411298 125.996816,130.541422 123.704072,134.289897 L123.336842,134.878556 L129.092105,140.661113 C130.068764,141.641856 130.111228,143.199893 129.219496,144.230836 L129.092105,144.368048 L120.806579,152.692879 C119.862643,153.642188 118.213245,153.683463 117.207964,152.816702 L117.075,152.692879 L111.334211,146.927411 C107.650461,149.288874 103.573648,151.027502 99.3350387,152.048625 L98.6644737,152.203879 L98.6644737,160.370968 C98.6644737,161.766377 97.5744706,162.908995 96.19924,162.994825 L96.0328947,163 L84.3144737,163 C82.9177126,163 81.7739879,161.911052 81.6880752,160.537152 L81.6828947,160.370968 L81.6828947,152.205194 C77.4278947,151.259859 73.3225197,149.592037 69.5980354,147.296399 L69.0131579,146.928726 L63.2723684,152.694194 C62.7789474,153.191081 62.1065789,153.469758 61.4065789,153.469758 C60.7765789,153.469758 60.1689605,153.242965 59.6940329,152.836333 L59.5407895,152.694194 L51.2539474,144.369363 C50.2772883,143.389877 50.2348249,141.830692 51.1265571,140.799647 L51.2539474,140.662427 L57.0105263,134.879871 C54.6517763,131.172213 52.9176513,127.070686 51.9006576,122.807459 L51.7460526,122.133008 L43.6315789,122.133008 C42.2348178,122.133008 41.0910931,121.04406 41.0051805,119.67016 L41,119.503976 L41,107.732484 C41,106.337074 42.0900031,105.194457 43.4652337,105.108627 L43.6315789,105.103452 L51.7460526,105.103452 C52.6873026,100.823847 54.3505526,96.6937229 56.6432964,92.9452478 L57.0105263,92.3565887 L51.2539474,86.5740323 C50.2772883,85.5945463 50.2348249,84.0353612 51.1265571,83.0043162 L51.2539474,82.8670968 L59.5407895,74.5422661 C60.4847254,73.5929569 62.1341235,73.5516826 63.1394039,74.4184432 L63.2723684,74.5422661 L69.0131579,80.3077339 C72.6969079,77.9462714 76.7737204,76.207643 81.0123298,75.1865197 L81.6828947,75.0312661 L81.6828947,66.8641774 C81.6828947,65.468768 82.7728979,64.3261501 84.1481284,64.2403207 L84.3144737,64.2351452 L96.0328947,64.2351452 Z M90.1736842,93.686879 C79.2263158,93.686879 70.3184211,102.628218 70.3184211,113.617573 C70.3184211,124.606927 79.2263158,133.548266 90.1736842,133.548266 C101.121053,133.548266 110.028947,124.606927 110.028947,113.617573 C110.028947,102.628218 101.121053,93.686879 90.1736842,93.686879 Z M90.1736842,98.9449435 C98.2197368,98.9449435 104.765789,105.526726 104.765789,113.617573 C104.765789,121.708419 98.2197368,128.290202 90.1736842,128.290202 C82.1276316,128.290202 75.5815789,121.708419 75.5815789,113.617573 C75.5815789,105.526726 82.1276316,98.9449435 90.1736842,98.9449435 Z M150.430263,2.98427949e-13 L158.913158,2.98427949e-13 C160.309919,2.98427949e-13 161.453644,1.08894827 161.539556,2.46284798 L161.544737,2.62903226 L161.544737,7.96728226 C164.282105,8.63347903 166.926632,9.70274735 169.365988,11.1291309 L169.885526,11.4402339 L173.632895,7.67677419 C174.576831,6.72746494 176.226229,6.68619062 177.231509,7.55295125 L177.364474,7.67677419 L183.364474,13.7025161 C184.341133,14.6820021 184.383596,16.2411872 183.491864,17.2722322 L183.364474,17.4094516 L179.602632,21.1886855 C181.078772,23.6154575 182.201883,26.2563613 182.923825,28.9981094 L183.072368,29.587129 L188.368421,29.587129 C189.765182,29.587129 190.908907,30.674862 190.994819,32.0486682 L191,32.2148468 L191,40.7368548 C191,42.1322643 189.909997,43.2748821 188.534766,43.3607116 L188.368421,43.3658871 L183.072368,43.3658871 C182.407982,46.1226903 181.338988,48.7855962 179.914596,51.2413172 L179.603947,51.7643306 L183.364474,55.5435645 C184.341133,56.5243079 184.383596,58.0823449 183.491864,59.1132877 L183.364474,59.2505 L177.364474,65.2762419 C176.871053,65.773129 176.198684,66.0518065 175.498684,66.0518065 C174.868684,66.0518065 174.261066,65.825013 173.786138,65.4183819 L173.632895,65.2762419 L169.885526,61.5127823 C167.474825,62.9899478 164.852076,64.1132808 162.129608,64.8368247 L161.544737,64.9857339 L161.544737,70.3226694 C161.544737,71.7180788 160.454734,72.8606967 159.079503,72.9465261 L158.913158,72.9517016 L150.430263,72.9517016 C149.033502,72.9517016 147.889777,71.8627533 147.803865,70.4888536 L147.798684,70.3226694 L147.798684,64.9857339 C145.062544,64.3195371 142.418099,63.2502688 139.977678,61.8238852 L139.457895,61.5127823 L135.710526,65.2762419 C134.76659,66.2255512 133.117192,66.2668255 132.111912,65.4000649 L131.978947,65.2762419 L125.978947,59.2505 C125.002288,58.271014 124.959825,56.7118289 125.851557,55.6807839 L125.978947,55.5435645 L129.739474,51.7643306 C128.263333,49.3375586 127.141368,46.6966548 126.41958,43.9549068 L126.271053,43.3658871 L120.975,43.3658871 C119.578239,43.3658871 118.434514,42.2769388 118.348602,40.9030391 L118.343421,40.7368548 L118.343421,32.2148468 C118.343421,30.8194373 119.433424,29.6768195 120.808655,29.59099 L120.975,29.5858145 L126.271053,29.5858145 C126.935439,26.8302382 128.003287,24.1674141 129.428596,21.7106298 L129.739474,21.187371 L125.978947,17.4081371 C125.002288,16.4273938 124.959825,14.8693567 125.851557,13.8384139 L125.978947,13.7012016 L131.978947,7.67545968 C132.472368,7.17857258 133.144737,6.89989516 133.844737,6.89989516 C134.474737,6.89989516 135.082355,7.12668863 135.557283,7.53331973 L135.710526,7.67545968 L139.457895,11.4389194 C141.867368,9.96175376 144.490035,8.83842086 147.213567,8.11487691 L147.798684,7.96596774 L147.798684,2.62903226 C147.798684,1.23362283 148.888687,0.0910049628 150.263918,0.00517549591 L150.430263,2.98427949e-13 L158.913158,2.98427949e-13 Z M154.673684,21.3214516 C146.346053,21.3214516 139.572368,28.1214435 139.572368,36.4778226 C139.572368,44.8342016 146.347368,51.632879 154.673684,51.632879 C163,51.632879 169.775,44.8328871 169.775,36.4765081 C169.775,28.120129 163.001316,21.3214516 154.673684,21.3214516 Z M154.673684,26.5808306 C160.107149,26.5808306 164.511842,31.0118649 164.511842,36.4778226 C164.511842,41.9437803 160.107149,46.3748145 154.673684,46.3748145 C149.24022,46.3748145 144.835526,41.9437803 144.835526,36.4778226 C144.835526,31.0118649 149.24022,26.5808306 154.673684,26.5808306 Z"></path>
            </g>
        </g>
    </g>
</svg>