<svg width="205px" height="205px" viewBox="0 0 205 205" version="1.1" xmlns="http://www.w3.org/2000/svg" xmlns:xlink="http://www.w3.org/1999/xlink">
    <defs>
        <radialGradient cx="50%" cy="0%" fx="50%" fy="0%" r="66.9482874%" gradientTransform="translate(0.500000,0.000000),scale(0.992593,1.000000),rotate(90.000000),translate(-0.500000,-0.000000)" id="rollDice-six-radialGradient-1">
            <stop stop-color="#000000" offset="0%"></stop>
            <stop stop-color="#4E4E4E" offset="100%"></stop>
        </radialGradient>
    </defs>
    <g stroke="none" stroke-width="1" fill="none" fill-rule="evenodd">
        <g transform="translate(-170.000000, -170.000000)" fill-rule="nonzero">
            <g transform="translate(170.000000, 170.000000)">
                <path d="M174.695652,0 L30.3043478,0 C13.5923913,0 0,13.5929823 0,30.3056655 L0,174.694335 C0,191.407018 13.5923913,205 30.3043478,205 L174.695652,205 C191.407609,205 205,191.407018 205,174.694335 L205,30.3145789 C205,13.6018957 191.407609,0 174.695652,0 Z" fill="#FFFFFF"></path>
                <path d="M53,133 C62.9411255,133 71,141.058875 71,151 C71,160.941125 62.9411255,169 53,169 C43.0588745,169 35,160.941125 35,151 C35,141.058875 43.0588745,133 53,133 Z M152,133 C161.941125,133 170,141.058875 170,151 C170,160.941125 161.941125,169 152,169 C142.058875,169 134,160.941125 134,151 C134,141.058875 142.058875,133 152,133 Z M53,85 C62.9411255,85 71,93.0588745 71,103 C71,112.941125 62.9411255,121 53,121 C43.0588745,121 35,112.941125 35,103 C35,93.0588745 43.0588745,85 53,85 Z M152,85 C161.941125,85 170,93.0588745 170,103 C170,112.941125 161.941125,121 152,121 C142.058875,121 134,112.941125 134,103 C134,93.0588745 142.058875,85 152,85 Z M53,35 C62.9411255,35 71,43.0588745 71,53 C71,62.9411255 62.9411255,71 53,71 C43.0588745,71 35,62.9411255 35,53 C35,43.0588745 43.0588745,35 53,35 Z M152,35 C161.941125,35 170,43.0588745 170,53 C170,62.9411255 161.941125,71 152,71 C142.058875,71 134,62.9411255 134,53 C134,43.0588745 142.058875,35 152,35 Z" fill="url(#rollDice-six-radialGradient-1)"></path>
            </g>
        </g>
    </g>
</svg>