<svg width="96px" height="57px" viewBox="0 0 96 57" version="1.1" xmlns="http://www.w3.org/2000/svg" xmlns:xlink="http://www.w3.org/1999/xlink">
    <g stroke="none" stroke-width="1" fill="none" fill-rule="evenodd">
        <g transform="translate(-145.000000, -58.000000)" fill="#FFFFFF" fill-rule="nonzero">
            <g>
                <path d="M176.654401,115 C175.738459,115 174.997546,114.153185 174.997546,113.115253 L174.997546,97.2514482 L148.32708,97.2514482 L148.32708,113.115253 C148.32708,114.153185 147.579481,115 146.66354,115 C145.740913,115 145,114.153185 145,113.115253 L145,95.3667012 C145,94.3748007 145.673542,93.5582842 146.535654,93.4819542 L146.576111,93.4819542 L146.656854,93.4743795 L159.992088,93.4743795 L159.992088,77.6181494 C159.992088,76.580412 160.733,75.7334024 161.655627,75.7334024 L161.850884,75.7485518 L162.012541,75.7409771 L191.336374,75.7409771 L191.336374,59.8771722 C191.336374,58.8394349 192.077287,58 192.993229,58 C193.922541,58 194.663454,58.8394349 194.663454,59.8771722 L194.663454,75.7409771 L200.195329,75.7409771 L223.987288,75.7409771 L224.135573,75.7485518 L224.337515,75.7334024 C225.253457,75.7334024 225.99437,76.580412 225.99437,77.6181494 L225.99437,93.4743795 L239.329603,93.4743795 L239.383431,93.4819542 L239.410346,93.4819542 L239.423889,93.4819542 L239.450803,93.4819542 L239.464346,93.4819542 L239.477888,93.489529 C240.340001,93.5812026 241,94.3823754 241,95.3667012 L241,113.115253 C241,114.153185 240.259087,115 239.329774,115 C238.413833,115 237.67292,114.153185 237.67292,113.115253 L237.67292,97.2514482 L211.002454,97.2514482 L211.002454,113.115253 C211.002454,114.153185 210.261712,115 209.332228,115 C208.416287,115 207.675374,114.153185 207.675374,113.115253 L207.675374,95.3667012 C207.675374,94.3748007 208.348915,93.5582842 209.211028,93.4819542 L209.251485,93.4819542 L209.332228,93.4743795 L222.667461,93.4743795 L222.667461,79.510471 L193.127971,79.510471 L192.993229,79.5180458 L192.871857,79.510471 L163.319167,79.510471 L163.319167,93.4743795 L176.654401,93.4743795 L176.708229,93.4819542 L176.735143,93.4819542 L176.748515,93.4819542 L176.775429,93.4819542 L176.788972,93.4819542 L176.815886,93.489529 C177.664456,93.5812026 178.324455,94.3823754 178.324455,95.3667012 L178.324455,113.115253 C178.324626,114.153185 177.583885,115 176.654401,115 Z" id="Path"></path>
            </g>
        </g>
    </g>
</svg>