<svg width="147px" height="100px" viewBox="0 0 147 100" version="1.1" xmlns="http://www.w3.org/2000/svg" xmlns:xlink="http://www.w3.org/1999/xlink">
    <defs>
        <path d="M31.6544006,57 C30.7384594,57 29.9975464,56.1531846 29.9975464,55.115253 L29.9975464,39.2514482 L3.32707977,39.2514482 L3.32707977,55.115253 C3.32707977,56.1531846 2.57948111,57 1.66353989,57 C0.740912963,57 0,56.1531846 0,55.115253 L0,37.3667012 C0,36.3748007 0.673541654,35.5582842 1.5356544,35.4819542 L1.57611147,35.4819542 L1.65685418,35.4743795 L14.9920875,35.4743795 L14.9920875,19.6181494 C14.9920875,18.580412 15.7330005,17.7334024 16.6556274,17.7334024 L16.8508842,17.7485518 L17.012541,17.7409771 L46.3363744,17.7409771 L46.3363744,1.87717224 C46.3363744,0.839434911 47.0772874,0 47.9932286,0 C48.9225412,0 49.6634542,0.839434911 49.6634542,1.87717224 L49.6634542,17.7409771 L55.1953287,17.7409771 L78.9872875,17.7409771 L79.135573,17.7485518 L79.3375155,17.7334024 C80.2534567,17.7334024 80.9943697,18.580412 80.9943697,19.6181494 L80.9943697,35.4743795 L94.329603,35.4743795 L94.3834315,35.4819542 L94.4103457,35.4819542 L94.4238885,35.4819542 L94.4508028,35.4819542 L94.4643456,35.4819542 L94.4778884,35.489529 C95.3400012,35.5812026 96,36.3823754 96,37.3667012 L96,55.115253 C96,56.1531846 95.259087,57 94.3297744,57 C93.4138332,57 92.6729202,56.1531846 92.6729202,55.115253 L92.6729202,39.2514482 L66.0024536,39.2514482 L66.0024536,55.115253 C66.0024536,56.1531846 65.261712,57 64.332228,57 C63.4162868,57 62.6753738,56.1531846 62.6753738,55.115253 L62.6753738,37.3667012 C62.6753738,36.3748007 63.3489154,35.5582842 64.2110282,35.4819542 L64.2514853,35.4819542 L64.332228,35.4743795 L77.6674613,35.4743795 L77.6674613,21.510471 L48.1279712,21.510471 L47.9932286,21.5180458 L47.8718574,21.510471 L18.3191673,21.510471 L18.3191673,35.4743795 L31.6544006,35.4743795 L31.7082291,35.4819542 L31.7351433,35.4819542 L31.7485147,35.4819542 L31.775429,35.4819542 L31.7889718,35.4819542 L31.815886,35.489529 C32.664456,35.5812026 33.3244548,36.3823754 33.3244548,37.3667012 L33.3244548,55.115253 C33.3246262,56.1531846 32.5838847,57 31.6544006,57 Z" id="path-1"></path>
        <filter x="-35.4%" y="-56.1%" width="170.8%" height="219.3%" filterUnits="objectBoundingBox" id="brackets-filter-2">
            <feGaussianBlur stdDeviation="10" in="SourceGraphic"></feGaussianBlur>
        </filter>
        <filter x="-38.5%" y="-61.4%" width="177.1%" height="229.8%" filterUnits="objectBoundingBox" id="brackets-filter-3">
            <feOffset dx="0" dy="2" in="SourceAlpha" result="shadowOffsetOuter1"></feOffset>
            <feMorphology radius="2" operator="erode" in="SourceAlpha" result="shadowInner"></feMorphology>
            <feOffset dx="0" dy="2" in="shadowInner" result="shadowInner"></feOffset>
            <feComposite in="shadowOffsetOuter1" in2="shadowInner" operator="out" result="shadowOffsetOuter1"></feComposite>
            <feGaussianBlur stdDeviation="2" in="shadowOffsetOuter1" result="shadowBlurOuter1"></feGaussianBlur>
            <feColorMatrix values="0 0 0 0 0   0 0 0 0 0   0 0 0 0 0  0 0 0 0.5 0" type="matrix" in="shadowBlurOuter1"></feColorMatrix>
        </filter>
        <path d="M31.6544006,57 C30.7384594,57 29.9975464,56.1531846 29.9975464,55.115253 L29.9975464,39.2514482 L3.32707977,39.2514482 L3.32707977,55.115253 C3.32707977,56.1531846 2.57948111,57 1.66353989,57 C0.740912963,57 0,56.1531846 0,55.115253 L0,37.3667012 C0,36.3748007 0.673541654,35.5582842 1.5356544,35.4819542 L1.57611147,35.4819542 L1.65685418,35.4743795 L14.9920875,35.4743795 L14.9920875,19.6181494 C14.9920875,18.580412 15.7330005,17.7334024 16.6556274,17.7334024 L16.8508842,17.7485518 L17.012541,17.7409771 L46.3363744,17.7409771 L46.3363744,1.87717224 C46.3363744,0.839434911 47.0772874,0 47.9932286,0 C48.9225412,0 49.6634542,0.839434911 49.6634542,1.87717224 L49.6634542,17.7409771 L55.1953287,17.7409771 L78.9872875,17.7409771 L79.135573,17.7485518 L79.3375155,17.7334024 C80.2534567,17.7334024 80.9943697,18.580412 80.9943697,19.6181494 L80.9943697,35.4743795 L94.329603,35.4743795 L94.3834315,35.4819542 L94.4103457,35.4819542 L94.4238885,35.4819542 L94.4508028,35.4819542 L94.4643456,35.4819542 L94.4778884,35.489529 C95.3400012,35.5812026 96,36.3823754 96,37.3667012 L96,55.115253 C96,56.1531846 95.259087,57 94.3297744,57 C93.4138332,57 92.6729202,56.1531846 92.6729202,55.115253 L92.6729202,39.2514482 L66.0024536,39.2514482 L66.0024536,55.115253 C66.0024536,56.1531846 65.261712,57 64.332228,57 C63.4162868,57 62.6753738,56.1531846 62.6753738,55.115253 L62.6753738,37.3667012 C62.6753738,36.3748007 63.3489154,35.5582842 64.2110282,35.4819542 L64.2514853,35.4819542 L64.332228,35.4743795 L77.6674613,35.4743795 L77.6674613,21.510471 L48.1279712,21.510471 L47.9932286,21.5180458 L47.8718574,21.510471 L18.3191673,21.510471 L18.3191673,35.4743795 L31.6544006,35.4743795 L31.7082291,35.4819542 L31.7351433,35.4819542 L31.7485147,35.4819542 L31.775429,35.4819542 L31.7889718,35.4819542 L31.815886,35.489529 C32.664456,35.5812026 33.3244548,36.3823754 33.3244548,37.3667012 L33.3244548,55.115253 C33.3246262,56.1531846 32.5838847,57 31.6544006,57 Z" id="path-4"></path>
        <filter x="-7.3%" y="-8.8%" width="114.6%" height="124.6%" filterUnits="objectBoundingBox" id="brackets-filter-5">
            <feOffset dx="0" dy="2" in="SourceAlpha" result="shadowOffsetOuter1"></feOffset>
            <feMorphology radius="2" operator="erode" in="SourceAlpha" result="shadowInner"></feMorphology>
            <feOffset dx="0" dy="2" in="shadowInner" result="shadowInner"></feOffset>
            <feComposite in="shadowOffsetOuter1" in2="shadowInner" operator="out" result="shadowOffsetOuter1"></feComposite>
            <feGaussianBlur stdDeviation="2" in="shadowOffsetOuter1" result="shadowBlurOuter1"></feGaussianBlur>
            <feColorMatrix values="0 0 0 0 0   0 0 0 0 0   0 0 0 0 0  0 0 0 0.5 0" type="matrix" in="shadowBlurOuter1"></feColorMatrix>
        </filter>
    </defs>
    <g stroke="none" stroke-width="1" fill="none" fill-rule="evenodd">
        <g transform="translate(-119.000000, -37.000000)" fill-rule="nonzero">
            <g>
                <g transform="translate(145.000000, 58.000000)">
                    <g filter="url(#brackets-filter-2)">
                        <use fill="black" fill-opacity="1" filter="url(#brackets-filter-3)" xlink:href="#brackets-path-1"></use>
                        <path stroke="#50E38C" stroke-width="2" d="M31.6544006,36.4732889 L31.5449716,36.4521324 L31.5180573,36.4445577 L31.6544006,35.9601077 L31.6544006,36.4732889 Z M31.6941063,36.4809654 L31.6000418,36.4743795 L17.3191673,36.4743795 L17.3191673,20.510471 L18.3191673,20.510471 L47.9341458,20.5124129 L48.0007588,20.5165701 L48.1279712,20.510471 L78.6674613,20.510471 L78.6674613,36.4743795 L77.6674613,36.4743795 L64.425631,36.4700079 L64.2827616,36.4798087 C63.9655857,36.5192094 63.6753738,36.8822878 63.6753738,37.3667012 L63.6753738,55.115253 C63.6753738,55.6291768 64.0008826,56 64.332228,56 C64.6763651,56 65.0024536,55.6305503 65.0024536,55.115253 L65.0024536,38.2514482 L93.6729202,38.2514482 L93.6729202,55.115253 C93.6729202,55.6291768 93.998429,56 94.3297744,56 C94.6738171,56 95,55.6304696 95,55.115253 L95,37.3667012 C95,36.8784308 94.7076512,36.5195988 94.3721486,36.4839228 L94.2962003,36.4758467 L94.2752442,36.4743795 L79.9943697,36.4743795 L79.9943697,19.6181494 C79.9943697,19.1043393 79.6687841,18.7334024 79.4123239,18.7306003 L79.2103814,18.7457498 L79.0845574,18.7472497 L78.9872875,18.7409771 L48.6634542,18.7409771 L48.6634542,1.87717224 C48.6634542,1.36458601 48.339864,1 47.9932286,1 C47.6592915,1 47.3363744,1.36585656 47.3363744,1.87717224 L47.3363744,18.7409771 L46.3363744,18.7409771 L17.0593465,18.7398811 L16.8976897,18.7474559 L16.7735294,18.7455555 L16.6556274,18.7334024 C16.3180086,18.7334024 15.9920875,19.1036891 15.9920875,19.6181494 L15.9920875,36.4743795 L14.9920875,36.4743795 L1.75025718,36.4700079 L1.60738776,36.4798087 C1.29021188,36.5192094 1,36.8822878 1,37.3667012 L1,55.115253 C1,55.6298269 1.32584418,56 1.66353989,56 C1.99755398,56 2.32707977,55.6266825 2.32707977,55.115253 L2.32707977,38.2514482 L30.9975464,38.2514482 L30.9975464,55.115253 C30.9975464,55.6291768 31.3230552,56 31.6544006,56 C31.9985221,56 32.3245399,55.6306042 32.3244548,55.115253 L32.3244548,37.3667012 C32.3244548,36.8795022 32.0323519,36.5187331 31.708478,36.483744 L31.6941063,36.4809654 Z" stroke-linejoin="square"></path>
                    </g>
                    <g>
                        <use fill="black" fill-opacity="1" filter="url(#brackets-filter-5)" xlink:href="#brackets-path-4"></use>
                        <path stroke="#50E38C" stroke-width="2" d="M31.6544006,36.4732889 L31.5449716,36.4521324 L31.5180573,36.4445577 L31.6544006,35.9601077 L31.6544006,36.4732889 Z M31.6941063,36.4809654 L31.6000418,36.4743795 L17.3191673,36.4743795 L17.3191673,20.510471 L18.3191673,20.510471 L47.9341458,20.5124129 L48.0007588,20.5165701 L48.1279712,20.510471 L78.6674613,20.510471 L78.6674613,36.4743795 L77.6674613,36.4743795 L64.425631,36.4700079 L64.2827616,36.4798087 C63.9655857,36.5192094 63.6753738,36.8822878 63.6753738,37.3667012 L63.6753738,55.115253 C63.6753738,55.6291768 64.0008826,56 64.332228,56 C64.6763651,56 65.0024536,55.6305503 65.0024536,55.115253 L65.0024536,38.2514482 L93.6729202,38.2514482 L93.6729202,55.115253 C93.6729202,55.6291768 93.998429,56 94.3297744,56 C94.6738171,56 95,55.6304696 95,55.115253 L95,37.3667012 C95,36.8784308 94.7076512,36.5195988 94.3721486,36.4839228 L94.2962003,36.4758467 L94.2752442,36.4743795 L79.9943697,36.4743795 L79.9943697,19.6181494 C79.9943697,19.1043393 79.6687841,18.7334024 79.4123239,18.7306003 L79.2103814,18.7457498 L79.0845574,18.7472497 L78.9872875,18.7409771 L48.6634542,18.7409771 L48.6634542,1.87717224 C48.6634542,1.36458601 48.339864,1 47.9932286,1 C47.6592915,1 47.3363744,1.36585656 47.3363744,1.87717224 L47.3363744,18.7409771 L46.3363744,18.7409771 L17.0593465,18.7398811 L16.8976897,18.7474559 L16.7735294,18.7455555 L16.6556274,18.7334024 C16.3180086,18.7334024 15.9920875,19.1036891 15.9920875,19.6181494 L15.9920875,36.4743795 L14.9920875,36.4743795 L1.75025718,36.4700079 L1.60738776,36.4798087 C1.29021188,36.5192094 1,36.8822878 1,37.3667012 L1,55.115253 C1,55.6298269 1.32584418,56 1.66353989,56 C1.99755398,56 2.32707977,55.6266825 2.32707977,55.115253 L2.32707977,38.2514482 L30.9975464,38.2514482 L30.9975464,55.115253 C30.9975464,55.6291768 31.3230552,56 31.6544006,56 C31.9985221,56 32.3245399,55.6306042 32.3244548,55.115253 L32.3244548,37.3667012 C32.3244548,36.8795022 32.0323519,36.5187331 31.708478,36.483744 L31.6941063,36.4809654 Z" stroke-linejoin="square"></path>
                    </g>
                </g>
            </g>
        </g>
    </g>
</svg>