<svg width="131px" height="130px" viewBox="0 0 131 130" version="1.1" xmlns="http://www.w3.org/2000/svg" xmlns:xlink="http://www.w3.org/1999/xlink">
    <defs>
        <path d="M57.6665468,32.5501258 C56.8592298,31.7428088 58.0868309,30.5152078 58.8941479,31.3225248 C64.2957661,36.724143 71.6626747,49.1844674 64.8010447,56.0462711 C63.9937277,56.8535881 62.7661266,55.625987 63.5734436,54.8186701 C69.5923351,48.7996049 62.293752,37.177331 57.6665468,32.5501258 L57.6665468,32.5501258 Z M66.1945542,75.2815816 C61.0178803,80.4572136 52.7282741,81.36003 43.8951029,79.1315955 C25.1373761,74.3995146 6.00624676,55.3800327 1.19108146,36.6421004 C-0.973021191,28.2204446 -0.368944235,20.1948508 4.50378114,15.1531783 L14.5984123,4.7084985 C19.5484054,-0.413132975 27.908247,-0.973887941 36.5492909,1.19846239 C55.4588617,5.95216082 74.4384943,24.9318802 79.1921927,43.841451 C81.3682762,52.4971671 80.7049028,60.7740979 75.6584554,65.8195903 L66.1945542,75.2815816 Z M8.40362834,17.3107697 C4.32589185,21.5211635 3.47247471,28.1529873 5.37933678,35.5738965 C9.79106063,52.7419059 27.7606571,70.5908259 44.9464642,74.9263239 C52.4496764,76.8192083 59.1684047,75.9731707 63.3996347,71.9518656 C59.8757078,72.3662461 56.0137999,72.0456287 51.9977039,71.0360266 C33.08822,66.2823282 14.1084137,47.302522 9.3547153,28.393038 C8.37549944,24.4980526 8.04472433,20.7480526 8.40362834,17.3107697 Z M53.0490652,66.8307551 C60.7106328,68.7568038 67.5587193,67.838968 71.7769267,63.6207606 C75.9951341,59.4025532 76.9130567,52.5542931 74.9869212,44.8928123 C70.6264197,27.5475213 52.8432206,9.76423541 35.4979296,5.40373395 C27.8363621,3.47768519 20.9881887,4.395521 16.7699813,8.61372839 C12.5517739,12.8319358 11.6339381,19.6801091 13.5599869,27.3416767 C17.9204883,44.6868809 35.703861,62.4702536 53.0490652,66.8307551 L53.0490652,66.8307551 Z" id="coinFlip-path-1"></path>
        <filter x="-42.3%" y="-39.9%" width="184.6%" height="184.7%" filterUnits="objectBoundingBox" id="coinFlip-filter-2">
            <feGaussianBlur stdDeviation="10" in="SourceGraphic"></feGaussianBlur>
        </filter>
        <filter x="-46.0%" y="-43.6%" width="192.1%" height="192.2%" filterUnits="objectBoundingBox" id="coinFlip-filter-3">
            <feOffset dx="0" dy="2" in="SourceAlpha" result="shadowOffsetOuter1"></feOffset>
            <feGaussianBlur stdDeviation="2" in="shadowOffsetOuter1" result="shadowBlurOuter1"></feGaussianBlur>
            <feColorMatrix values="0 0 0 0 0   0 0 0 0 0   0 0 0 0 0  0 0 0 0.5 0" type="matrix" in="shadowBlurOuter1"></feColorMatrix>
        </filter>
        <path d="M57.6665468,32.5501258 C56.8592298,31.7428088 58.0868309,30.5152078 58.8941479,31.3225248 C64.2957661,36.724143 71.6626747,49.1844674 64.8010447,56.0462711 C63.9937277,56.8535881 62.7661266,55.625987 63.5734436,54.8186701 C69.5923351,48.7996049 62.293752,37.177331 57.6665468,32.5501258 L57.6665468,32.5501258 Z M66.1945542,75.2815816 C61.0178803,80.4572136 52.7282741,81.36003 43.8951029,79.1315955 C25.1373761,74.3995146 6.00624676,55.3800327 1.19108146,36.6421004 C-0.973021191,28.2204446 -0.368944235,20.1948508 4.50378114,15.1531783 L14.5984123,4.7084985 C19.5484054,-0.413132975 27.908247,-0.973887941 36.5492909,1.19846239 C55.4588617,5.95216082 74.4384943,24.9318802 79.1921927,43.841451 C81.3682762,52.4971671 80.7049028,60.7740979 75.6584554,65.8195903 L66.1945542,75.2815816 Z M8.40362834,17.3107697 C4.32589185,21.5211635 3.47247471,28.1529873 5.37933678,35.5738965 C9.79106063,52.7419059 27.7606571,70.5908259 44.9464642,74.9263239 C52.4496764,76.8192083 59.1684047,75.9731707 63.3996347,71.9518656 C59.8757078,72.3662461 56.0137999,72.0456287 51.9977039,71.0360266 C33.08822,66.2823282 14.1084137,47.302522 9.3547153,28.393038 C8.37549944,24.4980526 8.04472433,20.7480526 8.40362834,17.3107697 Z M53.0490652,66.8307551 C60.7106328,68.7568038 67.5587193,67.838968 71.7769267,63.6207606 C75.9951341,59.4025532 76.9130567,52.5542931 74.9869212,44.8928123 C70.6264197,27.5475213 52.8432206,9.76423541 35.4979296,5.40373395 C27.8363621,3.47768519 20.9881887,4.395521 16.7699813,8.61372839 C12.5517739,12.8319358 11.6339381,19.6801091 13.5599869,27.3416767 C17.9204883,44.6868809 35.703861,62.4702536 53.0490652,66.8307551 L53.0490652,66.8307551 Z" id="coinFlip-path-4"></path>
        <filter x="-8.7%" y="-6.2%" width="117.4%" height="117.4%" filterUnits="objectBoundingBox" id="coinFlip-filter-5">
            <feOffset dx="0" dy="2" in="SourceAlpha" result="shadowOffsetOuter1"></feOffset>
            <feGaussianBlur stdDeviation="2" in="shadowOffsetOuter1" result="shadowBlurOuter1"></feGaussianBlur>
            <feColorMatrix values="0 0 0 0 0   0 0 0 0 0   0 0 0 0 0  0 0 0 0.5 0" type="matrix" in="shadowBlurOuter1"></feColorMatrix>
        </filter>
    </defs>
    <g stroke="none" stroke-width="1" fill="none" fill-rule="evenodd">
        <g transform="translate(-130.000000, -18.000000)" fill-rule="nonzero">
            <g>
                <g transform="translate(155.000000, 42.000000)">
                    <g filter="url(#coinFlip-filter-2)" transform="translate(40.183699, 40.137021) scale(-1, 1) translate(-40.183699, -40.137021) ">
                        <use fill="black" fill-opacity="1" filter="url(#coinFlip-filter-3)" xlink:href="#coinFlip-path-1"></use>
                        <use fill="#F6C860" xlink:href="#coinFlip-path-1"></use>
                    </g>
                    <g  transform="translate(40.183699, 40.137021) scale(-1, 1) translate(-40.183699, -40.137021) ">
                        <use fill="black" fill-opacity="1" filter="url(#coinFlip-filter-5)" xlink:href="#coinFlip-path-4"></use>
                        <use fill="#F6C860" xlink:href="#coinFlip-path-4"></use>
                    </g>
                </g>
            </g>
        </g>
    </g>
</svg>