<svg width="81px" height="81px" viewBox="0 0 81 81" version="1.1" xmlns="http://www.w3.org/2000/svg" xmlns:xlink="http://www.w3.org/1999/xlink">
    <g stroke="none" stroke-width="1" fill="none" fill-rule="evenodd">
        <g transform="translate(-155.000000, -42.000000)" fill="#FFFFFF" fill-rule="nonzero">
            <g>
                <path d="M212.666547,74.5501258 C211.85923,73.7428088 213.086831,72.5152078 213.894148,73.3225248 C219.295766,78.724143 226.662675,91.1844674 219.801045,98.0462711 C218.993728,98.8535881 217.766127,97.625987 218.573444,96.8186701 C224.592335,90.7996049 217.293752,79.177331 212.666547,74.5501258 L212.666547,74.5501258 Z M221.194554,117.281582 C216.01788,122.457214 207.728274,123.36003 198.895103,121.131595 C180.137376,116.399515 161.006247,97.3800327 156.191081,78.6421004 C154.026979,70.2204446 154.631056,62.1948508 159.503781,57.1531783 L169.598412,46.7084985 C174.548405,41.586867 182.908247,41.0261121 191.549291,43.1984624 C210.458862,47.9521608 229.438494,66.9318802 234.192193,85.841451 C236.368276,94.4971671 235.704903,102.774098 230.658455,107.81959 L221.194554,117.281582 Z M163.403628,59.3107697 C159.325892,63.5211635 158.472475,70.1529873 160.379337,77.5738965 C164.791061,94.7419059 182.760657,112.590826 199.946464,116.926324 C207.449676,118.819208 214.168405,117.973171 218.399635,113.951866 C214.875708,114.366246 211.0138,114.045629 206.997704,113.036027 C188.08822,108.282328 169.108414,89.302522 164.354715,70.393038 C163.375499,66.4980526 163.044724,62.7480526 163.403628,59.3107697 Z M208.049065,108.830755 C215.710633,110.756804 222.558719,109.838968 226.776927,105.620761 C230.995134,101.402553 231.913057,94.5542931 229.986921,86.8928123 C225.62642,69.5475213 207.843221,51.7642354 190.49793,47.403734 C182.836362,45.4776852 175.988189,46.395521 171.769981,50.6137284 C167.551774,54.8319358 166.633938,61.6801091 168.559987,69.3416767 C172.920488,86.6868809 190.703861,104.470254 208.049065,108.830755 L208.049065,108.830755 Z" transform="translate(195.183699, 82.137021) scale(-1, 1) translate(-195.183699, -82.137021) "></path>
            </g>
        </g>
    </g>
</svg>