<svg width="108px" height="131px" viewBox="0 0 108 131" version="1.1" xmlns="http://www.w3.org/2000/svg" xmlns:xlink="http://www.w3.org/1999/xlink">
    <g stroke="none" stroke-width="1" fill="none" fill-rule="evenodd">
        <g transform="translate(-146.000000, -17.000000)" fill="#FFFFFF" fill-rule="nonzero">
            <g>
                <path d="M193.855052,76.6272343 L203.553989,137.863911 C203.813178,139.500367 202.696683,141.037091 201.060227,141.29628 L159.577317,147.866527 C157.940861,148.125716 156.404137,147.009221 156.144948,145.372766 L146.446011,84.1360886 C146.186822,82.499633 147.303317,80.9629093 148.939773,80.7037202 L190.422683,74.1334727 C192.059139,73.8742835 193.595863,74.9907787 193.855052,76.6272343 Z M192.218744,126.495344 L190.589058,126.753461 L191.580374,129.656347 C191.150894,129.341883 190.034244,128.524277 189.293478,128.641603 C188.108252,128.829324 187.669292,129.893314 187.858404,131.08732 C188.295725,133.848457 192.893157,136.027196 192.893157,136.027196 C192.893157,136.027196 196.663224,132.98216 196.154986,129.77327 C195.965874,128.579265 195.219608,127.702996 194.034382,127.890718 C193.343,128.000222 192.581584,128.92047 192.230048,129.393745 L192.161168,129.487861 L192.218744,126.495344 Z M173.229616,99.1334727 C173.229616,99.1334727 164.003039,106.561613 165.14637,114.259756 C165.607331,117.170144 167.455267,119.248878 170.344256,118.791308 C172.124944,118.509274 173.942094,116.241135 174.798743,115.069045 L174.896867,114.933853 L174.846312,122.285607 L178.84645,121.652047 L176.428837,114.538218 C177.385514,115.304663 180.13419,117.317232 181.986105,117.023917 C184.875094,116.566346 185.990222,114.018309 185.529262,111.107921 C184.477327,104.466265 173.229616,99.1334727 173.229616,99.1334727 Z M157.324675,85.9706081 C157.324675,85.9706081 153.554607,89.0156438 154.062845,92.2245335 C154.251957,93.418539 154.998224,94.2948077 156.18345,94.1070864 C156.874832,93.9975822 157.636247,93.0773334 157.987783,92.6040593 L158.056664,92.5099432 L157.999088,95.5024596 L159.628774,95.2443427 L158.637457,92.3414572 C159.066938,92.6559209 160.183588,93.4735268 160.924354,93.3562009 C162.10958,93.1684796 162.548539,92.1044895 162.359428,90.910484 C161.922106,88.1493464 157.324675,85.9706081 157.324675,85.9706081 Z M208.669008,16.9911578 L250.438928,21.3813533 C252.086705,21.5545417 253.282096,23.0307265 253.108908,24.6785044 L246.628143,86.3388619 C246.454955,87.9866397 244.97877,89.1820306 243.330992,89.0088422 L201.561072,84.6186467 C199.913295,84.4454583 198.717904,82.9692735 198.891092,81.3214956 L205.371857,19.6611381 C205.545045,18.0133603 207.02123,16.8179694 208.669008,16.9911578 Z M237.316193,73.0303705 C237.316193,73.0303705 232.258171,75.2337335 231.879081,78.8405329 C231.74482,80.117941 232.670602,81.3548207 234.013207,81.4959341 C235.132044,81.6135286 236.106091,80.9561877 236.507117,80.0107047 C236.702804,81.0189048 237.593486,81.8722366 238.786912,81.9976707 C240.054927,82.1309445 241.284332,81.1965559 241.426491,79.8440061 C241.750297,76.7631983 237.316193,73.0303705 237.316193,73.0303705 Z M215.872263,47.4531995 C215.137777,54.4413734 225.104638,62.9341629 225.104638,62.9341629 L225.133635,62.9211519 C225.765433,62.6354546 236.518173,57.6627694 237.346039,49.786156 C237.669845,46.7053482 235.469027,43.9669656 232.410872,43.6455406 C229.949431,43.3868327 227.687185,44.8204393 226.778952,47.0041322 C226.344581,44.6793259 224.429834,42.8066997 221.968393,42.5479917 C218.910238,42.2265667 216.188172,44.4475334 215.872263,47.4531995 Z M210.86778,26.186923 C210.543974,29.2677308 214.978077,33.0005586 214.978077,33.0005586 C214.978077,33.0005586 220.0361,30.7971956 220.41519,27.1903962 C220.549451,25.9129881 219.623668,24.6761084 218.281064,24.534995 C217.162227,24.4174004 216.18818,25.0747414 215.787153,26.0202243 C215.591467,25.0120243 214.775374,24.1665321 213.656537,24.0489376 C212.313932,23.9078242 211.07663,24.9173545 210.86778,26.186923 Z" id="Combined-Shape"></path>
            </g>
        </g>
    </g>
</svg>