<svg width="153px" height="165px" viewBox="0 0 153 165" version="1.1" xmlns="http://www.w3.org/2000/svg" xmlns:xlink="http://www.w3.org/1999/xlink">
    <defs>
        <path d="M51,61 C52.6568542,61 54,62.3431458 54,64 L54,126 C54,127.656854 52.6568542,129 51,129 L9,129 C7.34314575,129 6,127.656854 6,126 L6,64 C6,62.3431458 7.34314575,61 9,61 L51,61 Z M44.5827466,112.998176 L42.9327466,112.998176 L43.4577466,116.020398 C43.0827466,115.64262 42.1077466,114.660398 41.3577466,114.660398 C40.1577466,114.660398 39.5577466,115.64262 39.5577466,116.851509 C39.5577466,119.647065 43.7577466,122.518176 43.7577466,122.518176 C43.7577466,122.518176 47.9577466,120.100398 47.9577466,116.851509 C47.9577466,115.64262 47.3577466,114.660398 46.1577466,114.660398 C45.4077466,114.660398 44.4327466,115.567065 44.0577466,115.944843 L44.0577466,115.944843 L44.5827466,112.998176 Z M30.1077466,83.0026203 C30.1077466,83.0026203 19.8327466,88.8959536 19.7577466,96.6781759 C19.7577466,99.6248425 21.2577466,101.967065 24.1827466,101.967065 C25.9856313,101.967065 28.1352245,100.011115 29.1646822,98.987465 L29.2827466,98.869287 L28.0827466,106.12262 L32.1327466,106.12262 L30.8577466,98.7181759 C31.6827466,99.6248425 34.0827466,102.04262 35.9577466,102.04262 C38.8827466,102.04262 40.3827466,99.7003981 40.3827466,96.7537314 C40.3827466,90.029287 30.1077466,83.0026203 30.1077466,83.0026203 Z M16.4577466,67.5137314 C16.4577466,67.5137314 12.2577466,69.9315092 12.2577466,73.1803981 C12.2577466,74.389287 12.8577466,75.3715092 14.0577466,75.3715092 C14.7577466,75.3715092 15.6537466,74.5817018 16.0749911,74.1692468 L16.1577466,74.0870647 L15.6327466,77.0337314 L17.2827466,77.0337314 L16.7577466,74.0115092 C17.1327466,74.389287 18.1077466,75.3715092 18.8577466,75.3715092 C20.0577466,75.3715092 20.6577466,74.389287 20.6577466,73.1803981 C20.6577466,70.3848425 16.4577466,67.5137314 16.4577466,67.5137314 Z" id="drawCard-path-1"></path>
        <filter x="-72.9%" y="-48.5%" width="245.8%" height="202.9%" filterUnits="objectBoundingBox" id="drawCard-filter-2">
            <feGaussianBlur stdDeviation="10" in="SourceGraphic"></feGaussianBlur>
        </filter>
        <filter x="-79.2%" y="-52.9%" width="258.3%" height="211.8%" filterUnits="objectBoundingBox" id="drawCard-filter-3">
            <feMorphology radius="1" operator="dilate" in="SourceAlpha" result="shadowSpreadOuter1"></feMorphology>
            <feOffset dx="0" dy="2" in="shadowSpreadOuter1" result="shadowOffsetOuter1"></feOffset>
            <feMorphology radius="1" operator="erode" in="SourceAlpha" result="shadowInner"></feMorphology>
            <feOffset dx="0" dy="2" in="shadowInner" result="shadowInner"></feOffset>
            <feComposite in="shadowOffsetOuter1" in2="shadowInner" operator="out" result="shadowOffsetOuter1"></feComposite>
            <feGaussianBlur stdDeviation="2" in="shadowOffsetOuter1" result="shadowBlurOuter1"></feGaussianBlur>
            <feColorMatrix values="0 0 0 0 0   0 0 0 0 0   0 0 0 0 0  0 0 0 0.5 0" type="matrix" in="shadowBlurOuter1"></feColorMatrix>
        </filter>
        <path d="M51,61 C52.6568542,61 54,62.3431458 54,64 L54,126 C54,127.656854 52.6568542,129 51,129 L9,129 C7.34314575,129 6,127.656854 6,126 L6,64 C6,62.3431458 7.34314575,61 9,61 L51,61 Z M44.5827466,112.998176 L42.9327466,112.998176 L43.4577466,116.020398 C43.0827466,115.64262 42.1077466,114.660398 41.3577466,114.660398 C40.1577466,114.660398 39.5577466,115.64262 39.5577466,116.851509 C39.5577466,119.647065 43.7577466,122.518176 43.7577466,122.518176 C43.7577466,122.518176 47.9577466,120.100398 47.9577466,116.851509 C47.9577466,115.64262 47.3577466,114.660398 46.1577466,114.660398 C45.4077466,114.660398 44.4327466,115.567065 44.0577466,115.944843 L44.0577466,115.944843 L44.5827466,112.998176 Z M30.1077466,83.0026203 C30.1077466,83.0026203 19.8327466,88.8959536 19.7577466,96.6781759 C19.7577466,99.6248425 21.2577466,101.967065 24.1827466,101.967065 C25.9856313,101.967065 28.1352245,100.011115 29.1646822,98.987465 L29.2827466,98.869287 L28.0827466,106.12262 L32.1327466,106.12262 L30.8577466,98.7181759 C31.6827466,99.6248425 34.0827466,102.04262 35.9577466,102.04262 C38.8827466,102.04262 40.3827466,99.7003981 40.3827466,96.7537314 C40.3827466,90.029287 30.1077466,83.0026203 30.1077466,83.0026203 Z M16.4577466,67.5137314 C16.4577466,67.5137314 12.2577466,69.9315092 12.2577466,73.1803981 C12.2577466,74.389287 12.8577466,75.3715092 14.0577466,75.3715092 C14.7577466,75.3715092 15.6537466,74.5817018 16.0749911,74.1692468 L16.1577466,74.0870647 L15.6327466,77.0337314 L17.2827466,77.0337314 L16.7577466,74.0115092 C17.1327466,74.389287 18.1077466,75.3715092 18.8577466,75.3715092 C20.0577466,75.3715092 20.6577466,74.389287 20.6577466,73.1803981 C20.6577466,70.3848425 16.4577466,67.5137314 16.4577466,67.5137314 Z" id="drawCard-path-4"></path>
        <filter x="-14.6%" y="-7.4%" width="129.2%" height="120.6%" filterUnits="objectBoundingBox" id="drawCard-filter-5">
            <feOffset dx="0" dy="2" in="SourceAlpha" result="shadowOffsetOuter1"></feOffset>
            <feMorphology radius="2" operator="erode" in="SourceAlpha" result="shadowInner"></feMorphology>
            <feOffset dx="0" dy="2" in="shadowInner" result="shadowInner"></feOffset>
            <feComposite in="shadowOffsetOuter1" in2="shadowInner" operator="out" result="shadowOffsetOuter1"></feComposite>
            <feGaussianBlur stdDeviation="2" in="shadowOffsetOuter1" result="shadowBlurOuter1"></feGaussianBlur>
            <feColorMatrix values="0 0 0 0 0   0 0 0 0 0   0 0 0 0 0  0 0 0 0.5 0" type="matrix" in="shadowBlurOuter1"></feColorMatrix>
        </filter>
        <path d="M102,3 C103.656854,3 105,4.34314575 105,6 L105,68 C105,69.6568542 103.656854,71 102,71 L60,71 C58.3431458,71 57,69.6568542 57,68 L57,6 C57,4.34314575 58.3431458,3 60,3 L102,3 Z M94.3479457,55.7377778 C94.3479457,55.7377778 89.5479457,58.4577778 89.5479457,62.0844444 C89.5479457,63.3688889 90.5979457,64.5022222 91.9479457,64.5022222 C93.0729457,64.5022222 93.9729457,63.7466667 94.2729457,62.7644444 C94.5729457,63.7466667 95.5479457,64.5022222 96.7479457,64.5022222 C98.0229457,64.5022222 99.1479457,63.4444444 99.1479457,62.0844444 C99.1479457,58.9866667 94.3479457,55.7377778 94.3479457,55.7377778 Z M86.3979457,27.0266667 C83.9229457,27.0266667 81.8229457,28.6888889 81.1479457,30.9555556 C80.4729457,28.6888889 78.3729457,27.0266667 75.8979457,27.0266667 C72.8229457,27.0266667 70.3479457,29.52 70.3479457,32.5422222 C70.3479457,39.5688889 81.1479457,46.9733333 81.1479457,46.9733333 L81.1754238,46.9573626 C81.7738973,46.6071895 91.9479457,40.5377778 91.9479457,32.6177778 C91.9479457,29.52 89.4729457,27.0266667 86.3979457,27.0266667 Z M70.3479457,9.49777778 C69.2229457,9.49777778 68.3229457,10.2533333 68.0229457,11.2355556 C67.7229457,10.2533333 66.8229457,9.49777778 65.6979457,9.49777778 C64.3479457,9.49777778 63.2229457,10.6311111 63.1479457,11.9155556 C63.1479457,15.0133333 67.9479457,18.2622222 67.9479457,18.2622222 C67.9479457,18.2622222 72.7479457,15.5422222 72.7479457,11.9155556 C72.7479457,10.6311111 71.6979457,9.49777778 70.3479457,9.49777778 Z" id="drawCard-path-6"></path>
        <filter x="-72.9%" y="-48.5%" width="245.8%" height="202.9%" filterUnits="objectBoundingBox" id="drawCard-filter-7">
            <feGaussianBlur stdDeviation="10" in="SourceGraphic"></feGaussianBlur>
        </filter>
        <filter x="-79.2%" y="-52.9%" width="258.3%" height="211.8%" filterUnits="objectBoundingBox" id="drawCard-filter-8">
            <feMorphology radius="1" operator="dilate" in="SourceAlpha" result="shadowSpreadOuter1"></feMorphology>
            <feOffset dx="0" dy="2" in="shadowSpreadOuter1" result="shadowOffsetOuter1"></feOffset>
            <feMorphology radius="1" operator="erode" in="SourceAlpha" result="shadowInner"></feMorphology>
            <feOffset dx="0" dy="2" in="shadowInner" result="shadowInner"></feOffset>
            <feComposite in="shadowOffsetOuter1" in2="shadowInner" operator="out" result="shadowOffsetOuter1"></feComposite>
            <feGaussianBlur stdDeviation="2" in="shadowOffsetOuter1" result="shadowBlurOuter1"></feGaussianBlur>
            <feColorMatrix values="0 0 0 0 0   0 0 0 0 0   0 0 0 0 0  0 0 0 0.5 0" type="matrix" in="shadowBlurOuter1"></feColorMatrix>
        </filter>
        <path d="M102,3 C103.656854,3 105,4.34314575 105,6 L105,68 C105,69.6568542 103.656854,71 102,71 L60,71 C58.3431458,71 57,69.6568542 57,68 L57,6 C57,4.34314575 58.3431458,3 60,3 L102,3 Z M94.3479457,55.7377778 C94.3479457,55.7377778 89.5479457,58.4577778 89.5479457,62.0844444 C89.5479457,63.3688889 90.5979457,64.5022222 91.9479457,64.5022222 C93.0729457,64.5022222 93.9729457,63.7466667 94.2729457,62.7644444 C94.5729457,63.7466667 95.5479457,64.5022222 96.7479457,64.5022222 C98.0229457,64.5022222 99.1479457,63.4444444 99.1479457,62.0844444 C99.1479457,58.9866667 94.3479457,55.7377778 94.3479457,55.7377778 Z M86.3979457,27.0266667 C83.9229457,27.0266667 81.8229457,28.6888889 81.1479457,30.9555556 C80.4729457,28.6888889 78.3729457,27.0266667 75.8979457,27.0266667 C72.8229457,27.0266667 70.3479457,29.52 70.3479457,32.5422222 C70.3479457,39.5688889 81.1479457,46.9733333 81.1479457,46.9733333 L81.1754238,46.9573626 C81.7738973,46.6071895 91.9479457,40.5377778 91.9479457,32.6177778 C91.9479457,29.52 89.4729457,27.0266667 86.3979457,27.0266667 Z M70.3479457,9.49777778 C69.2229457,9.49777778 68.3229457,10.2533333 68.0229457,11.2355556 C67.7229457,10.2533333 66.8229457,9.49777778 65.6979457,9.49777778 C64.3479457,9.49777778 63.2229457,10.6311111 63.1479457,11.9155556 C63.1479457,15.0133333 67.9479457,18.2622222 67.9479457,18.2622222 C67.9479457,18.2622222 72.7479457,15.5422222 72.7479457,11.9155556 C72.7479457,10.6311111 71.6979457,9.49777778 70.3479457,9.49777778 Z" id="drawCard-path-9"></path>
        <filter x="-14.6%" y="-7.4%" width="129.2%" height="120.6%" filterUnits="objectBoundingBox" id="drawCard-filter-10">
            <feOffset dx="0" dy="2" in="SourceAlpha" result="shadowOffsetOuter1"></feOffset>
            <feMorphology radius="2" operator="erode" in="SourceAlpha" result="shadowInner"></feMorphology>
            <feOffset dx="0" dy="2" in="shadowInner" result="shadowInner"></feOffset>
            <feComposite in="shadowOffsetOuter1" in2="shadowInner" operator="out" result="shadowOffsetOuter1"></feComposite>
            <feGaussianBlur stdDeviation="2" in="shadowOffsetOuter1" result="shadowBlurOuter1"></feGaussianBlur>
            <feColorMatrix values="0 0 0 0 0   0 0 0 0 0   0 0 0 0 0  0 0 0 0.5 0" type="matrix" in="shadowBlurOuter1"></feColorMatrix>
        </filter>
    </defs>
    <g stroke="none" stroke-width="1" fill="none" fill-rule="evenodd">
        <g transform="translate(-121.000000, 0.000000)" fill-rule="nonzero">
            <g>
                <g transform="translate(145.000000, 16.000000)">
                    <g>
                        <g filter="url(#drawCard-filter-2)" transform="translate(30.000000, 95.000000) rotate(-9.000000) translate(-30.000000, -95.000000) ">
                            <use fill="black" fill-opacity="1" filter="url(#drawCard-filter-3)" xlink:href="#drawCard-path-1"></use>
                            <use stroke="#8FC8FF" stroke-width="2" xlink:href="#drawCard-path-1"></use>
                        </g>
                        <g transform="translate(30.000000, 95.000000) rotate(-9.000000) translate(-30.000000, -95.000000) ">
                            <use fill="black" fill-opacity="1" filter="url(#drawCard-filter-5)" xlink:href="#drawCard-path-4"></use>
                            <path stroke="#8FC8FF" stroke-width="2" d="M51,62 L9,62 C7.8954305,62 7,62.8954305 7,64 L7,126 C7,127.104569 7.8954305,128 9,128 L51,128 C52.1045695,128 53,127.104569 53,126 L53,64 C53,62.8954305 52.1045695,62 51,62 Z M45.4614242,113.76751 C45.6899182,113.697695 45.9214817,113.660398 46.1577466,113.660398 C47.9090207,113.660398 48.9577466,115.047047 48.9577466,116.851509 C48.9577466,118.598074 48.0405907,120.190237 46.5511905,121.623687 C46.0523185,122.103818 45.5212947,122.532739 44.9899721,122.907101 C44.6681612,123.133844 44.4130104,123.294823 44.2566485,123.384834 L43.712111,123.698304 L43.1934073,123.343719 C43.0434087,123.24118 42.7946692,123.059316 42.4794153,122.808837 C41.9572841,122.393987 41.4352158,121.932854 40.9449116,121.434508 C39.5613403,120.028243 38.6781069,118.59999 38.5686911,117.141459 C38.5614208,117.044545 38.5577466,116.94788 38.5577466,116.851509 C38.5577466,115.047047 39.6064726,113.660398 41.3577466,113.660398 C41.5927197,113.660398 41.8237083,113.703413 42.0539744,113.782248 L41.7440574,111.998176 L45.7766619,111.998176 L45.4614242,113.76751 Z M44.0007253,113.303292 L43.7595562,113.015356 L43.511377,113.310364 L43.3888314,113.998176 L44.1214359,113.998176 L44.0007253,113.303292 Z M32.3520964,101.503599 L33.3196576,107.12262 L26.9037125,107.12262 L27.8361564,101.486515 C26.5867924,102.419302 25.3797863,102.967065 24.1827466,102.967065 C20.8014833,102.967065 18.7577466,100.334832 18.7577931,96.668539 C18.7936344,92.949535 20.8600345,89.443776 24.2432033,86.2245434 C25.4144221,85.1100778 26.6657264,84.1085959 27.9172772,83.2330676 C28.3558969,82.926229 28.7639565,82.6565884 29.1314462,82.4259673 C29.3552387,82.2855246 29.5181727,82.1879663 29.6102143,82.1351749 L30.1543993,81.8230519 L30.6722337,82.1771784 C30.7608567,82.2377841 30.9198305,82.3499681 31.1391816,82.5102274 C31.5006875,82.7743461 31.9024527,83.079436 32.3345291,83.4220445 C33.5681854,84.4002538 34.8018015,85.4860761 35.9562398,86.6533103 C38.9960243,89.726788 40.9635543,92.8075581 41.3245759,95.8010802 C41.3631721,96.1211129 41.3827466,96.4387482 41.3827466,96.7537314 C41.3827466,100.410387 39.33901,103.04262 35.9577466,103.04262 C34.7899588,103.04262 33.5642858,102.447544 32.3520964,101.503599 Z M16.0940574,76.0337314 L16.214768,76.7286156 L16.4559371,77.016551 L16.7041162,76.7215431 L16.8266619,76.0337314 L16.0940574,76.0337314 Z M18.1620288,76.2525944 L18.4714359,78.0337314 L14.4388314,78.0337314 L14.754305,76.2630731 C14.5252343,76.3338048 14.2936587,76.3715092 14.0577466,76.3715092 C12.3064726,76.3715092 11.2577466,74.9848604 11.2577466,73.1803981 C11.2577466,71.4338333 12.1749026,69.8416699 13.6643028,68.4082207 C14.1631748,67.9280895 14.6941986,67.4991683 15.2255212,67.1248061 C15.5473321,66.8980628 15.8024828,66.7370844 15.9588448,66.6470729 L16.5033823,66.3336037 L17.022086,66.6881885 C17.1720846,66.7907272 17.4208241,66.972591 17.736078,67.2230705 C18.2582091,67.6379207 18.7802775,68.0990534 19.2705817,68.5973997 C20.654153,70.0036645 21.5373863,71.4319174 21.6468022,72.8904483 C21.6540725,72.9873622 21.6577466,73.0840278 21.6577466,73.1803981 C21.6577466,74.9848604 20.6090207,76.3715092 18.8577466,76.3715092 C18.6217231,76.3715092 18.3912268,76.3301461 18.1620288,76.2525944 Z" stroke-linejoin="square"></path>
                        </g>
                        <g filter="url(#drawCard-filter-7)" transform="translate(81.000000, 37.000000) rotate(6.000000) translate(-81.000000, -37.000000) ">
                            <use fill="black" fill-opacity="1" filter="url(#drawCard-filter-8)" xlink:href="#drawCard-path-6"></use>
                            <use stroke="#FF8F8F" stroke-width="2" xlink:href="#drawCard-path-6"></use>
                        </g>
                        <g transform="translate(81.000000, 37.000000) rotate(6.000000) translate(-81.000000, -37.000000) ">
                            <use fill="black" fill-opacity="1" filter="url(#drawCard-filter-10)" xlink:href="#drawCard-path-9"></use>
                            <path stroke="#FF8F8F" stroke-width="2" d="M102,4 L60,4 C58.8954305,4 58,4.8954305 58,6 L58,68 C58,69.1045695 58.8954305,70 60,70 L102,70 C103.104569,70 104,69.1045695 104,68 L104,6 C104,4.8954305 103.104569,4 102,4 Z M94.2898704,64.5725714 C93.6748311,65.1523977 92.8505288,65.5022222 91.9479457,65.5022222 C90.0646251,65.5022222 88.5479457,63.9410926 88.5479457,62.0844444 C88.5479457,60.1670789 89.5807587,58.4112968 91.2613222,56.824098 C91.8258558,56.2909273 92.4270957,55.8139436 93.0285774,55.3973619 C93.3923658,55.1454047 93.6800841,54.9668367 93.8549331,54.8677556 L94.3946952,54.5618904 L94.9084717,54.9096409 C95.076848,55.0236068 95.3580378,55.2268928 95.7151343,55.5070042 C96.3071833,55.9714155 96.8992124,56.4867549 97.4548888,57.042174 C98.9393393,58.5259372 99.9127265,60.0245067 100.111831,61.5406015 C100.135754,61.7227642 100.147946,61.9041231 100.147946,62.0844444 C100.147946,63.9741949 98.5981801,65.5022222 96.7479457,65.5022222 C95.8056985,65.5022222 94.9357335,65.1534359 94.2898704,64.5725714 Z M81.1479457,28.7226577 C82.3381799,27.0736806 84.269161,26.0266667 86.3979457,26.0266667 C90.0268893,26.0266667 92.9479457,28.9693606 92.9479457,32.6177778 C92.9479457,36.4198262 90.8939728,40.0200034 87.4839686,43.3424931 C86.290028,44.5057924 85.000851,45.5611716 83.6926547,46.4963386 C82.8598228,47.0916904 82.1635919,47.5377752 81.6779298,47.8219363 L81.1038872,48.1555802 L80.5824833,47.7981074 C80.4898271,47.7345826 80.3232315,47.6167522 80.093183,47.4483407 C79.7138132,47.1706158 79.2921333,46.8498574 78.8386043,46.4897404 C77.5436302,45.4614883 76.2486891,44.3209277 75.0370147,43.0960395 C71.9110863,39.9360218 69.865855,36.7733393 69.4317035,33.7075148 C69.3761785,33.3154171 69.3479457,32.9268491 69.3479457,32.5422222 C69.3479457,28.9556138 72.2827849,26.0266667 75.8979457,26.0266667 C78.0267304,26.0266667 79.9577115,27.0736806 81.1479457,28.7226577 Z M68.0229457,9.41158012 C68.6361422,8.84123372 69.4536161,8.49777778 70.3479457,8.49777778 C72.2312663,8.49777778 73.7479457,10.0589074 73.7479457,11.9155556 C73.7479457,13.8329211 72.7151327,15.5887032 71.0345692,17.175902 C70.4700356,17.7090727 69.8687957,18.1860564 69.267314,18.6026381 C68.9035256,18.8545953 68.6158073,19.0331633 68.4409583,19.1322444 L67.9011962,19.4381096 L67.3874197,19.0903591 C67.2190434,18.9763932 66.9378536,18.7731072 66.5807571,18.4929958 C65.9887081,18.0285845 65.396679,17.5132451 64.8410027,16.957826 C63.3565522,15.4740628 62.3831649,13.9754933 62.1840608,12.4593985 C62.1601379,12.2772358 62.1479457,12.0958769 62.1496461,11.8572638 C62.2566483,10.0247532 63.8368958,8.49777778 65.6979457,8.49777778 C66.5922753,8.49777778 67.4097493,8.84123372 68.0229457,9.41158012 Z" stroke-linejoin="square"></path>
                        </g>
                    </g>
                </g>
            </g>
        </g>
    </g>
</svg>