
<svg width="157px" height="165px" viewBox="0 0 157 165" version="1.1" xmlns="http://www.w3.org/2000/svg" xmlns:xlink="http://www.w3.org/1999/xlink">
    <defs>
        <path d="M39.0463945,59.0099853 C38.6022788,59.0391085 38.1632695,59.1146006 37.7389528,59.2458332 L7.82195004,68.2504707 C5.06755945,69.0810281 3.45871996,71.9024833 4.16670052,74.6605969 L7.65323224,105.656667 C7.81464319,107.066709 8.53809509,108.355075 9.66367223,109.236372 L31.792099,126.607437 C31.8877651,126.689093 31.9863879,126.767826 32.0872169,126.84329 C32.2275762,126.951909 32.3731039,127.054342 32.5226884,127.14875 C32.6730178,127.243899 32.8277764,127.332109 32.9869643,127.412307 C33.1380328,127.489219 33.2935305,127.558112 33.4512514,127.620446 L33.5635343,127.663101 C33.6743446,127.705755 33.787361,127.74038 33.9011222,127.773914 C34.0034351,127.803037 34.1061148,127.830757 34.2106451,127.857029 L34.2826754,127.871618 L34.312185,127.871618 C34.4329653,127.900742 34.5548515,127.921178 34.6778493,127.9427 L35.029103,127.985355 L35.1133152,127.985355 C35.2204241,127.99265 35.3286502,128 35.4364982,128 C35.5868276,127.996659 35.7367902,127.985355 35.8863804,127.970877 C36.065514,127.956232 36.2442808,127.934403 36.4204635,127.899789 C36.6003418,127.863316 36.7787419,127.82506 36.9545522,127.774766 C37.4613093,127.632596 37.9446507,127.417536 38.3885801,127.13685 L66.2107784,111.722087 C67.8060198,110.836084 68.8380748,109.211637 68.9522423,107.407011 L70.9907136,74.218776 C71.0727139,72.8381906 70.6092111,71.4800964 69.6973835,70.4310091 C69.660426,70.3883544 69.6231357,70.3471698 69.5850949,70.3059741 C69.3778849,70.0843481 69.1524727,69.8797449 68.910613,69.6957341 C68.8673925,69.6592605 68.8264008,69.6319414 68.7839308,69.598408 L68.6997129,69.5415592 C68.5815168,69.4533432 68.4592638,69.3702334 68.3340486,69.2914949 C68.2284124,69.2346517 68.1201919,69.1770401 68.0108656,69.125281 C67.9605922,69.1034525 67.9078136,69.0756657 67.856107,69.0541936 C67.7452967,68.9973504 67.6330138,68.9484869 67.5185134,68.901461 L67.475293,68.8868158 C67.4010508,68.8649873 67.3257028,68.8372005 67.2507271,68.8157284 L41.1717749,59.3254794 C40.4929767,59.0797919 39.7710313,58.9711618 39.0489053,59.0065273 L39.0463945,59.0099853 Z M37.9552188,64.2550101 C40.2971868,63.9298603 42.59572,64.4751828 43.086639,65.4759746 C43.5768471,66.4751961 42.0686222,67.5509343 39.7265695,67.876268 C37.3845958,68.2017854 35.0993504,67.654642 34.6091818,66.6553425 C34.118274,65.6547734 35.6131661,64.5803772 37.9552188,64.2550101 L37.9552188,64.2550101 Z M22.8982808,68.4451452 C25.3777983,68.0771959 27.8052819,68.7003047 28.3249657,69.8326077 C28.8439441,70.9638303 27.247625,72.1841321 24.7681019,72.5520815 C22.2885111,72.9200642 19.8604069,72.2958194 19.3414227,71.1645689 C18.8216995,70.0318595 20.4187577,68.8131224 22.8982808,68.4451452 Z M53.1527248,69.0418928 C55.7697974,69.3958429 57.4398734,70.5630325 56.8923389,71.6502584 C56.3438453,72.7389322 53.7874958,73.3359415 51.1704289,72.9822475 C48.5532774,72.628303 46.8684297,71.4486456 47.4166977,70.3599272 C47.9644917,69.2727514 50.5356523,68.6881654 53.1527248,69.0418928 L53.1527248,69.0418928 Z M36.2400321,69.2081179 C39.1322373,68.8541677 41.9603566,69.4508875 42.5664305,70.5400736 C43.1718048,71.6273274 41.3253938,72.7947787 38.4331604,73.148545 C35.5409496,73.5024896 32.6980304,72.903587 32.0927238,71.8165503 C31.4866499,70.7278376 33.3478721,69.5618787 36.2400321,69.2081179 Z M37.2803984,74.6192397 C39.3912272,74.6939633 41.1553839,75.2770514 41.6245065,76.1593735 C42.2485683,77.3345539 40.3345223,78.5937182 37.350657,78.9758783 C34.3667353,79.3580774 31.4374147,78.7221666 30.8133529,77.5468081 C30.1878467,76.3700686 32.1033258,75.0985478 35.087208,74.7163487 C35.833156,74.6212054 36.5767737,74.5942316 37.2803984,74.6190225 L37.2803984,74.6192397 Z M12.2147856,79.6896422 C13.2690772,79.7534348 14.5385119,80.8696337 15.4341686,82.6449584 C16.6287687,85.0121136 16.6921888,87.6707127 15.5745222,88.5694285 C14.4585879,89.4669916 12.5933427,88.2723494 11.3991375,85.9054781 C10.2045318,83.5384342 10.1425561,80.8924534 11.2587839,79.9948903 C11.5380185,79.7703464 11.863419,79.667552 12.2148646,79.6894306 L12.2147856,79.6896422 Z M61.1860213,82.3040608 C61.6690354,82.2402681 62.1413628,82.2822323 62.5637554,82.4844967 C64.2510463,83.2869555 64.5749684,86.0723603 63.2948584,88.7003716 C62.014675,91.3282715 59.6117525,92.8049802 57.9243883,92.0025213 C56.2347785,91.1989433 55.8991371,88.4285066 57.1792867,85.8005009 C58.139396,83.8295383 59.7364148,82.5045488 61.1860213,82.3041276 L61.1860213,82.3040608 Z M24.0100511,86.3078407 C25.1549759,86.3789169 26.5520295,87.5569818 27.5247269,89.4296994 C28.8215383,91.926556 28.8928578,94.7114206 27.6794855,95.6594287 C26.4675972,96.606234 24.421396,95.3539634 23.1244491,92.8567449 C21.8278634,90.3598103 21.7579771,87.5598941 22.9696849,86.6130888 C23.2725554,86.375793 23.628323,86.2842915 24.0100511,86.3076235 L24.0100511,86.3078407 Z M45.9182284,88.589269 C46.4011973,88.5254763 46.8736038,88.5674405 47.2959907,88.7697049 C48.9832872,89.5721581 49.307136,92.3575685 48.0270203,94.9855352 C46.7468369,97.6134741 44.3439935,99.0902218 42.6566349,98.2877685 C40.9670138,97.4841793 40.6454163,94.7136814 41.9255602,92.0857759 C42.8856695,90.1148133 44.4685767,88.7897125 45.9182284,88.5893358 L45.9182284,88.589269 Z M13.6206356,89.7626507 C14.5842375,89.8337381 15.7543611,90.9656847 16.5729996,92.7734848 C17.6647,95.1838738 17.720881,97.8799432 16.6996875,98.7951418 C15.6797127,99.7090985 13.9673077,98.5002455 12.8757089,96.0895614 C11.7838956,93.6791723 11.7291986,90.9819001 12.7490266,90.0679044 C13.0046198,89.8389836 13.2996587,89.739831 13.6206356,89.7624335 L13.6206356,89.7626507 Z M24.7270481,97.2133779 C25.8719729,97.2844597 27.2549093,98.462441 28.2276858,100.33517 C29.5244916,102.832021 29.5958166,105.616958 28.3824387,106.564966 C27.1705504,107.511771 25.138393,106.259501 23.8414744,103.762204 C22.544883,101.265281 22.4749685,98.4654369 23.6867158,97.518626 C23.9895863,97.2813247 24.3453144,97.1898343 24.7270481,97.2131663 L24.7270481,97.2133779 Z M60.84858,99.564134 C61.3315885,99.5003413 61.8039949,99.5568392 62.2263875,99.7587918 C63.9136784,100.561245 64.2375272,103.332795 62.9574228,105.960773 C61.6772281,108.588712 59.2743846,110.079236 57.5870204,109.276777 C55.8974049,108.473194 55.5616959,105.688847 56.8418511,103.060942 C57.8020225,101.089985 59.3989679,99.7649505 60.84858,99.5644959 L60.84858,99.564134 Z M14.8718568,99.9882137 C15.7750798,100.045062 16.8740984,101.020757 17.6413914,102.568987 C18.6648024,104.633155 18.7111657,106.946653 17.75368,107.73034 C16.7976445,108.513036 15.1918293,107.477358 14.1686779,105.413268 C13.145865,103.349128 13.100207,101.034467 14.0563949,100.251837 C14.2961105,100.055726 14.5703573,99.9689745 14.8717834,99.9882916 L14.8718568,99.9882137 Z M46.0869518,106.432063 C46.5699151,106.368276 47.0423272,106.424768 47.4647198,106.626715 C49.152005,107.429135 49.4898976,110.214579 48.2097819,112.842556 C46.9295929,115.470495 44.5127169,116.947159 42.8253527,116.144706 C41.1357372,115.341123 40.8140607,112.55677 42.0942159,109.92887 C43.054393,107.957835 44.6373002,106.632807 46.0869518,106.43243 L46.0869518,106.432063 Z M25.4018573,107.60545 C26.5467821,107.676532 27.9438018,108.854591 28.9165331,110.727242 C30.2133389,113.224098 30.2706257,116.00903 29.0568924,116.957005 C27.8450323,117.903804 25.8128692,116.651534 24.5159224,114.154354 C23.2193366,111.657353 23.1494504,108.871358 24.3611525,107.924552 C24.664401,107.687251 25.0197963,107.582268 25.4014849,107.605595 L25.4018573,107.60545 Z" id="rollDice-path-1"></path>
        <filter x="-52.2%" y="-47.8%" width="204.5%" height="201.4%" filterUnits="objectBoundingBox" id="rollDice-filter-2">
            <feGaussianBlur stdDeviation="10" in="SourceGraphic"></feGaussianBlur>
        </filter>
        <filter x="-56.7%" y="-52.2%" width="213.4%" height="210.1%" filterUnits="objectBoundingBox" id="rollDice-filter-3">
            <feMorphology radius="1" operator="dilate" in="SourceAlpha" result="shadowSpreadOuter1"></feMorphology>
            <feOffset dx="0" dy="2" in="shadowSpreadOuter1" result="shadowOffsetOuter1"></feOffset>
            <feMorphology radius="1" operator="erode" in="SourceAlpha" result="shadowInner"></feMorphology>
            <feOffset dx="0" dy="2" in="shadowInner" result="shadowInner"></feOffset>
            <feComposite in="shadowOffsetOuter1" in2="shadowInner" operator="out" result="shadowOffsetOuter1"></feComposite>
            <feGaussianBlur stdDeviation="2" in="shadowOffsetOuter1" result="shadowBlurOuter1"></feGaussianBlur>
            <feColorMatrix values="0 0 0 0 0   0 0 0 0 0   0 0 0 0 0  0 0 0 0.5 0" type="matrix" in="shadowBlurOuter1"></feColorMatrix>
        </filter>
        <path d="M39.0463945,59.0099853 C38.6022788,59.0391085 38.1632695,59.1146006 37.7389528,59.2458332 L7.82195004,68.2504707 C5.06755945,69.0810281 3.45871996,71.9024833 4.16670052,74.6605969 L7.65323224,105.656667 C7.81464319,107.066709 8.53809509,108.355075 9.66367223,109.236372 L31.792099,126.607437 C31.8877651,126.689093 31.9863879,126.767826 32.0872169,126.84329 C32.2275762,126.951909 32.3731039,127.054342 32.5226884,127.14875 C32.6730178,127.243899 32.8277764,127.332109 32.9869643,127.412307 C33.1380328,127.489219 33.2935305,127.558112 33.4512514,127.620446 L33.5635343,127.663101 C33.6743446,127.705755 33.787361,127.74038 33.9011222,127.773914 C34.0034351,127.803037 34.1061148,127.830757 34.2106451,127.857029 L34.2826754,127.871618 L34.312185,127.871618 C34.4329653,127.900742 34.5548515,127.921178 34.6778493,127.9427 L35.029103,127.985355 L35.1133152,127.985355 C35.2204241,127.99265 35.3286502,128 35.4364982,128 C35.5868276,127.996659 35.7367902,127.985355 35.8863804,127.970877 C36.065514,127.956232 36.2442808,127.934403 36.4204635,127.899789 C36.6003418,127.863316 36.7787419,127.82506 36.9545522,127.774766 C37.4613093,127.632596 37.9446507,127.417536 38.3885801,127.13685 L66.2107784,111.722087 C67.8060198,110.836084 68.8380748,109.211637 68.9522423,107.407011 L70.9907136,74.218776 C71.0727139,72.8381906 70.6092111,71.4800964 69.6973835,70.4310091 C69.660426,70.3883544 69.6231357,70.3471698 69.5850949,70.3059741 C69.3778849,70.0843481 69.1524727,69.8797449 68.910613,69.6957341 C68.8673925,69.6592605 68.8264008,69.6319414 68.7839308,69.598408 L68.6997129,69.5415592 C68.5815168,69.4533432 68.4592638,69.3702334 68.3340486,69.2914949 C68.2284124,69.2346517 68.1201919,69.1770401 68.0108656,69.125281 C67.9605922,69.1034525 67.9078136,69.0756657 67.856107,69.0541936 C67.7452967,68.9973504 67.6330138,68.9484869 67.5185134,68.901461 L67.475293,68.8868158 C67.4010508,68.8649873 67.3257028,68.8372005 67.2507271,68.8157284 L41.1717749,59.3254794 C40.4929767,59.0797919 39.7710313,58.9711618 39.0489053,59.0065273 L39.0463945,59.0099853 Z M37.9552188,64.2550101 C40.2971868,63.9298603 42.59572,64.4751828 43.086639,65.4759746 C43.5768471,66.4751961 42.0686222,67.5509343 39.7265695,67.876268 C37.3845958,68.2017854 35.0993504,67.654642 34.6091818,66.6553425 C34.118274,65.6547734 35.6131661,64.5803772 37.9552188,64.2550101 L37.9552188,64.2550101 Z M22.8982808,68.4451452 C25.3777983,68.0771959 27.8052819,68.7003047 28.3249657,69.8326077 C28.8439441,70.9638303 27.247625,72.1841321 24.7681019,72.5520815 C22.2885111,72.9200642 19.8604069,72.2958194 19.3414227,71.1645689 C18.8216995,70.0318595 20.4187577,68.8131224 22.8982808,68.4451452 Z M53.1527248,69.0418928 C55.7697974,69.3958429 57.4398734,70.5630325 56.8923389,71.6502584 C56.3438453,72.7389322 53.7874958,73.3359415 51.1704289,72.9822475 C48.5532774,72.628303 46.8684297,71.4486456 47.4166977,70.3599272 C47.9644917,69.2727514 50.5356523,68.6881654 53.1527248,69.0418928 L53.1527248,69.0418928 Z M36.2400321,69.2081179 C39.1322373,68.8541677 41.9603566,69.4508875 42.5664305,70.5400736 C43.1718048,71.6273274 41.3253938,72.7947787 38.4331604,73.148545 C35.5409496,73.5024896 32.6980304,72.903587 32.0927238,71.8165503 C31.4866499,70.7278376 33.3478721,69.5618787 36.2400321,69.2081179 Z M37.2803984,74.6192397 C39.3912272,74.6939633 41.1553839,75.2770514 41.6245065,76.1593735 C42.2485683,77.3345539 40.3345223,78.5937182 37.350657,78.9758783 C34.3667353,79.3580774 31.4374147,78.7221666 30.8133529,77.5468081 C30.1878467,76.3700686 32.1033258,75.0985478 35.087208,74.7163487 C35.833156,74.6212054 36.5767737,74.5942316 37.2803984,74.6190225 L37.2803984,74.6192397 Z M12.2147856,79.6896422 C13.2690772,79.7534348 14.5385119,80.8696337 15.4341686,82.6449584 C16.6287687,85.0121136 16.6921888,87.6707127 15.5745222,88.5694285 C14.4585879,89.4669916 12.5933427,88.2723494 11.3991375,85.9054781 C10.2045318,83.5384342 10.1425561,80.8924534 11.2587839,79.9948903 C11.5380185,79.7703464 11.863419,79.667552 12.2148646,79.6894306 L12.2147856,79.6896422 Z M61.1860213,82.3040608 C61.6690354,82.2402681 62.1413628,82.2822323 62.5637554,82.4844967 C64.2510463,83.2869555 64.5749684,86.0723603 63.2948584,88.7003716 C62.014675,91.3282715 59.6117525,92.8049802 57.9243883,92.0025213 C56.2347785,91.1989433 55.8991371,88.4285066 57.1792867,85.8005009 C58.139396,83.8295383 59.7364148,82.5045488 61.1860213,82.3041276 L61.1860213,82.3040608 Z M24.0100511,86.3078407 C25.1549759,86.3789169 26.5520295,87.5569818 27.5247269,89.4296994 C28.8215383,91.926556 28.8928578,94.7114206 27.6794855,95.6594287 C26.4675972,96.606234 24.421396,95.3539634 23.1244491,92.8567449 C21.8278634,90.3598103 21.7579771,87.5598941 22.9696849,86.6130888 C23.2725554,86.375793 23.628323,86.2842915 24.0100511,86.3076235 L24.0100511,86.3078407 Z M45.9182284,88.589269 C46.4011973,88.5254763 46.8736038,88.5674405 47.2959907,88.7697049 C48.9832872,89.5721581 49.307136,92.3575685 48.0270203,94.9855352 C46.7468369,97.6134741 44.3439935,99.0902218 42.6566349,98.2877685 C40.9670138,97.4841793 40.6454163,94.7136814 41.9255602,92.0857759 C42.8856695,90.1148133 44.4685767,88.7897125 45.9182284,88.5893358 L45.9182284,88.589269 Z M13.6206356,89.7626507 C14.5842375,89.8337381 15.7543611,90.9656847 16.5729996,92.7734848 C17.6647,95.1838738 17.720881,97.8799432 16.6996875,98.7951418 C15.6797127,99.7090985 13.9673077,98.5002455 12.8757089,96.0895614 C11.7838956,93.6791723 11.7291986,90.9819001 12.7490266,90.0679044 C13.0046198,89.8389836 13.2996587,89.739831 13.6206356,89.7624335 L13.6206356,89.7626507 Z M24.7270481,97.2133779 C25.8719729,97.2844597 27.2549093,98.462441 28.2276858,100.33517 C29.5244916,102.832021 29.5958166,105.616958 28.3824387,106.564966 C27.1705504,107.511771 25.138393,106.259501 23.8414744,103.762204 C22.544883,101.265281 22.4749685,98.4654369 23.6867158,97.518626 C23.9895863,97.2813247 24.3453144,97.1898343 24.7270481,97.2131663 L24.7270481,97.2133779 Z M60.84858,99.564134 C61.3315885,99.5003413 61.8039949,99.5568392 62.2263875,99.7587918 C63.9136784,100.561245 64.2375272,103.332795 62.9574228,105.960773 C61.6772281,108.588712 59.2743846,110.079236 57.5870204,109.276777 C55.8974049,108.473194 55.5616959,105.688847 56.8418511,103.060942 C57.8020225,101.089985 59.3989679,99.7649505 60.84858,99.5644959 L60.84858,99.564134 Z M14.8718568,99.9882137 C15.7750798,100.045062 16.8740984,101.020757 17.6413914,102.568987 C18.6648024,104.633155 18.7111657,106.946653 17.75368,107.73034 C16.7976445,108.513036 15.1918293,107.477358 14.1686779,105.413268 C13.145865,103.349128 13.100207,101.034467 14.0563949,100.251837 C14.2961105,100.055726 14.5703573,99.9689745 14.8717834,99.9882916 L14.8718568,99.9882137 Z M46.0869518,106.432063 C46.5699151,106.368276 47.0423272,106.424768 47.4647198,106.626715 C49.152005,107.429135 49.4898976,110.214579 48.2097819,112.842556 C46.9295929,115.470495 44.5127169,116.947159 42.8253527,116.144706 C41.1357372,115.341123 40.8140607,112.55677 42.0942159,109.92887 C43.054393,107.957835 44.6373002,106.632807 46.0869518,106.43243 L46.0869518,106.432063 Z M25.4018573,107.60545 C26.5467821,107.676532 27.9438018,108.854591 28.9165331,110.727242 C30.2133389,113.224098 30.2706257,116.00903 29.0568924,116.957005 C27.8450323,117.903804 25.8128692,116.651534 24.5159224,114.154354 C23.2193366,111.657353 23.1494504,108.871358 24.3611525,107.924552 C24.664401,107.687251 25.0197963,107.582268 25.4014849,107.605595 L25.4018573,107.60545 Z" id="rollDice-path-4"></path>
        <filter x="-11.9%" y="-8.7%" width="123.9%" height="123.2%" filterUnits="objectBoundingBox" id="rollDice-filter-5">
            <feMorphology radius="1" operator="dilate" in="SourceAlpha" result="shadowSpreadOuter1"></feMorphology>
            <feOffset dx="0" dy="2" in="shadowSpreadOuter1" result="shadowOffsetOuter1"></feOffset>
            <feMorphology radius="1" operator="erode" in="SourceAlpha" result="shadowInner"></feMorphology>
            <feOffset dx="0" dy="2" in="shadowInner" result="shadowInner"></feOffset>
            <feComposite in="shadowOffsetOuter1" in2="shadowInner" operator="out" result="shadowOffsetOuter1"></feComposite>
            <feGaussianBlur stdDeviation="2" in="shadowOffsetOuter1" result="shadowBlurOuter1"></feGaussianBlur>
            <feColorMatrix values="0 0 0 0 0   0 0 0 0 0   0 0 0 0 0  0 0 0 0.5 0" type="matrix" in="shadowBlurOuter1"></feColorMatrix>
        </filter>
        <path d="M80.9540724,0.0095511522 C80.5364711,0.0374081439 80.1236713,0.10961794 79.724687,0.235144847 L51.5937739,8.84827633 C49.0038246,9.64272258 47.4910352,12.3415058 48.1567482,14.9797014 L51.4351288,44.628116 C51.5869033,45.9768525 52.267164,47.2092021 53.3255425,48.0521824 L74.1328692,64.6679831 C74.2228239,64.7460892 74.3155588,64.8213989 74.4103681,64.8935821 C74.5423478,64.9974785 74.6791872,65.0954574 74.8198414,65.1857609 C74.9611958,65.2767728 75.1067151,65.3611481 75.2563992,65.4378587 C75.3984487,65.5114267 75.544663,65.5773247 75.6929677,65.6369483 L75.7985472,65.6777484 C75.9027419,65.7185485 76.0090111,65.751668 76.1159806,65.7837435 C76.2121853,65.8116004 76.3087348,65.8381152 76.4070245,65.8632451 L76.4747545,65.8772002 L76.5025023,65.8772002 C76.6160718,65.9050572 76.7306813,65.924605 76.8463359,65.9451915 L77.1766193,65.9859916 L77.2558039,65.9859916 C77.3565182,65.9929692 77.458283,66 77.5596924,66 C77.7010468,65.9968042 77.8420564,65.9859916 77.9827159,65.972143 C78.1511549,65.9581346 78.3192491,65.9372552 78.4849134,65.9041464 C78.6540528,65.8692586 78.8218021,65.8326663 78.9871162,65.7845584 C79.4636192,65.6485705 79.9181043,65.4428602 80.3355306,65.1743784 L106.496702,50.4298219 C107.996705,49.5823408 108.967145,48.0285226 109.074497,46.3023585 L110.991268,14.5570901 C111.068373,13.2365302 110.632542,11.9374835 109.775152,10.9340087 C109.740401,10.8932086 109.705337,10.8538146 109.669567,10.81441 C109.474728,10.6024199 109.262773,10.4067126 109.035353,10.2307022 C108.994712,10.1958144 108.956168,10.1696831 108.916233,10.1376076 L108.837044,10.0832306 C108.725904,9.99884998 108.61095,9.91935369 108.49321,9.84403861 C108.39388,9.78966688 108.292121,9.7345601 108.189321,9.68505135 C108.142049,9.66417193 108.092422,9.63759327 108.043802,9.61705473 C107.939607,9.56268299 107.834028,9.51594397 107.726363,9.47096265 L107.685723,9.45695426 C107.615913,9.43607483 107.545064,9.40949617 107.474564,9.38895763 L82.9525645,0.311328127 C82.3142915,0.07632271 81.6354473,-0.0275844015 80.9564334,0.00624346734 L80.9540724,0.0095511522 Z M77.9818265,10.0984604 C80.6840436,9.75682993 83.3263845,10.3327801 83.8926456,11.3840558 C84.458253,12.4334664 82.7331322,13.5602831 80.0308888,13.9017362 C77.3286665,14.2433613 74.6724979,13.6653043 74.1069537,12.6161032 C73.5406926,11.5652844 75.2796517,10.4399081 77.9818265,10.0984604 Z M55.5381172,19.0327363 C56.6080312,19.0952682 57.8962763,20.1894064 58.8052048,21.9296435 C60.0175064,24.2500142 60.0818663,26.8560686 58.9476382,27.7370222 C57.815168,28.6168458 55.9222838,27.4458146 54.710383,25.1257222 C53.4980756,22.8054607 53.4351816,20.2117751 54.5679496,19.3319514 C54.8513219,19.1118454 55.1815441,19.0110827 55.5381974,19.0325289 L55.5381172,19.0327363 Z M87.3603469,28.0276686 C87.801319,27.9635199 88.2326471,28.0057183 88.6183052,28.2091114 C90.1588818,29.0160429 90.4545702,31.8169976 89.2857677,34.4596302 C88.1169033,37.1022347 85.9230005,38.5872236 84.3823671,37.7802921 C82.839668,36.9722183 82.5460351,34.1862592 83.7148634,31.5436883 C84.5914859,29.5617265 86.0367505,28.2292307 87.3603469,28.0277358 L87.3603469,28.0276686 Z M101.363377,39.0250354 C101.803873,38.9609533 102.234699,39.0177076 102.619914,39.2205765 C104.158695,40.0266709 104.454039,42.8107972 103.286606,45.4506996 C102.11909,48.0905628 99.9277378,49.5878502 98.3888904,48.7817502 C96.8479899,47.9745202 96.541829,45.1775395 97.7093087,42.5377098 C98.5849686,40.5578096 100.041356,39.2267632 101.363377,39.025399 L101.363377,39.0250354 Z M62.4811992,34.0025562 C63.3715419,34.0593634 64.4548881,35.0343456 65.2112392,36.5814455 C66.2200559,38.6441062 66.265758,40.9559141 65.3219265,41.7390293 C64.3795244,42.521154 62.7966087,41.4862318 61.7880478,39.423649 C60.7798207,37.3610161 60.7348138,35.0480452 61.6773661,34.2659873 C61.9136633,34.0700193 62.1839992,33.9833311 62.4811268,34.0026341 L62.4811992,34.0025562 Z M67.7773746,47.0028224 C68.8451392,47.0689753 70.1480093,48.165346 71.0551851,49.9081442 C72.2645949,52.2318646 72.3180211,54.8236844 71.1860851,55.7059249 C70.0558962,56.587072 68.1606872,55.421636 66.9511457,53.0976149 C65.7419411,50.7737597 65.6767647,48.1809501 66.8068063,47.2997979 C67.0896179,47.0789514 67.4210619,46.9812483 67.7770273,47.0029572 L67.7773746,47.0028224 Z" id="rollDice-path-6"></path>
        <filter x="-55.6%" y="-50.0%" width="211.1%" height="206.1%" filterUnits="objectBoundingBox" id="rollDice-filter-7">
            <feGaussianBlur stdDeviation="10" in="SourceGraphic"></feGaussianBlur>
        </filter>
        <filter x="-60.3%" y="-54.5%" width="220.6%" height="215.2%" filterUnits="objectBoundingBox" id="rollDice-filter-8">
            <feMorphology radius="1" operator="dilate" in="SourceAlpha" result="shadowSpreadOuter1"></feMorphology>
            <feOffset dx="0" dy="2" in="shadowSpreadOuter1" result="shadowOffsetOuter1"></feOffset>
            <feMorphology radius="1" operator="erode" in="SourceAlpha" result="shadowInner"></feMorphology>
            <feOffset dx="0" dy="2" in="shadowInner" result="shadowInner"></feOffset>
            <feComposite in="shadowOffsetOuter1" in2="shadowInner" operator="out" result="shadowOffsetOuter1"></feComposite>
            <feGaussianBlur stdDeviation="2" in="shadowOffsetOuter1" result="shadowBlurOuter1"></feGaussianBlur>
            <feColorMatrix values="0 0 0 0 0   0 0 0 0 0   0 0 0 0 0  0 0 0 0.5 0" type="matrix" in="shadowBlurOuter1"></feColorMatrix>
        </filter>
        <path d="M80.9540724,0.0095511522 C80.5364711,0.0374081439 80.1236713,0.10961794 79.724687,0.235144847 L51.5937739,8.84827633 C49.0038246,9.64272258 47.4910352,12.3415058 48.1567482,14.9797014 L51.4351288,44.628116 C51.5869033,45.9768525 52.267164,47.2092021 53.3255425,48.0521824 L74.1328692,64.6679831 C74.2228239,64.7460892 74.3155588,64.8213989 74.4103681,64.8935821 C74.5423478,64.9974785 74.6791872,65.0954574 74.8198414,65.1857609 C74.9611958,65.2767728 75.1067151,65.3611481 75.2563992,65.4378587 C75.3984487,65.5114267 75.544663,65.5773247 75.6929677,65.6369483 L75.7985472,65.6777484 C75.9027419,65.7185485 76.0090111,65.751668 76.1159806,65.7837435 C76.2121853,65.8116004 76.3087348,65.8381152 76.4070245,65.8632451 L76.4747545,65.8772002 L76.5025023,65.8772002 C76.6160718,65.9050572 76.7306813,65.924605 76.8463359,65.9451915 L77.1766193,65.9859916 L77.2558039,65.9859916 C77.3565182,65.9929692 77.458283,66 77.5596924,66 C77.7010468,65.9968042 77.8420564,65.9859916 77.9827159,65.972143 C78.1511549,65.9581346 78.3192491,65.9372552 78.4849134,65.9041464 C78.6540528,65.8692586 78.8218021,65.8326663 78.9871162,65.7845584 C79.4636192,65.6485705 79.9181043,65.4428602 80.3355306,65.1743784 L106.496702,50.4298219 C107.996705,49.5823408 108.967145,48.0285226 109.074497,46.3023585 L110.991268,14.5570901 C111.068373,13.2365302 110.632542,11.9374835 109.775152,10.9340087 C109.740401,10.8932086 109.705337,10.8538146 109.669567,10.81441 C109.474728,10.6024199 109.262773,10.4067126 109.035353,10.2307022 C108.994712,10.1958144 108.956168,10.1696831 108.916233,10.1376076 L108.837044,10.0832306 C108.725904,9.99884998 108.61095,9.91935369 108.49321,9.84403861 C108.39388,9.78966688 108.292121,9.7345601 108.189321,9.68505135 C108.142049,9.66417193 108.092422,9.63759327 108.043802,9.61705473 C107.939607,9.56268299 107.834028,9.51594397 107.726363,9.47096265 L107.685723,9.45695426 C107.615913,9.43607483 107.545064,9.40949617 107.474564,9.38895763 L82.9525645,0.311328127 C82.3142915,0.07632271 81.6354473,-0.0275844015 80.9564334,0.00624346734 L80.9540724,0.0095511522 Z M77.9818265,10.0984604 C80.6840436,9.75682993 83.3263845,10.3327801 83.8926456,11.3840558 C84.458253,12.4334664 82.7331322,13.5602831 80.0308888,13.9017362 C77.3286665,14.2433613 74.6724979,13.6653043 74.1069537,12.6161032 C73.5406926,11.5652844 75.2796517,10.4399081 77.9818265,10.0984604 Z M55.5381172,19.0327363 C56.6080312,19.0952682 57.8962763,20.1894064 58.8052048,21.9296435 C60.0175064,24.2500142 60.0818663,26.8560686 58.9476382,27.7370222 C57.815168,28.6168458 55.9222838,27.4458146 54.710383,25.1257222 C53.4980756,22.8054607 53.4351816,20.2117751 54.5679496,19.3319514 C54.8513219,19.1118454 55.1815441,19.0110827 55.5381974,19.0325289 L55.5381172,19.0327363 Z M87.3603469,28.0276686 C87.801319,27.9635199 88.2326471,28.0057183 88.6183052,28.2091114 C90.1588818,29.0160429 90.4545702,31.8169976 89.2857677,34.4596302 C88.1169033,37.1022347 85.9230005,38.5872236 84.3823671,37.7802921 C82.839668,36.9722183 82.5460351,34.1862592 83.7148634,31.5436883 C84.5914859,29.5617265 86.0367505,28.2292307 87.3603469,28.0277358 L87.3603469,28.0276686 Z M101.363377,39.0250354 C101.803873,38.9609533 102.234699,39.0177076 102.619914,39.2205765 C104.158695,40.0266709 104.454039,42.8107972 103.286606,45.4506996 C102.11909,48.0905628 99.9277378,49.5878502 98.3888904,48.7817502 C96.8479899,47.9745202 96.541829,45.1775395 97.7093087,42.5377098 C98.5849686,40.5578096 100.041356,39.2267632 101.363377,39.025399 L101.363377,39.0250354 Z M62.4811992,34.0025562 C63.3715419,34.0593634 64.4548881,35.0343456 65.2112392,36.5814455 C66.2200559,38.6441062 66.265758,40.9559141 65.3219265,41.7390293 C64.3795244,42.521154 62.7966087,41.4862318 61.7880478,39.423649 C60.7798207,37.3610161 60.7348138,35.0480452 61.6773661,34.2659873 C61.9136633,34.0700193 62.1839992,33.9833311 62.4811268,34.0026341 L62.4811992,34.0025562 Z M67.7773746,47.0028224 C68.8451392,47.0689753 70.1480093,48.165346 71.0551851,49.9081442 C72.2645949,52.2318646 72.3180211,54.8236844 71.1860851,55.7059249 C70.0558962,56.587072 68.1606872,55.421636 66.9511457,53.0976149 C65.7419411,50.7737597 65.6767647,48.1809501 66.8068063,47.2997979 C67.0896179,47.0789514 67.4210619,46.9812483 67.7770273,47.0029572 L67.7773746,47.0028224 Z" id="rollDice-path-9"></path>
        <filter x="-12.7%" y="-9.1%" width="125.4%" height="124.2%" filterUnits="objectBoundingBox" id="rollDice-filter-10">
            <feMorphology radius="1" operator="dilate" in="SourceAlpha" result="shadowSpreadOuter1"></feMorphology>
            <feOffset dx="0" dy="2" in="shadowSpreadOuter1" result="shadowOffsetOuter1"></feOffset>
            <feMorphology radius="1" operator="erode" in="SourceAlpha" result="shadowInner"></feMorphology>
            <feOffset dx="0" dy="2" in="shadowInner" result="shadowInner"></feOffset>
            <feComposite in="shadowOffsetOuter1" in2="shadowInner" operator="out" result="shadowOffsetOuter1"></feComposite>
            <feGaussianBlur stdDeviation="2" in="shadowOffsetOuter1" result="shadowBlurOuter1"></feGaussianBlur>
            <feColorMatrix values="0 0 0 0 0   0 0 0 0 0   0 0 0 0 0  0 0 0 0.5 0" type="matrix" in="shadowBlurOuter1"></feColorMatrix>
        </filter>
    </defs>
    <g stroke="none" stroke-width="1" fill="none" fill-rule="evenodd">
        <g transform="translate(-117.000000, 0.000000)">
            <g>
                <g transform="translate(140.000000, 20.000000)">
                    <g filter="url(#rollDice-filter-2)" transform="translate(37.500000, 93.500000) rotate(-8.000000) translate(-37.500000, -93.500000) ">
                        <use fill="black" fill-opacity="1" filter="url(#rollDicefilter-3)" xlink:href="#rollDice-path-1"></use>
                        <use stroke="#B25CFF" stroke-width="2" xlink:href="#rollDice-path-1"></use>
                    </g>
                    <g transform="translate(37.500000, 93.500000) rotate(-8.000000) translate(-37.500000, -93.500000) ">
                        <use fill="black" fill-opacity="1" filter="url(#rollDice-filter-5)" xlink:href="#rollDice-path-4"></use>
                        <use stroke="#B25CFF" stroke-width="2" xlink:href="#rollDice-path-4"></use>
                    </g>
                    <g filter="url(#rollDice-filter-7)" transform="translate(79.500000, 33.000000) scale(-1, -1) rotate(14.000000) translate(-79.500000, -33.000000) ">
                        <use fill="black" fill-opacity="1" filter="url(#rollDicefilter-8)" xlink:href="#rollDice-path-6"></use>
                        <use stroke="#50E38C" stroke-width="2" xlink:href="#rollDice-path-6"></use>
                    </g>
                    <g transform="translate(79.500000, 33.000000) scale(-1, -1) rotate(14.000000) translate(-79.500000, -33.000000) ">
                        <use fill="black" fill-opacity="1" filter="url(#rollDice-filter-10)" xlink:href="#rollDice-path-9"></use>
                        <use stroke="#50E38C" stroke-width="2" xlink:href="#rollDice-path-9"></use>
                    </g>
                </g>
            </g>
        </g>
    </g>
</svg>