<svg width="140px" height="139px" viewBox="0 0 140 139" version="1.1" xmlns="http://www.w3.org/2000/svg" xmlns:xlink="http://www.w3.org/1999/xlink">
    <defs>
        <path d="M44.954,-9.9475983e-14 C69.78,-9.9475983e-14 89.907,20.126 89.907,44.954 C89.907,69.781 69.78,89.908 44.953,89.908 C20.126,89.908 6.11066753e-13,69.781 6.11066753e-13,44.954 C6.11066753e-13,20.126 20.126,-9.9475983e-14 44.954,-9.9475983e-14 Z M34.816,79.204 L32.502,86.329 C35.9926667,87.3780667 39.6000622,87.9793822 43.2851609,88.118312 L44.076,88.141 L44.076,80.655 C40.866,80.577 37.762,80.075 34.816,79.204 Z M55.091,79.204 C52.3554286,80.0127857 49.4844847,80.5034031 46.5174005,80.631816 L45.831,80.655 L45.831,88.141 C49.5279333,88.0682 53.1499511,87.53284 56.6572145,86.5471156 L57.407,86.329 L55.091,79.204 Z M65.128,74.423 C62.7452857,76.0591429 60.1530459,77.4116071 57.4009213,78.4347555 L56.763,78.665 L59.077,85.788 C59.983,85.475 60.88,85.134 61.768,84.757 C64.2625455,83.7024545 66.6314711,82.425595 68.8657611,80.9369399 L69.532,80.484 L65.128,74.423 Z M24.779,74.422 L20.376,80.483 C22.803,82.167 25.396,83.597 28.14,84.756 C28.80525,85.03875 29.4766875,85.3018125 30.152625,85.5472969 L30.83,85.787 L33.144,78.664 C30.154,77.617 27.345,76.184 24.779,74.422 Z M16.69,66.782 L10.629,71.186 C11.787,72.696 13.046,74.138 14.409,75.499 C15.6364286,76.7264286 16.9263061,77.870102 18.2748542,78.9319096 L18.954,79.456 L23.356,73.395 C20.855,71.493 18.612,69.268 16.69,66.782 Z M73.218,66.782 C71.4438462,69.0767692 69.3970296,71.1491479 67.1247419,72.9503714 L66.552,73.395 L70.954,79.456 C72.55,78.249 74.067,76.931 75.499,75.499 C76.6655714,74.3324286 77.7579388,73.1063469 78.776102,71.8276822 L79.279,71.184 L73.218,66.782 Z M44.954,10.998 C40.369,10.998 35.923,11.895 31.737,13.666 C27.694,15.376 24.062,17.824 20.943,20.943 C17.824,24.062 15.376,27.694 13.665,31.737 C11.895,35.923 10.998,40.369 10.998,44.954 C10.998,49.538 11.895,53.985 13.665,58.171 C15.376,62.214 17.824,65.845 20.943,68.964 C24.062,72.083 27.694,74.532 31.737,76.243 C35.923,78.013 40.369,78.911 44.954,78.911 C49.538,78.911 53.985,78.013 58.171,76.243 C62.214,74.532 65.847,72.083 68.964,68.964 C72.083,65.845 74.532,62.214 76.243,58.171 C78.013,53.986 78.911,49.538 78.911,44.954 C78.911,40.369 78.013,35.923 76.243,31.737 C74.532,27.694 72.083,24.062 68.964,20.943 C65.847,17.824 62.214,15.376 58.171,13.666 C53.986,11.895 49.538,10.998 44.954,10.998 Z M44.954,13.892 C62.108,13.892 76.015,27.799 76.015,44.954 C76.015,62.109 62.109,76.015 44.954,76.015 C27.799,76.015 13.892,62.109 13.892,44.954 C13.892,27.799 27.8,13.892 44.954,13.892 Z M51.12,66.98 C49.6168889,67.3995556 48.0497778,67.6689877 46.4376296,67.7714403 L45.831,67.802 L45.831,74.246 C48.1000909,74.1805455 50.3237273,73.8564132 52.4703539,73.2901322 L53.112,73.113 L51.12,66.98 Z M38.788,66.979 L36.795,73.111 C38.925,73.7255455 41.1368182,74.099595 43.3958941,74.2166198 L44.075,74.244 L44.075,67.801 C42.25,67.733 40.479,67.452 38.788,66.979 Z M57.573,64.024 C56.2556667,64.8968889 54.8435185,65.6394074 53.3541139,66.2283786 L52.792,66.442 L54.784,72.577 C56.8930909,71.8279091 58.9087934,70.8366694 60.8003035,69.6160533 L61.364,69.243 L57.573,64.024 Z M32.335,64.024 L28.544,69.243 C30.4103636,70.5093636 32.404,71.5476281 34.4941052,72.345021 L35.124,72.577 L37.117,66.442 C35.419,65.823 33.817,65.007 32.335,64.024 Z M78.576,57.011 C77.5805714,59.7874286 76.2514541,62.4052041 74.6358867,64.8154865 L74.258,65.368 L80.319,69.77 C82.073,67.276 83.559,64.602 84.756,61.768 C84.9833333,61.2306667 85.1982222,60.6884444 85.4024444,60.1437037 L85.701,59.325 L78.576,57.011 Z M11.329,57.011 L4.206,59.325 C4.496,60.145 4.809,60.962 5.149,61.768 C6.24808333,64.3658333 7.58748611,66.8292222 9.15488426,69.1427616 L9.588,69.77 L15.649,65.368 C13.862,62.808 12.402,60.001 11.329,57.011 Z M62.819,59.228 C61.8207778,60.4724444 60.697716,61.6118025 59.4659684,62.6250041 L58.999,62.999 L62.786,68.214 C63.796,67.437 64.761,66.591 65.677,65.677 C66.3514,65.0002 66.9906,64.29588 67.591016,63.567624 L68.034,63.017 L62.819,59.228 Z M27.089,59.227 L21.872,63.016 C22.6,63.942 23.386,64.831 24.231,65.676 C24.963,66.4072 25.72764,67.09488 26.520824,67.738528 L27.121,68.213 L30.909,62.998 C29.492,61.895 28.21,60.627 27.089,59.227 Z M44.954,23.842 C39.315,23.842 34.013,26.039 30.026,30.025 C26.038,34.013 23.843,39.314 23.843,44.953 C23.843,50.592 26.039,55.893 30.026,59.881 C34.014,63.868 39.315,66.065 44.954,66.065 C50.593,66.065 55.893,63.868 59.882,59.881 C63.869,55.893 66.066,50.592 66.066,44.953 C66.066,39.314 63.868,34.012 59.882,30.025 C55.894,26.038 50.593,23.842 44.954,23.842 Z M44.953,26.814 C47.2794255,26.814 48.7063834,33.1869054 47.943848,34.2202955 L47.891,34.28 L47.891,37.787 C49.7176667,38.5365238 51.1887778,39.9554354 52.002854,41.7448469 L52.12,42.016 L55.626,42.016 C56.44,41.138 63.093,42.577 63.093,44.954 C63.093,47.2804255 56.7200946,48.7073834 55.685767,47.944848 L55.626,47.892 L52.12,47.892 C51.3714286,49.7186667 49.9525624,51.1897778 48.1622892,52.003854 L47.891,52.121 L47.891,55.627 C48.768,56.441 47.33,63.094 44.953,63.094 C42.6265745,63.094 41.1986587,56.7210946 41.9620908,55.686767 L42.015,55.627 L42.015,52.121 C40.1892857,51.3724286 38.71822,49.9535624 37.903282,48.1632892 L37.786,47.892 L34.279,47.892 C33.466,48.769 26.813,47.331 26.813,44.954 C26.813,42.6275745 33.1859054,41.1996587 34.2192955,41.9630908 L34.279,42.016 L37.786,42.016 C38.5355238,40.1902857 39.9544354,38.71922 41.7438469,37.904282 L42.015,37.787 L42.015,34.28 C41.137,33.467 42.576,26.814 44.953,26.814 Z M66.349,53.038 C65.7792222,54.5464444 65.0537901,55.9798272 64.192369,57.3177805 L63.863,57.815 L69.078,61.604 C70.3689091,59.7430909 71.4300661,57.7499504 72.24945,55.6613929 L72.488,55.032 L66.349,53.038 Z M23.559,53.038 L17.42,55.032 C18.1909091,57.1392727 19.2056198,59.1548099 20.4498573,61.0417971 L20.83,61.604 L26.045,57.815 C25.038,56.337 24.201,54.735 23.559,53.038 Z M44.954,28.571 C43.587697,28.571 42.8194325,32.4375638 43.3658955,33.1159563 L43.421,33.17 L43.772,33.434 L43.772,39.049 L43.158,39.241 C41.3731304,39.8024783 39.9551493,41.1663535 39.3223804,42.9169275 L39.241,43.158 L39.049,43.772 L33.434,43.772 L33.17,43.421 C32.683,42.772 28.571,43.546 28.571,44.954 C28.571,46.320303 32.4375638,47.0885675 33.1168682,46.5411927 L33.171,46.486 L33.434,46.136 L39.049,46.136 L39.241,46.751 C39.8015217,48.534913 41.1662703,49.9528526 42.9169221,50.5856197 L43.158,50.667 L43.772,50.86 L43.772,56.475 L43.421,56.737 C42.772,57.225 43.546,61.337 44.954,61.337 C46.320303,61.337 47.0885675,57.4704362 46.5411927,56.7911318 L46.486,56.737 L46.136,56.473 L46.136,50.86 L46.751,50.667 C48.534913,50.1064783 49.9528526,48.7417297 50.5856197,46.9919531 L50.667,46.751 L50.86,46.136 L56.475,46.136 L56.737,46.486 C57.225,47.136 61.337,46.362 61.337,44.954 C61.337,43.587697 57.4704362,42.8194325 56.7911318,43.3658955 L56.737,43.421 L56.475,43.772 L50.86,43.772 L50.667,43.158 C50.1064783,41.3731304 48.7417297,39.9560643 46.9919531,39.3224997 L46.751,39.241 L46.136,39.049 L46.136,33.434 L46.486,33.17 C47.136,32.683 46.363,28.571 44.954,28.571 Z M9.259,46.04 L1.77,46.04 C1.86053333,49.7509333 2.41711111,53.3878222 3.42916385,56.9067627 L3.653,57.659 L10.779,55.343 C9.88,52.386 9.356,49.267 9.259,46.04 Z M88.137,46.04 L80.649,46.04 C80.5589286,49.0355714 80.0989541,51.9397449 79.3155146,54.706883 L79.129,55.343 L86.254,57.659 C87.408,53.905 88.041,50.017 88.137,46.04 Z M74.237,46.04 L67.794,46.04 C67.7175556,47.6791111 67.4680741,49.2716049 67.0652209,50.8013278 L66.907,51.372 L73.04,53.364 C73.741,51.009 74.147,48.552 74.237,46.04 Z M22.113,46.04 L15.671,46.04 C15.7537273,48.3236364 16.0959587,50.5618182 16.6841705,52.7192337 L16.868,53.364 L23.002,51.372 C22.505,49.669 22.2,47.884 22.113,46.04 Z M44.954,41.709 C46.743,41.709 48.198,43.164 48.199,44.953 C48.199,46.743 46.744,48.198 44.954,48.198 C43.165,48.198 41.71,46.743 41.71,44.953 C41.71,43.164 43.165,41.709 44.954,41.709 Z M44.954,43.465 C44.134,43.465 43.466,44.133 43.466,44.953 C43.466,45.774 44.134,46.442 44.954,46.442 C45.774,46.442 46.442,45.774 46.443,44.953 C46.443,44.133 45.775,43.465 44.954,43.465 Z M3.54,32.63 C2.49466667,36.1449333 1.90666667,39.7783378 1.78331733,43.4887484 L1.764,44.285 L9.249,44.285 C9.30471429,41.2782857 9.73119388,38.3638316 10.4852034,35.5840725 L10.665,34.945 L3.54,32.63 Z M86.366,32.63 L79.243,34.945 C80.0462143,37.7047143 80.5260867,40.6015255 80.6377806,43.5929989 L80.657,44.285 L88.143,44.285 C88.083,40.298 87.487,36.397 86.366,32.63 Z M73.149,36.925 L67.014,38.918 C67.4308889,40.4442222 67.6929136,42.0336543 67.7832181,43.6694403 L67.809,44.285 L74.251,44.285 C74.194,41.763 73.821,39.295 73.149,36.925 Z M16.758,36.924 C16.148,39.0785455 15.7834545,41.3140826 15.6801412,43.5975537 L15.657,44.284 L22.097,44.284 C22.145,42.6377778 22.3668272,41.0342222 22.7449232,39.4922963 L22.894,38.917 L16.758,36.924 Z M69.268,28.583 L64.049,32.374 C64.9352222,33.7144444 65.6815926,35.1528642 66.2726598,36.6702963 L66.487,37.243 L72.62,35.25 C71.797,32.899 70.674,30.661 69.268,28.583 Z M20.639,28.582 C19.3501667,30.4868333 18.2982917,32.5269514 17.4987801,34.6646117 L17.287,35.25 L23.421,37.243 C23.9712222,35.7061111 24.6818395,34.2450741 25.5324842,32.8809588 L25.858,32.374 L20.639,28.582 Z M9.397,20.414 C7.727,22.829 6.305,25.411 5.15,28.14 C4.856,28.836 4.5816875,29.53875 4.32579688,30.2465625 L4.076,30.956 L11.198,33.27 C12.1702143,30.4638571 13.4812908,27.8163673 15.0831902,25.37557 L15.458,24.816 L9.397,20.414 Z M80.511,20.414 L74.45,24.817 C76.0972857,27.2247857 77.4557194,29.8438214 78.4796636,32.6252671 L78.71,33.27 L85.833,30.956 C85.507,30.008 85.149,29.069 84.757,28.14 C83.603,25.41 82.181,22.829 80.511,20.414 Z M62.981,21.844 L59.19,27.06 C60.4593333,28.0715556 61.6188395,29.2158519 62.6481509,30.4704143 L63.028,30.946 L68.241,27.158 C67.458,26.136 66.602,25.158 65.676,24.232 C64.819,23.375 63.919,22.579 62.981,21.844 Z M26.926,21.844 C25.988,22.579 25.088,23.376 24.232,24.232 C23.4904,24.9728 22.79552,25.74688 22.145312,26.550144 L21.666,27.158 L26.88,30.946 C27.8746667,29.6633333 29.0036543,28.4897037 30.245893,27.4454787 L30.717,27.06 L26.926,21.844 Z M54.905,17.374 L52.911,23.511 C54.4496667,24.0825556 55.9101111,24.8129259 57.270561,25.6852551 L57.776,26.019 L61.565,20.804 C59.493,19.371 57.257,18.221 54.905,17.374 Z M35.003,17.374 C32.847,18.1504167 30.7884722,19.1814375 28.8643889,20.4516574 L28.343,20.804 L32.131,26.019 C33.4678889,25.1114444 34.9059136,24.3437407 36.4233018,23.7327449 L36.996,23.511 L35.003,17.374 Z M71.148,10.602 L66.746,16.662 C69.0785714,18.4615714 71.1817857,20.5430969 73.0060022,22.8553345 L73.422,23.393 L79.483,18.99 C78.27,17.381 76.942,15.851 75.498,14.409 C74.125,13.036 72.671,11.767 71.148,10.602 Z M18.759,10.602 C17.235,11.767 15.782,13.036 14.409,14.409 C13.1721429,15.645 12.0190408,16.9456531 10.9509534,18.3052915 L10.424,18.99 L16.485,23.393 C18.266,21.0455714 20.3298163,18.9249133 22.627609,17.0822675 L23.162,16.662 L18.759,10.602 Z M45.831,15.663 L45.831,22.106 C47.4941111,22.1682222 49.1106049,22.4074321 50.6636255,22.8060713 L51.243,22.963 L53.235,16.832 C50.854,16.134 48.37,15.737 45.831,15.663 Z M44.076,15.662 C41.7485833,15.7298333 39.4682222,16.0690764 37.2695781,16.6627836 L36.672,16.831 L38.665,22.963 C40.201,22.5247778 41.8041605,22.2437901 43.4548162,22.1375953 L44.076,22.106 L44.076,15.662 Z M59.198,4.163 L56.884,11.286 C59.6910714,12.2805 62.3369031,13.616449 64.7710536,15.2434056 L65.329,15.624 L69.733,9.563 C67.249,7.82 64.587,6.343 61.768,5.15 C60.921,4.792 60.063,4.465 59.198,4.163 Z M30.709,4.162 C29.845,4.464 28.988,4.791 28.14,5.149 C25.555,6.24258333 23.1027639,7.57480556 20.7986968,9.13180208 L20.174,9.562 L24.578,15.623 C26.9792857,13.9515714 29.5961327,12.5672704 32.3772988,11.5205383 L33.022,11.285 L30.709,4.162 Z M45.831,1.767 L45.831,9.252 C48.8544286,9.32442857 51.7812857,9.77538265 54.5739406,10.5552216 L55.216,10.741 L57.53,3.616 C53.751,2.465 49.835,1.846 45.831,1.767 Z M44.076,1.766 C40.3398667,1.83973333 36.6786489,2.38473778 33.1354376,3.39206993 L32.378,3.615 L34.693,10.74 C37.4629286,9.91078571 40.3725408,9.40577551 43.3802026,9.27541071 L44.076,9.252 L44.076,1.766 Z" id="roulette-path-1"></path>
        <filter x="-37.8%" y="-35.6%" width="175.6%" height="175.6%" filterUnits="objectBoundingBox" id="roulette-filter-2">
            <feGaussianBlur stdDeviation="10" in="SourceGraphic"></feGaussianBlur>
        </filter>
        <filter x="-41.2%" y="-38.9%" width="182.3%" height="182.3%" filterUnits="objectBoundingBox" id="roulette-filter-3">
            <feOffset dx="0" dy="2" in="SourceAlpha" result="shadowOffsetOuter1"></feOffset>
            <feGaussianBlur stdDeviation="2" in="shadowOffsetOuter1" result="shadowBlurOuter1"></feGaussianBlur>
            <feColorMatrix values="0 0 0 0 0   0 0 0 0 0   0 0 0 0 0  0 0 0 0.5 0" type="matrix" in="shadowBlurOuter1"></feColorMatrix>
        </filter>
        <path d="M44.954,-9.9475983e-14 C69.78,-9.9475983e-14 89.907,20.126 89.907,44.954 C89.907,69.781 69.78,89.908 44.953,89.908 C20.126,89.908 1.56319402e-13,69.781 1.56319402e-13,44.954 C1.56319402e-13,20.126 20.126,-9.9475983e-14 44.954,-9.9475983e-14 Z M34.816,79.204 L32.502,86.329 C35.9926667,87.3780667 39.6000622,87.9793822 43.2851609,88.118312 L44.076,88.141 L44.076,80.655 C40.866,80.577 37.762,80.075 34.816,79.204 Z M55.091,79.204 C52.3554286,80.0127857 49.4844847,80.5034031 46.5174005,80.631816 L45.831,80.655 L45.831,88.141 C49.5279333,88.0682 53.1499511,87.53284 56.6572145,86.5471156 L57.407,86.329 L55.091,79.204 Z M65.128,74.423 C62.7452857,76.0591429 60.1530459,77.4116071 57.4009213,78.4347555 L56.763,78.665 L59.077,85.788 C59.983,85.475 60.88,85.134 61.768,84.757 C64.2625455,83.7024545 66.6314711,82.425595 68.8657611,80.9369399 L69.532,80.484 L65.128,74.423 Z M24.779,74.422 L20.376,80.483 C22.803,82.167 25.396,83.597 28.14,84.756 C28.80525,85.03875 29.4766875,85.3018125 30.152625,85.5472969 L30.83,85.787 L33.144,78.664 C30.154,77.617 27.345,76.184 24.779,74.422 Z M16.69,66.782 L10.629,71.186 C11.787,72.696 13.046,74.138 14.409,75.499 C15.6364286,76.7264286 16.9263061,77.870102 18.2748542,78.9319096 L18.954,79.456 L23.356,73.395 C20.855,71.493 18.612,69.268 16.69,66.782 Z M73.218,66.782 C71.4438462,69.0767692 69.3970296,71.1491479 67.1247419,72.9503714 L66.552,73.395 L70.954,79.456 C72.55,78.249 74.067,76.931 75.499,75.499 C76.6655714,74.3324286 77.7579388,73.1063469 78.776102,71.8276822 L79.279,71.184 L73.218,66.782 Z M44.954,10.998 C40.369,10.998 35.923,11.895 31.737,13.666 C27.694,15.376 24.062,17.824 20.943,20.943 C17.824,24.062 15.376,27.694 13.665,31.737 C11.895,35.923 10.998,40.369 10.998,44.954 C10.998,49.538 11.895,53.985 13.665,58.171 C15.376,62.214 17.824,65.845 20.943,68.964 C24.062,72.083 27.694,74.532 31.737,76.243 C35.923,78.013 40.369,78.911 44.954,78.911 C49.538,78.911 53.985,78.013 58.171,76.243 C62.214,74.532 65.847,72.083 68.964,68.964 C72.083,65.845 74.532,62.214 76.243,58.171 C78.013,53.986 78.911,49.538 78.911,44.954 C78.911,40.369 78.013,35.923 76.243,31.737 C74.532,27.694 72.083,24.062 68.964,20.943 C65.847,17.824 62.214,15.376 58.171,13.666 C53.986,11.895 49.538,10.998 44.954,10.998 Z M44.954,13.892 C62.108,13.892 76.015,27.799 76.015,44.954 C76.015,62.109 62.109,76.015 44.954,76.015 C27.799,76.015 13.892,62.109 13.892,44.954 C13.892,27.799 27.8,13.892 44.954,13.892 Z M51.12,66.98 C49.6168889,67.3995556 48.0497778,67.6689877 46.4376296,67.7714403 L45.831,67.802 L45.831,74.246 C48.1000909,74.1805455 50.3237273,73.8564132 52.4703539,73.2901322 L53.112,73.113 L51.12,66.98 Z M38.788,66.979 L36.795,73.111 C38.925,73.7255455 41.1368182,74.099595 43.3958941,74.2166198 L44.075,74.244 L44.075,67.801 C42.25,67.733 40.479,67.452 38.788,66.979 Z M57.573,64.024 C56.2556667,64.8968889 54.8435185,65.6394074 53.3541139,66.2283786 L52.792,66.442 L54.784,72.577 C56.8930909,71.8279091 58.9087934,70.8366694 60.8003035,69.6160533 L61.364,69.243 L57.573,64.024 Z M32.335,64.024 L28.544,69.243 C30.4103636,70.5093636 32.404,71.5476281 34.4941052,72.345021 L35.124,72.577 L37.117,66.442 C35.419,65.823 33.817,65.007 32.335,64.024 Z M78.576,57.011 C77.5805714,59.7874286 76.2514541,62.4052041 74.6358867,64.8154865 L74.258,65.368 L80.319,69.77 C82.073,67.276 83.559,64.602 84.756,61.768 C84.9833333,61.2306667 85.1982222,60.6884444 85.4024444,60.1437037 L85.701,59.325 L78.576,57.011 Z M11.329,57.011 L4.206,59.325 C4.496,60.145 4.809,60.962 5.149,61.768 C6.24808333,64.3658333 7.58748611,66.8292222 9.15488426,69.1427616 L9.588,69.77 L15.649,65.368 C13.862,62.808 12.402,60.001 11.329,57.011 Z M62.819,59.228 C61.8207778,60.4724444 60.697716,61.6118025 59.4659684,62.6250041 L58.999,62.999 L62.786,68.214 C63.796,67.437 64.761,66.591 65.677,65.677 C66.3514,65.0002 66.9906,64.29588 67.591016,63.567624 L68.034,63.017 L62.819,59.228 Z M27.089,59.227 L21.872,63.016 C22.6,63.942 23.386,64.831 24.231,65.676 C24.963,66.4072 25.72764,67.09488 26.520824,67.738528 L27.121,68.213 L30.909,62.998 C29.492,61.895 28.21,60.627 27.089,59.227 Z M44.954,23.842 C39.315,23.842 34.013,26.039 30.026,30.025 C26.038,34.013 23.843,39.314 23.843,44.953 C23.843,50.592 26.039,55.893 30.026,59.881 C34.014,63.868 39.315,66.065 44.954,66.065 C50.593,66.065 55.893,63.868 59.882,59.881 C63.869,55.893 66.066,50.592 66.066,44.953 C66.066,39.314 63.868,34.012 59.882,30.025 C55.894,26.038 50.593,23.842 44.954,23.842 Z M44.953,26.814 C47.2794255,26.814 48.7063834,33.1869054 47.943848,34.2202955 L47.891,34.28 L47.891,37.787 C49.7176667,38.5365238 51.1887778,39.9554354 52.002854,41.7448469 L52.12,42.016 L55.626,42.016 C56.44,41.138 63.093,42.577 63.093,44.954 C63.093,47.2804255 56.7200946,48.7073834 55.685767,47.944848 L55.626,47.892 L52.12,47.892 C51.3714286,49.7186667 49.9525624,51.1897778 48.1622892,52.003854 L47.891,52.121 L47.891,55.627 C48.768,56.441 47.33,63.094 44.953,63.094 C42.6265745,63.094 41.1986587,56.7210946 41.9620908,55.686767 L42.015,55.627 L42.015,52.121 C40.1892857,51.3724286 38.71822,49.9535624 37.903282,48.1632892 L37.786,47.892 L34.279,47.892 C33.466,48.769 26.813,47.331 26.813,44.954 C26.813,42.6275745 33.1859054,41.1996587 34.2192955,41.9630908 L34.279,42.016 L37.786,42.016 C38.5355238,40.1902857 39.9544354,38.71922 41.7438469,37.904282 L42.015,37.787 L42.015,34.28 C41.137,33.467 42.576,26.814 44.953,26.814 Z M66.349,53.038 C65.7792222,54.5464444 65.0537901,55.9798272 64.192369,57.3177805 L63.863,57.815 L69.078,61.604 C70.3689091,59.7430909 71.4300661,57.7499504 72.24945,55.6613929 L72.488,55.032 L66.349,53.038 Z M23.559,53.038 L17.42,55.032 C18.1909091,57.1392727 19.2056198,59.1548099 20.4498573,61.0417971 L20.83,61.604 L26.045,57.815 C25.038,56.337 24.201,54.735 23.559,53.038 Z M44.954,28.571 C43.587697,28.571 42.8194325,32.4375638 43.3658955,33.1159563 L43.421,33.17 L43.772,33.434 L43.772,39.049 L43.158,39.241 C41.3731304,39.8024783 39.9551493,41.1663535 39.3223804,42.9169275 L39.241,43.158 L39.049,43.772 L33.434,43.772 L33.17,43.421 C32.683,42.772 28.571,43.546 28.571,44.954 C28.571,46.320303 32.4375638,47.0885675 33.1168682,46.5411927 L33.171,46.486 L33.434,46.136 L39.049,46.136 L39.241,46.751 C39.8015217,48.534913 41.1662703,49.9528526 42.9169221,50.5856197 L43.158,50.667 L43.772,50.86 L43.772,56.475 L43.421,56.737 C42.772,57.225 43.546,61.337 44.954,61.337 C46.320303,61.337 47.0885675,57.4704362 46.5411927,56.7911318 L46.486,56.737 L46.136,56.473 L46.136,50.86 L46.751,50.667 C48.534913,50.1064783 49.9528526,48.7417297 50.5856197,46.9919531 L50.667,46.751 L50.86,46.136 L56.475,46.136 L56.737,46.486 C57.225,47.136 61.337,46.362 61.337,44.954 C61.337,43.587697 57.4704362,42.8194325 56.7911318,43.3658955 L56.737,43.421 L56.475,43.772 L50.86,43.772 L50.667,43.158 C50.1064783,41.3731304 48.7417297,39.9560643 46.9919531,39.3224997 L46.751,39.241 L46.136,39.049 L46.136,33.434 L46.486,33.17 C47.136,32.683 46.363,28.571 44.954,28.571 Z M9.259,46.04 L1.77,46.04 C1.86053333,49.7509333 2.41711111,53.3878222 3.42916385,56.9067627 L3.653,57.659 L10.779,55.343 C9.88,52.386 9.356,49.267 9.259,46.04 Z M88.137,46.04 L80.649,46.04 C80.5589286,49.0355714 80.0989541,51.9397449 79.3155146,54.706883 L79.129,55.343 L86.254,57.659 C87.408,53.905 88.041,50.017 88.137,46.04 Z M74.237,46.04 L67.794,46.04 C67.7175556,47.6791111 67.4680741,49.2716049 67.0652209,50.8013278 L66.907,51.372 L73.04,53.364 C73.741,51.009 74.147,48.552 74.237,46.04 Z M22.113,46.04 L15.671,46.04 C15.7537273,48.3236364 16.0959587,50.5618182 16.6841705,52.7192337 L16.868,53.364 L23.002,51.372 C22.505,49.669 22.2,47.884 22.113,46.04 Z M44.954,41.709 C46.743,41.709 48.198,43.164 48.199,44.953 C48.199,46.743 46.744,48.198 44.954,48.198 C43.165,48.198 41.71,46.743 41.71,44.953 C41.71,43.164 43.165,41.709 44.954,41.709 Z M44.954,43.465 C44.134,43.465 43.466,44.133 43.466,44.953 C43.466,45.774 44.134,46.442 44.954,46.442 C45.774,46.442 46.442,45.774 46.443,44.953 C46.443,44.133 45.775,43.465 44.954,43.465 Z M3.54,32.63 C2.49466667,36.1449333 1.90666667,39.7783378 1.78331733,43.4887484 L1.764,44.285 L9.249,44.285 C9.30471429,41.2782857 9.73119388,38.3638316 10.4852034,35.5840725 L10.665,34.945 L3.54,32.63 Z M86.366,32.63 L79.243,34.945 C80.0462143,37.7047143 80.5260867,40.6015255 80.6377806,43.5929989 L80.657,44.285 L88.143,44.285 C88.083,40.298 87.487,36.397 86.366,32.63 Z M73.149,36.925 L67.014,38.918 C67.4308889,40.4442222 67.6929136,42.0336543 67.7832181,43.6694403 L67.809,44.285 L74.251,44.285 C74.194,41.763 73.821,39.295 73.149,36.925 Z M16.758,36.924 C16.148,39.0785455 15.7834545,41.3140826 15.6801412,43.5975537 L15.657,44.284 L22.097,44.284 C22.145,42.6377778 22.3668272,41.0342222 22.7449232,39.4922963 L22.894,38.917 L16.758,36.924 Z M69.268,28.583 L64.049,32.374 C64.9352222,33.7144444 65.6815926,35.1528642 66.2726598,36.6702963 L66.487,37.243 L72.62,35.25 C71.797,32.899 70.674,30.661 69.268,28.583 Z M20.639,28.582 C19.3501667,30.4868333 18.2982917,32.5269514 17.4987801,34.6646117 L17.287,35.25 L23.421,37.243 C23.9712222,35.7061111 24.6818395,34.2450741 25.5324842,32.8809588 L25.858,32.374 L20.639,28.582 Z M9.397,20.414 C7.727,22.829 6.305,25.411 5.15,28.14 C4.856,28.836 4.5816875,29.53875 4.32579688,30.2465625 L4.076,30.956 L11.198,33.27 C12.1702143,30.4638571 13.4812908,27.8163673 15.0831902,25.37557 L15.458,24.816 L9.397,20.414 Z M80.511,20.414 L74.45,24.817 C76.0972857,27.2247857 77.4557194,29.8438214 78.4796636,32.6252671 L78.71,33.27 L85.833,30.956 C85.507,30.008 85.149,29.069 84.757,28.14 C83.603,25.41 82.181,22.829 80.511,20.414 Z M62.981,21.844 L59.19,27.06 C60.4593333,28.0715556 61.6188395,29.2158519 62.6481509,30.4704143 L63.028,30.946 L68.241,27.158 C67.458,26.136 66.602,25.158 65.676,24.232 C64.819,23.375 63.919,22.579 62.981,21.844 Z M26.926,21.844 C25.988,22.579 25.088,23.376 24.232,24.232 C23.4904,24.9728 22.79552,25.74688 22.145312,26.550144 L21.666,27.158 L26.88,30.946 C27.8746667,29.6633333 29.0036543,28.4897037 30.245893,27.4454787 L30.717,27.06 L26.926,21.844 Z M54.905,17.374 L52.911,23.511 C54.4496667,24.0825556 55.9101111,24.8129259 57.270561,25.6852551 L57.776,26.019 L61.565,20.804 C59.493,19.371 57.257,18.221 54.905,17.374 Z M35.003,17.374 C32.847,18.1504167 30.7884722,19.1814375 28.8643889,20.4516574 L28.343,20.804 L32.131,26.019 C33.4678889,25.1114444 34.9059136,24.3437407 36.4233018,23.7327449 L36.996,23.511 L35.003,17.374 Z M71.148,10.602 L66.746,16.662 C69.0785714,18.4615714 71.1817857,20.5430969 73.0060022,22.8553345 L73.422,23.393 L79.483,18.99 C78.27,17.381 76.942,15.851 75.498,14.409 C74.125,13.036 72.671,11.767 71.148,10.602 Z M18.759,10.602 C17.235,11.767 15.782,13.036 14.409,14.409 C13.1721429,15.645 12.0190408,16.9456531 10.9509534,18.3052915 L10.424,18.99 L16.485,23.393 C18.266,21.0455714 20.3298163,18.9249133 22.627609,17.0822675 L23.162,16.662 L18.759,10.602 Z M45.831,15.663 L45.831,22.106 C47.4941111,22.1682222 49.1106049,22.4074321 50.6636255,22.8060713 L51.243,22.963 L53.235,16.832 C50.854,16.134 48.37,15.737 45.831,15.663 Z M44.076,15.662 C41.7485833,15.7298333 39.4682222,16.0690764 37.2695781,16.6627836 L36.672,16.831 L38.665,22.963 C40.201,22.5247778 41.8041605,22.2437901 43.4548162,22.1375953 L44.076,22.106 L44.076,15.662 Z M59.198,4.163 L56.884,11.286 C59.6910714,12.2805 62.3369031,13.616449 64.7710536,15.2434056 L65.329,15.624 L69.733,9.563 C67.249,7.82 64.587,6.343 61.768,5.15 C60.921,4.792 60.063,4.465 59.198,4.163 Z M30.709,4.162 C29.845,4.464 28.988,4.791 28.14,5.149 C25.555,6.24258333 23.1027639,7.57480556 20.7986968,9.13180208 L20.174,9.562 L24.578,15.623 C26.9792857,13.9515714 29.5961327,12.5672704 32.3772988,11.5205383 L33.022,11.285 L30.709,4.162 Z M45.831,1.767 L45.831,9.252 C48.8544286,9.32442857 51.7812857,9.77538265 54.5739406,10.5552216 L55.216,10.741 L57.53,3.616 C53.751,2.465 49.835,1.846 45.831,1.767 Z M44.076,1.766 C40.3398667,1.83973333 36.6786489,2.38473778 33.1354376,3.39206993 L32.378,3.615 L34.693,10.74 C37.4629286,9.91078571 40.3725408,9.40577551 43.3802026,9.27541071 L44.076,9.252 L44.076,1.766 Z" id="roulette-path-4"></path>
        <filter x="-7.8%" y="-5.6%" width="115.6%" height="115.6%" filterUnits="objectBoundingBox" id="roulette-filter-5">
            <feOffset dx="0" dy="2" in="SourceAlpha" result="shadowOffsetOuter1"></feOffset>
            <feGaussianBlur stdDeviation="2" in="shadowOffsetOuter1" result="shadowBlurOuter1"></feGaussianBlur>
            <feColorMatrix values="0 0 0 0 0   0 0 0 0 0   0 0 0 0 0  0 0 0 0.5 0" type="matrix" in="shadowBlurOuter1"></feColorMatrix>
        </filter>
    </defs>
    <g stroke="none" stroke-width="1" fill="none" fill-rule="evenodd">
        <g transform="translate(-124.000000, -20.000000)" fill-rule="nonzero">
            <g transform="translate(149.046000, 44.046000)">
                <g filter="url(#filter-2)">
                    <use fill="black" fill-opacity="1" filter="url(#roulette-filter-3)" xlink:href="#roulette-path-1"></use>
                    <use fill="#FF9292" xlink:href="#roulette-path-1"></use>
                </g>
                <g>
                    <use fill="black" fill-opacity="1" filter="url(#roulette-filter-5)" xlink:href="#roulette-path-4"></use>
                    <use fill="#FF9292" xlink:href="#roulette-path-4"></use>
                </g>
            </g>
        </g>
    </g>
</svg>