<svg width="88px" height="88px" viewBox="0 0 88 88" version="1.1" xmlns="http://www.w3.org/2000/svg" xmlns:xlink="http://www.w3.org/1999/xlink">
    <g stroke="none" stroke-width="1" fill="none" fill-rule="evenodd">
        <g transform="translate(-150.000000, -45.000000)" fill="#FFFFFF" fill-rule="nonzero">
            <path d="M183.862,123.25 C186.808,124.121 189.912,124.623 193.122,124.701 L193.122,132.187 C189.162,132.109 185.288,131.499 181.548,130.375 L183.862,123.25 Z M204.137,123.25 L206.453,130.375 C202.713,131.5 198.838,132.109 194.877,132.187 L194.877,124.701 C198.088,124.623 201.191,124.121 204.137,123.25 Z M214.174,118.469 L218.578,124.53 C216.15,126.214 213.558,127.643 210.814,128.803 C209.926,129.18 209.029,129.521 208.123,129.834 L205.809,122.711 C208.799,121.664 211.608,120.231 214.174,118.469 Z M173.825,118.468 C176.391,120.23 179.2,121.663 182.19,122.71 L179.876,129.833 C178.971,129.521 178.073,129.179 177.186,128.802 C174.442,127.643 171.849,126.213 169.422,124.529 L173.825,118.468 Z M165.736,110.828 C167.658,113.314 169.901,115.539 172.402,117.441 L168,123.502 C166.404,122.295 164.887,120.977 163.455,119.545 C162.092,118.184 160.833,116.742 159.675,115.232 L165.736,110.828 Z M222.264,110.828 L228.325,115.23 C227.166,116.742 225.906,118.184 224.545,119.545 C223.113,120.977 221.596,122.295 220,123.502 L215.598,117.441 C218.1,115.539 220.342,113.314 222.264,110.828 Z M200.166,111.026 L202.158,117.159 C199.814,117.835 197.373,118.22 194.877,118.292 L194.877,111.848 C196.703,111.78 198.475,111.498 200.166,111.026 Z M187.834,111.025 C189.525,111.498 191.296,111.779 193.121,111.847 L193.121,118.29 C190.626,118.218 188.184,117.833 185.841,117.157 L187.834,111.025 Z M206.619,108.07 L210.41,113.289 C208.357,114.682 206.15,115.799 203.83,116.623 L201.838,110.488 C203.535,109.869 205.137,109.052 206.619,108.07 Z M181.381,108.07 C182.863,109.053 184.465,109.869 186.163,110.488 L184.17,116.623 C181.85,115.799 179.643,114.682 177.59,113.289 L181.381,108.07 Z M227.622,101.057 L234.747,103.371 C234.456,104.191 234.143,105.008 233.802,105.814 C232.605,108.648 231.119,111.322 229.365,113.816 L223.304,109.414 C225.091,106.853 226.55,104.047 227.622,101.057 Z M160.375,101.057 C161.448,104.047 162.908,106.854 164.695,109.414 L158.634,113.816 C156.879,111.322 155.394,108.648 154.195,105.814 C153.855,105.008 153.542,104.191 153.252,103.371 L160.375,101.057 Z M211.865,103.274 L217.08,107.063 C216.354,107.988 215.566,108.877 214.723,109.723 C213.807,110.637 212.842,111.483 211.832,112.26 L208.045,107.045 C209.461,105.941 210.742,104.674 211.865,103.274 Z M176.135,103.273 C177.256,104.673 178.538,105.941 179.955,107.044 L176.167,112.259 C175.158,111.482 174.192,110.636 173.277,109.722 C172.432,108.877 171.646,107.988 170.918,107.062 L176.135,103.273 Z M193.999,70.86 C196.325426,70.86 197.752383,77.2329054 196.989848,78.2662955 L196.937,78.326 L196.937,81.833 C198.763667,82.5825238 200.234778,84.0014354 201.048854,85.7908469 L201.166,86.062 L204.672,86.062 C205.486,85.184 212.139,86.623 212.139,89 C212.139,91.3264255 205.766095,92.7533834 204.731767,91.990848 L204.672,91.938 L201.166,91.938 C200.417429,93.7646667 198.998562,95.2357778 197.208289,96.049854 L196.937,96.167 L196.937,99.673 C197.814,100.487 196.376,107.14 193.999,107.14 C191.672574,107.14 190.244659,100.767095 191.008091,99.732767 L191.061,99.673 L191.061,96.167 C189.235286,95.4184286 187.76422,93.9995624 186.949282,92.2092892 L186.832,91.938 L183.325,91.938 C182.512,92.815 175.859,91.377 175.859,89 C175.859,86.6735745 182.231905,85.2456587 183.265296,86.0090908 L183.325,86.062 L186.832,86.062 C187.581524,84.2362857 189.000435,82.76522 190.789847,81.950282 L191.061,81.833 L191.061,78.326 C190.183,77.513 191.622,70.86 193.999,70.86 Z M172.605,97.084 C173.247,98.781 174.084,100.383 175.091,101.861 L169.876,105.65 C168.457,103.603 167.314,101.396 166.466,99.078 L172.605,97.084 Z M215.395,97.084 L221.534,99.078 C220.686,101.396 219.544,103.603 218.124,105.65 L212.909,101.861 C213.916,100.383 214.754,98.781 215.395,97.084 Z M237.183,90.086 C237.087,94.063 236.454,97.951 235.3,101.705 L228.175,99.389 C229.072,96.432 229.598,93.312 229.695,90.086 L237.183,90.086 Z M158.305,90.086 C158.402,93.313 158.926,96.432 159.825,99.389 L152.699,101.705 C151.545,97.953 150.913,94.062 150.816,90.086 L158.305,90.086 Z M171.159,90.086 C171.246,91.93 171.551,93.715 172.048,95.418 L165.914,97.41 C165.213,95.055 164.808,92.598 164.717,90.086 L171.159,90.086 Z M223.283,90.086 C223.193,92.598 222.787,95.055 222.086,97.41 L215.953,95.418 C216.449,93.715 216.754,91.93 216.84,90.086 L223.283,90.086 Z M194,85.755 C192.211,85.755 190.756,87.21 190.756,88.999 C190.756,90.789 192.211,92.244 194,92.244 C195.79,92.244 197.245,90.789 197.245,88.999 C197.244,87.21 195.789,85.755 194,85.755 Z M235.412,76.676 C236.533,80.443 237.129,84.344 237.189,88.331 L229.703,88.331 C229.644,85.094 229.154,81.963 228.289,78.991 L235.412,76.676 Z M152.586,76.676 L159.711,78.991 C158.845,81.962 158.355,85.093 158.295,88.331 L150.81,88.331 C150.871,84.344 151.466,80.442 152.586,76.676 Z M222.195,80.971 C222.867,83.341 223.24,85.809 223.297,88.331 L216.855,88.331 C216.802,86.478 216.529,84.681 216.06,82.964 L222.195,80.971 Z M165.804,80.97 L171.94,82.963 C171.471,84.68 171.197,86.478 171.143,88.33 L164.703,88.33 C164.759,85.808 165.133,83.34 165.804,80.97 Z M169.685,72.628 L174.904,76.42 C173.908,77.927 173.086,79.56 172.467,81.289 L166.333,79.296 C167.155,76.945 168.279,74.706 169.685,72.628 Z M218.314,72.629 C219.72,74.707 220.843,76.945 221.666,79.296 L215.533,81.289 C214.912,79.56 214.092,77.928 213.095,76.42 L218.314,72.629 Z M229.557,64.46 C231.227,66.875 232.649,69.456 233.803,72.186 C234.195,73.115 234.553,74.054 234.879,75.002 L227.756,77.316 C226.709,74.294 225.27,71.456 223.496,68.863 L229.557,64.46 Z M158.443,64.46 L164.504,68.862 C162.731,71.456 161.291,74.294 160.244,77.316 L153.122,75.002 C153.447,74.054 153.804,73.114 154.196,72.186 C155.351,69.457 156.773,66.875 158.443,64.46 Z M212.027,65.89 C212.965,66.625 213.865,67.421 214.722,68.278 C215.648,69.204 216.504,70.182 217.287,71.204 L212.074,74.992 C210.953,73.55 209.664,72.244 208.236,71.106 L212.027,65.89 Z M175.972,65.89 L179.763,71.106 C178.334,72.244 177.045,73.549 175.926,74.992 L170.712,71.204 C171.497,70.182 172.351,69.204 173.278,68.278 C174.134,67.422 175.034,66.625 175.972,65.89 Z M203.951,61.42 C206.303,62.267 208.539,63.417 210.611,64.85 L206.822,70.065 C205.32,69.044 203.688,68.2 201.957,67.557 L203.951,61.42 Z M184.049,61.42 L186.042,67.557 C184.313,68.2 182.681,69.044 181.177,70.065 L177.389,64.85 C179.461,63.417 181.697,62.267 184.049,61.42 Z M220.194,54.648 C221.717,55.813 223.171,57.082 224.544,58.455 C225.988,59.897 227.316,61.427 228.529,63.036 L222.468,67.439 C220.55,64.911 218.304,62.646 215.792,60.708 L220.194,54.648 Z M167.805,54.648 L172.208,60.708 C169.695,62.646 167.449,64.911 165.531,67.439 L159.47,63.036 C160.683,61.427 162.012,59.897 163.455,58.455 C164.828,57.082 166.281,55.813 167.805,54.648 Z M194.877,59.709 C197.416,59.783 199.9,60.18 202.281,60.878 L200.289,67.009 C198.56,66.516 196.748,66.222 194.877,66.152 L194.877,59.709 Z M193.122,59.708 L193.122,66.152 C191.252,66.222 189.439,66.516 187.711,67.009 L185.718,60.877 C188.1,60.179 190.583,59.782 193.122,59.708 Z M208.244,48.209 C209.109,48.511 209.967,48.838 210.814,49.196 C213.633,50.389 216.295,51.866 218.779,53.609 L214.375,59.67 C211.789,57.87 208.953,56.403 205.93,55.332 L208.244,48.209 Z M179.755,48.208 L182.068,55.331 C179.046,56.402 176.21,57.869 173.624,59.669 L169.22,53.608 C171.704,51.865 174.366,50.388 177.186,49.195 C178.034,48.837 178.891,48.51 179.755,48.208 Z M194.877,45.813 C198.881,45.892 202.797,46.511 206.576,47.662 L204.262,54.787 C201.277,53.893 198.133,53.376 194.877,53.298 L194.877,45.813 Z M193.122,45.812 L193.122,53.298 C189.867,53.376 186.722,53.893 183.739,54.786 L181.424,47.661 C185.202,46.511 189.119,45.891 193.122,45.812 Z"></path>
        </g>
    </g>
</svg>