<svg width="89px" height="88px" viewBox="0 0 89 88" version="1.1" xmlns="http://www.w3.org/2000/svg" xmlns:xlink="http://www.w3.org/1999/xlink">
    <g stroke="none" stroke-width="1" fill="none" fill-rule="evenodd">
        <g transform="translate(-148.000000, -45.000000)" fill="#FFFFFF" fill-rule="nonzero">
            <path d="M192.43,45 C198.505,45 204.293,46.223 209.567,48.43 C209.715,52.407 211.597,56.282 215.046,58.831 C218.491,61.376 222.743,62.04 226.585,61.02 C232.998,68.722 236.86,78.624 236.859,89.431 C236.859,90.697 236.793,91.947 236.689,93.186 C232.958,94.548 229.854,97.526 228.487,101.583 C227.12,105.64 227.79,109.888 229.937,113.233 C223.876,122.763 214.291,129.824 203.012,132.583 C200.528,129.475 196.714,127.481 192.429,127.481 C188.144,127.481 184.329,129.476 181.846,132.582 C170.366,129.776 160.637,122.515 154.597,112.728 C156.793,109.411 157.522,105.169 156.21,101.09 C154.898,97.016 151.836,93.997 148.124,92.583 C148.051,91.541 148,90.492 148,89.431 C148,78.406 152.024,68.327 158.672,60.559 C162.498,61.629 166.755,61.022 170.232,58.524 C173.712,56.025 175.646,52.18 175.852,48.209 C180.976,46.146 186.568,45 192.43,45 Z M199.37,99.159 C193.763,103.203 192.494,111.024 196.538,116.632 C200.581,122.24 208.404,123.508 214.011,119.466 C219.618,115.422 220.887,107.599 216.844,101.992 C212.8,96.384 204.978,95.116 199.37,99.159 Z M167.896,101.845 C163.819,107.428 165.04,115.257 170.623,119.334 C176.206,123.412 184.036,122.19 188.112,116.608 C192.189,111.023 190.969,103.195 185.386,99.118 C179.803,95.041 171.974,96.261 167.896,101.845 Z M192.406,83.73 C189.218,83.73 186.634,86.313 186.634,89.501 C186.634,92.689 189.218,95.274 192.406,95.274 C195.595,95.274 198.179,92.689 198.178,89.501 C198.178,86.314 195.594,83.73 192.406,83.73 Z M211.861,70.144 C205.275,72.249 201.645,79.292 203.749,85.877 C205.853,92.462 212.895,96.093 219.482,93.989 C226.067,91.885 229.697,84.842 227.593,78.257 C225.489,71.672 218.446,68.04 211.861,70.144 Z M157.289,78.045 C155.144,84.617 158.733,91.682 165.306,93.826 C171.879,95.971 178.943,92.382 181.087,85.809 C183.231,79.237 179.643,72.173 173.07,70.028 C166.497,67.883 159.433,71.473 157.289,78.045 Z M212.581,72.398 C217.921,70.692 223.633,73.637 225.338,78.977 C227.045,84.317 224.1,90.028 218.761,91.736 C213.419,93.442 207.709,90.496 206.002,85.157 C204.296,79.816 207.24,74.105 212.581,72.398 Z M215.672,76.214 C215.071,76.214 214.471,76.308 213.89,76.494 C210.818,77.476 209.118,80.775 210.099,83.847 C210.877,86.282 213.114,87.918 215.668,87.918 C216.271,87.918 216.871,87.824 217.451,87.638 C218.937,87.163 220.15,86.136 220.868,84.746 C221.584,83.356 221.718,81.772 221.243,80.286 C220.465,77.85 218.226,76.214 215.672,76.214 Z M215.672,78.345 C217.295,78.345 218.718,79.386 219.214,80.934 C219.515,81.878 219.431,82.886 218.974,83.77 C218.518,84.653 217.747,85.306 216.803,85.608 C216.433,85.727 216.051,85.787 215.668,85.787 C214.046,85.787 212.623,84.747 212.128,83.199 C211.504,81.245 212.585,79.148 214.539,78.523 C214.909,78.405 215.29,78.345 215.672,78.345 Z M192.406,52.562 C185.494,52.562 179.89,58.165 179.889,65.078 C179.889,71.992 185.493,77.595 192.406,77.595 C199.319,77.595 204.923,71.992 204.923,65.078 C204.923,58.165 199.319,52.562 192.406,52.562 Z"></path>
        </g>
    </g>
</svg>