<svg width="143px" height="140px" viewBox="0 0 143 140" version="1.1" xmlns="http://www.w3.org/2000/svg" xmlns:xlink="http://www.w3.org/1999/xlink">
    <defs>
        <path d="M44.43,6.39488462e-14 C50.505,6.39488462e-14 56.293,1.223 61.567,3.43 C61.715,7.407 63.597,11.282 67.046,13.831 C70.491,16.376 74.743,17.04 78.585,16.02 C84.998,23.722 88.86,33.624 88.8590002,44.431 C88.8590002,45.697 88.793,46.947 88.689,48.186 C84.958,49.548 81.854,52.526 80.487,56.583 C79.12,60.64 79.79,64.888 81.937,68.233 C75.876,77.763 66.291,84.824 55.012,87.583 C52.528,84.475 48.714,82.481 44.429,82.481 C40.144,82.481 36.329,84.476 33.846,87.582 C22.366,84.776 12.637,77.515 6.597,67.728 C8.793,64.411 9.522,60.169 8.21,56.09 C6.898,52.016 3.836,48.997 0.124,47.583 C0.051,46.541 -4.54747351e-13,45.492 -4.54747351e-13,44.431 C-4.54747351e-13,33.406 4.024,23.327 10.672,15.559 C14.498,16.629 18.755,16.022 22.232,13.524 C25.712,11.025 27.646,7.18 27.852,3.209 C32.976,1.146 38.568,6.39488462e-14 44.43,6.39488462e-14 Z M51.37,54.159 C45.763,58.203 44.494,66.024 48.538,71.632 C52.581,77.24 60.404,78.508 66.011,74.466 C71.618,70.422 72.887,62.599 68.844,56.992 C64.8,51.384 56.978,50.116 51.37,54.159 Z M19.896,56.845 C15.819,62.428 17.04,70.257 22.623,74.334 C28.206,78.412 36.036,77.19 40.112,71.608 C44.189,66.023 42.969,58.195 37.386,54.118 C31.803,50.041 23.974,51.261 19.896,56.845 Z M44.406,38.73 C41.218,38.73 38.634,41.313 38.634,44.501 C38.634,47.689 41.218,50.274 44.406,50.274 C47.595,50.274 50.179,47.689 50.1780003,44.501 C50.1780003,41.314 47.594,38.73 44.406,38.73 Z M63.861,25.144 C57.275,27.249 53.645,34.292 55.749,40.877 C57.853,47.462 64.895,51.093 71.482,48.989 C78.067,46.885 81.697,39.842 79.593,33.257 C77.489,26.672 70.446,23.04 63.861,25.144 Z M9.289,33.045 C7.144,39.617 10.733,46.682 17.306,48.826 C23.879,50.971 30.943,47.382 33.087,40.809 C35.231,34.237 31.643,27.173 25.07,25.028 C18.497,22.883 11.433,26.473 9.289,33.045 Z M64.581,27.398 C69.921,25.692 75.633,28.637 77.338,33.977 C79.045,39.317 76.1,45.028 70.761,46.736 C65.419,48.442 59.709,45.496 58.002,40.157 C56.296,34.816 59.24,29.105 64.581,27.398 Z M67.672,31.214 C67.071,31.214 66.471,31.308 65.89,31.494 C62.818,32.476 61.118,35.775 62.099,38.847 C62.877,41.282 65.114,42.918 67.668,42.918 C68.271,42.918 68.871,42.824 69.451,42.638 C70.937,42.163 72.15,41.136 72.868,39.746 C73.584,38.356 73.718,36.772 73.243,35.286 C72.465,32.85 70.226,31.214 67.672,31.214 Z M67.672,33.345 C69.295,33.345 70.718,34.386 71.214,35.934 C71.515,36.878 71.431,37.886 70.974,38.77 C70.518,39.653 69.747,40.306 68.803,40.608 C68.433,40.727 68.051,40.787 67.668,40.787 C66.046,40.787 64.623,39.747 64.128,38.199 C63.504,36.245 64.585,34.148 66.539,33.523 C66.909,33.405 67.29,33.345 67.672,33.345 Z M44.406,7.562 C37.494,7.562 31.89,13.165 31.889,20.078 C31.889,26.992 37.493,32.595 44.406,32.595 C51.319,32.595 56.923,26.992 56.923,20.078 C56.923,13.165 51.319,7.562 44.406,7.562 Z" id="russianRoulette-path-1"></path>
        <filter x="-40.5%" y="-38.8%" width="181.0%" height="182.5%" filterUnits="objectBoundingBox" id="russianRoulette-filter-2">
            <feGaussianBlur stdDeviation="10" in="SourceGraphic"></feGaussianBlur>
        </filter>
        <filter x="-43.9%" y="-42.2%" width="187.8%" height="189.3%" filterUnits="objectBoundingBox" id="russianRoulette-filter-3">
            <feMorphology radius="2" operator="dilate" in="SourceAlpha" result="shadowSpreadOuter1"></feMorphology>
            <feOffset dx="0" dy="2" in="shadowSpreadOuter1" result="shadowOffsetOuter1"></feOffset>
            <feMorphology radius="1" operator="erode" in="SourceAlpha" result="shadowInner"></feMorphology>
            <feOffset dx="0" dy="2" in="shadowInner" result="shadowInner"></feOffset>
            <feComposite in="shadowOffsetOuter1" in2="shadowInner" operator="out" result="shadowOffsetOuter1"></feComposite>
            <feGaussianBlur stdDeviation="2" in="shadowOffsetOuter1" result="shadowBlurOuter1"></feGaussianBlur>
            <feColorMatrix values="0 0 0 0 0   0 0 0 0 0   0 0 0 0 0  0 0 0 0.5 0" type="matrix" in="shadowBlurOuter1"></feColorMatrix>
        </filter>
        <path d="M44.43,6.39488462e-14 C50.505,6.39488462e-14 56.293,1.223 61.567,3.43 C61.715,7.407 63.597,11.282 67.046,13.831 C70.491,16.376 74.743,17.04 78.585,16.02 C84.998,23.722 88.86,33.624 88.8590002,44.431 C88.8590002,45.697 88.793,46.947 88.689,48.186 C84.958,49.548 81.854,52.526 80.487,56.583 C79.12,60.64 79.79,64.888 81.937,68.233 C75.876,77.763 66.291,84.824 55.012,87.583 C52.528,84.475 48.714,82.481 44.429,82.481 C40.144,82.481 36.329,84.476 33.846,87.582 C22.366,84.776 12.637,77.515 6.597,67.728 C8.793,64.411 9.522,60.169 8.21,56.09 C6.898,52.016 3.836,48.997 0.124,47.583 C0.051,46.541 -4.54747351e-13,45.492 -4.54747351e-13,44.431 C-4.54747351e-13,33.406 4.024,23.327 10.672,15.559 C14.498,16.629 18.755,16.022 22.232,13.524 C25.712,11.025 27.646,7.18 27.852,3.209 C32.976,1.146 38.568,6.39488462e-14 44.43,6.39488462e-14 Z M51.37,54.159 C45.763,58.203 44.494,66.024 48.538,71.632 C52.581,77.24 60.404,78.508 66.011,74.466 C71.618,70.422 72.887,62.599 68.844,56.992 C64.8,51.384 56.978,50.116 51.37,54.159 Z M19.896,56.845 C15.819,62.428 17.04,70.257 22.623,74.334 C28.206,78.412 36.036,77.19 40.112,71.608 C44.189,66.023 42.969,58.195 37.386,54.118 C31.803,50.041 23.974,51.261 19.896,56.845 Z M44.406,38.73 C41.218,38.73 38.634,41.313 38.634,44.501 C38.634,47.689 41.218,50.274 44.406,50.274 C47.595,50.274 50.179,47.689 50.1780003,44.501 C50.1780003,41.314 47.594,38.73 44.406,38.73 Z M63.861,25.144 C57.275,27.249 53.645,34.292 55.749,40.877 C57.853,47.462 64.895,51.093 71.482,48.989 C78.067,46.885 81.697,39.842 79.593,33.257 C77.489,26.672 70.446,23.04 63.861,25.144 Z M9.289,33.045 C7.144,39.617 10.733,46.682 17.306,48.826 C23.879,50.971 30.943,47.382 33.087,40.809 C35.231,34.237 31.643,27.173 25.07,25.028 C18.497,22.883 11.433,26.473 9.289,33.045 Z M64.581,27.398 C69.921,25.692 75.633,28.637 77.338,33.977 C79.045,39.317 76.1,45.028 70.761,46.736 C65.419,48.442 59.709,45.496 58.002,40.157 C56.296,34.816 59.24,29.105 64.581,27.398 Z M67.672,31.214 C67.071,31.214 66.471,31.308 65.89,31.494 C62.818,32.476 61.118,35.775 62.099,38.847 C62.877,41.282 65.114,42.918 67.668,42.918 C68.271,42.918 68.871,42.824 69.451,42.638 C70.937,42.163 72.15,41.136 72.868,39.746 C73.584,38.356 73.718,36.772 73.243,35.286 C72.465,32.85 70.226,31.214 67.672,31.214 Z M67.672,33.345 C69.295,33.345 70.718,34.386 71.214,35.934 C71.515,36.878 71.431,37.886 70.974,38.77 C70.518,39.653 69.747,40.306 68.803,40.608 C68.433,40.727 68.051,40.787 67.668,40.787 C66.046,40.787 64.623,39.747 64.128,38.199 C63.504,36.245 64.585,34.148 66.539,33.523 C66.909,33.405 67.29,33.345 67.672,33.345 Z M44.406,7.562 C37.494,7.562 31.89,13.165 31.889,20.078 C31.889,26.992 37.493,32.595 44.406,32.595 C51.319,32.595 56.923,26.992 56.923,20.078 C56.923,13.165 51.319,7.562 44.406,7.562 Z" id="russianRoulette-path-4"></path>
        <filter x="-10.1%" y="-8.0%" width="120.3%" height="120.8%" filterUnits="objectBoundingBox" id="russianRoulette-filter-5">
            <feMorphology radius="2" operator="dilate" in="SourceAlpha" result="shadowSpreadOuter1"></feMorphology>
            <feOffset dx="0" dy="2" in="shadowSpreadOuter1" result="shadowOffsetOuter1"></feOffset>
            <feMorphology radius="1" operator="erode" in="SourceAlpha" result="shadowInner"></feMorphology>
            <feOffset dx="0" dy="2" in="shadowInner" result="shadowInner"></feOffset>
            <feComposite in="shadowOffsetOuter1" in2="shadowInner" operator="out" result="shadowOffsetOuter1"></feComposite>
            <feGaussianBlur stdDeviation="2" in="shadowOffsetOuter1" result="shadowBlurOuter1"></feGaussianBlur>
            <feColorMatrix values="0 0 0 0 0   0 0 0 0 0   0 0 0 0 0  0 0 0 0.5 0" type="matrix" in="shadowBlurOuter1"></feColorMatrix>
        </filter>
    </defs>
    <g stroke="none" stroke-width="1" fill="none" fill-rule="evenodd">
        <g transform="translate(-121.000000, -19.000000)" fill-rule="nonzero">
            <g transform="translate(148.000000, 45.000000)">
                <g filter="url(#russianRoulette-filter-2)">
                    <use fill="black" fill-opacity="1" filter="url(#russianRoulette-filter-3)" xlink:href="#russianRoulette-path-1"></use>
                    <path stroke="#F6C860" stroke-width="2" d="M44.43,-1 C50.5194409,-1 56.4455033,0.202790349 61.9530308,2.5075141 L62.5425432,2.75420617 L62.5663083,3.39281176 C62.7076398,7.1906188 64.5326253,10.7300146 67.6401941,13.0266783 C70.7446544,15.320104 74.6597633,16.0274567 78.3284022,15.0534817 L78.9451641,14.8897396 L79.3534829,15.3801297 C86.1019391,23.4850119 89.8599957,33.6705255 89.8590002,44.431 C89.8590002,45.6520109 89.7997592,46.9083707 89.6854957,48.2696445 L89.6320569,48.9062849 L89.0319153,49.1253663 C85.4699313,50.4256671 82.6666036,53.2461034 81.4346505,56.9023094 C80.2028596,60.5580342 80.7283361,64.4986124 82.7785625,67.6928402 L83.1236806,68.2305301 L82.7808036,68.769652 C76.5071833,78.6339651 66.6476908,85.7662318 55.2496084,88.554361 L54.6294404,88.7060627 L54.230837,88.2073272 C51.8591575,85.2398634 48.290618,83.481 44.429,83.481 C40.5680077,83.481 36.9982212,85.2403558 34.6270896,88.206419 L34.2285575,88.7049452 L33.6085647,88.5534033 C22.0018709,85.7164362 11.9948171,78.3785255 5.74601112,68.2531837 L5.41022657,67.7090904 L5.76317499,67.1759711 C7.85991312,64.0089036 8.44047308,60.0723996 7.25814175,56.3965385 C6.07571948,52.7249011 3.31202953,49.8675015 -0.23197439,48.5174957 L-0.828912901,48.2901059 L-0.873554964,47.6528863 C-0.957071904,46.4607678 -1,45.4302482 -1,44.431 C-1,33.4582814 2.91290802,23.0873179 9.91224654,14.9087887 L10.327011,14.4241482 L10.9413311,14.5959524 C14.5947283,15.6176813 18.5154486,14.962782 21.6487103,12.7117358 C24.7839142,10.4603351 26.6565866,6.95000388 26.8533429,3.15719356 L26.8864107,2.51975392 L27.478519,2.28136218 C32.835687,0.124485204 38.5601042,-1 44.43,-1 Z M51.9548857,54.9701157 C46.795273,58.6915088 45.6285625,65.8876527 49.3491748,71.0471962 C53.068964,76.2068742 60.2668895,77.37409 65.4260324,73.6549433 C70.5854527,69.9337563 71.7526565,62.7356201 68.0328938,57.576899 C64.3119555,52.4169034 57.1149704,51.2501005 51.9548857,54.9701157 Z M20.7035713,57.43477 L20.7035899,57.4347445 C16.9523774,62.5716146 18.0756537,69.7750364 23.2128389,73.526479 C28.3491836,77.2782279 35.5536607,76.1548314 39.3043096,71.0183932 C43.0557732,65.8793389 41.933214,58.676867 36.7962555,54.9255899 C31.6590025,51.1740978 24.4556658,52.2970319 20.7035713,57.43477 Z M44.406,39.73 C41.7700404,39.73 39.634,41.8655291 39.634,44.501 C39.634,47.1369596 41.770529,49.274 44.406,49.274 C47.0424187,49.274 49.1788269,47.1370805 49.1780003,44.501 C49.1780003,41.866157 47.0415875,39.73 44.406,39.73 Z M64.1654004,26.0965442 C58.1060767,28.0332359 54.7654465,34.5130924 56.7015584,40.5726442 C58.6374763,46.6315887 65.1167889,49.972382 71.1776442,48.0364416 C77.2360081,46.1007092 80.5765271,39.620825 78.6404416,33.5613558 C76.7045491,27.5024908 70.2243408,24.1606542 64.1654004,26.0965442 Z M10.239689,33.3551457 L10.2396464,33.3552764 C8.26601558,39.4022236 11.5682719,45.9025981 17.6162337,47.8753397 C23.6639816,49.8489315 30.1635247,46.5469531 32.136311,40.4988543 C34.1091161,34.4516176 30.8075121,27.9522515 24.7597663,25.9786603 C18.71244,24.0052061 12.2125862,27.3076268 10.239689,33.3551457 Z M64.2765673,26.4454662 L64.2766774,26.445431 C70.1430876,24.5712557 76.4176994,27.8069157 78.2905173,33.6725155 C80.1655229,39.5380868 76.9310439,45.8120656 71.0652192,47.688602 C65.1979298,49.5623564 58.9248724,46.3271584 57.0494145,40.4612709 C55.1752982,34.5939469 58.4098492,28.3204873 64.2765673,26.4454662 Z M67.672,32.214 C67.1741052,32.214 66.6769697,32.2920557 66.1944832,32.4465177 C63.6488744,33.2602507 62.238438,35.9963587 63.0515603,38.5426501 C63.697331,40.5637961 65.5496029,41.918 67.668,41.918 C68.1677083,41.918 68.6646748,41.8400036 69.1465266,41.6854791 C70.3796522,41.2913105 71.3828779,40.4421438 71.9790097,39.288074 C72.5741206,38.132761 72.68443,36.8229176 72.2904035,35.5902365 C71.6448137,33.5688267 69.7910651,32.214 67.672,32.214 Z M67.672,32.345 C69.7296907,32.345 71.5376462,33.6668285 72.16674,35.6302132 C72.5487155,36.8281696 72.4406249,38.1105783 71.8625148,39.228848 C71.2849976,40.3471543 70.3040646,41.1777131 69.1091757,41.559975 C68.6410079,41.7105479 68.1557451,41.787 67.668,41.787 C65.610662,41.787 63.8028664,40.4654843 63.1753949,38.5032096 C62.3834119,36.0231861 63.7545766,33.3637078 66.2351587,32.5702773 C66.7032298,32.4210006 67.1866959,32.345 67.672,32.345 Z M44.406,8.562 C38.0460452,8.562 32.8899201,13.717556 32.889,20.078 C32.889,26.4393575 38.044927,31.595 44.406,31.595 C50.767073,31.595 55.923,26.4393575 55.923,20.078 C55.923,13.7175002 50.7669307,8.562 44.406,8.562 Z"></path>
                </g>
                <g>
                    <use fill="black" fill-opacity="1" filter="url(#russianRoulette-filter-5)" xlink:href="#russianRoulette-path-4"></use>
                    <path stroke="#F6C860" stroke-width="2" d="M44.43,-1 C50.5194409,-1 56.4455033,0.202790349 61.9530308,2.5075141 L62.5425432,2.75420617 L62.5663083,3.39281176 C62.7076398,7.1906188 64.5326253,10.7300146 67.6401941,13.0266783 C70.7446544,15.320104 74.6597633,16.0274567 78.3284022,15.0534817 L78.9451641,14.8897396 L79.3534829,15.3801297 C86.1019391,23.4850119 89.8599957,33.6705255 89.8590002,44.431 C89.8590002,45.6520109 89.7997592,46.9083707 89.6854957,48.2696445 L89.6320569,48.9062849 L89.0319153,49.1253663 C85.4699313,50.4256671 82.6666036,53.2461034 81.4346505,56.9023094 C80.2028596,60.5580342 80.7283361,64.4986124 82.7785625,67.6928402 L83.1236806,68.2305301 L82.7808036,68.769652 C76.5071833,78.6339651 66.6476908,85.7662318 55.2496084,88.554361 L54.6294404,88.7060627 L54.230837,88.2073272 C51.8591575,85.2398634 48.290618,83.481 44.429,83.481 C40.5680077,83.481 36.9982212,85.2403558 34.6270896,88.206419 L34.2285575,88.7049452 L33.6085647,88.5534033 C22.0018709,85.7164362 11.9948171,78.3785255 5.74601112,68.2531837 L5.41022657,67.7090904 L5.76317499,67.1759711 C7.85991312,64.0089036 8.44047308,60.0723996 7.25814175,56.3965385 C6.07571948,52.7249011 3.31202953,49.8675015 -0.23197439,48.5174957 L-0.828912901,48.2901059 L-0.873554964,47.6528863 C-0.957071904,46.4607678 -1,45.4302482 -1,44.431 C-1,33.4582814 2.91290802,23.0873179 9.91224654,14.9087887 L10.327011,14.4241482 L10.9413311,14.5959524 C14.5947283,15.6176813 18.5154486,14.962782 21.6487103,12.7117358 C24.7839142,10.4603351 26.6565866,6.95000388 26.8533429,3.15719356 L26.8864107,2.51975392 L27.478519,2.28136218 C32.835687,0.124485204 38.5601042,-1 44.43,-1 Z M51.9548857,54.9701157 C46.795273,58.6915088 45.6285625,65.8876527 49.3491748,71.0471962 C53.068964,76.2068742 60.2668895,77.37409 65.4260324,73.6549433 C70.5854527,69.9337563 71.7526565,62.7356201 68.0328938,57.576899 C64.3119555,52.4169034 57.1149704,51.2501005 51.9548857,54.9701157 Z M20.7035713,57.43477 L20.7035899,57.4347445 C16.9523774,62.5716146 18.0756537,69.7750364 23.2128389,73.526479 C28.3491836,77.2782279 35.5536607,76.1548314 39.3043096,71.0183932 C43.0557732,65.8793389 41.933214,58.676867 36.7962555,54.9255899 C31.6590025,51.1740978 24.4556658,52.2970319 20.7035713,57.43477 Z M44.406,39.73 C41.7700404,39.73 39.634,41.8655291 39.634,44.501 C39.634,47.1369596 41.770529,49.274 44.406,49.274 C47.0424187,49.274 49.1788269,47.1370805 49.1780003,44.501 C49.1780003,41.866157 47.0415875,39.73 44.406,39.73 Z M64.1654004,26.0965442 C58.1060767,28.0332359 54.7654465,34.5130924 56.7015584,40.5726442 C58.6374763,46.6315887 65.1167889,49.972382 71.1776442,48.0364416 C77.2360081,46.1007092 80.5765271,39.620825 78.6404416,33.5613558 C76.7045491,27.5024908 70.2243408,24.1606542 64.1654004,26.0965442 Z M10.239689,33.3551457 L10.2396464,33.3552764 C8.26601558,39.4022236 11.5682719,45.9025981 17.6162337,47.8753397 C23.6639816,49.8489315 30.1635247,46.5469531 32.136311,40.4988543 C34.1091161,34.4516176 30.8075121,27.9522515 24.7597663,25.9786603 C18.71244,24.0052061 12.2125862,27.3076268 10.239689,33.3551457 Z M64.2765673,26.4454662 L64.2766774,26.445431 C70.1430876,24.5712557 76.4176994,27.8069157 78.2905173,33.6725155 C80.1655229,39.5380868 76.9310439,45.8120656 71.0652192,47.688602 C65.1979298,49.5623564 58.9248724,46.3271584 57.0494145,40.4612709 C55.1752982,34.5939469 58.4098492,28.3204873 64.2765673,26.4454662 Z M67.672,32.214 C67.1741052,32.214 66.6769697,32.2920557 66.1944832,32.4465177 C63.6488744,33.2602507 62.238438,35.9963587 63.0515603,38.5426501 C63.697331,40.5637961 65.5496029,41.918 67.668,41.918 C68.1677083,41.918 68.6646748,41.8400036 69.1465266,41.6854791 C70.3796522,41.2913105 71.3828779,40.4421438 71.9790097,39.288074 C72.5741206,38.132761 72.68443,36.8229176 72.2904035,35.5902365 C71.6448137,33.5688267 69.7910651,32.214 67.672,32.214 Z M67.672,32.345 C69.7296907,32.345 71.5376462,33.6668285 72.16674,35.6302132 C72.5487155,36.8281696 72.4406249,38.1105783 71.8625148,39.228848 C71.2849976,40.3471543 70.3040646,41.1777131 69.1091757,41.559975 C68.6410079,41.7105479 68.1557451,41.787 67.668,41.787 C65.610662,41.787 63.8028664,40.4654843 63.1753949,38.5032096 C62.3834119,36.0231861 63.7545766,33.3637078 66.2351587,32.5702773 C66.7032298,32.4210006 67.1866959,32.345 67.672,32.345 Z M44.406,8.562 C38.0460452,8.562 32.8899201,13.717556 32.889,20.078 C32.889,26.4393575 38.044927,31.595 44.406,31.595 C50.767073,31.595 55.923,26.4393575 55.923,20.078 C55.923,13.7175002 50.7669307,8.562 44.406,8.562 Z"></path>
                </g>
            </g>
        </g>
    </g>
</svg>