<svg width="84px" height="55px" viewBox="0 0 84 55" version="1.1" xmlns="http://www.w3.org/2000/svg" xmlns:xlink="http://www.w3.org/1999/xlink">
    <g stroke="none" stroke-width="1" fill="none" fill-rule="evenodd">
        <g transform="translate(-149.000000, -72.000000)" fill="#FFFFFF">
            <path d="M211.815,77.1975 C219.121,77.1975 225.022,83.7315 225.022,91.4535 C225.022,96.2055 222.774,100.9575 218.84,103.3335 C226.427,105.7095 231.766,111.3525 232.609,119.9655 C232.89,120.8565 232.328,121.7475 231.204,121.7475 L219.964,121.7475 C218.559,116.1045 215.749,111.0555 211.253,107.1945 C209.567,105.7095 207.6,104.5215 205.352,103.3335 C208.724,99.7695 210.691,94.7205 210.691,89.3745 C210.691,85.2165 209.567,81.3555 207.6,78.0885 C209.005,77.4945 210.41,77.1975 211.815,77.1975 Z M169.865608,77.225 C162.559608,77.225 156.658608,83.759 156.658608,91.481 C156.658608,96.233 158.906608,100.985 162.840608,103.361 C155.253608,105.737 149.914608,111.38 149.071608,119.993 C148.790608,120.884 149.352608,121.775 150.476608,121.775 L161.716608,121.775 C163.121608,116.132 165.931608,111.083 170.427608,107.222 C172.113608,105.737 174.080608,104.549 176.328608,103.361 C172.956608,99.797 170.989608,94.748 170.989608,89.402 C170.989608,85.244 172.113608,81.383 174.080608,78.116 C172.675608,77.522 171.270608,77.225 169.865608,77.225 Z M191.016304,72 C200.008304,72 207.314304,79.722 207.314304,89.226 C207.314304,95.463 203.942304,101.403 198.884304,104.373 C202.537304,105.264 205.909304,107.046 208.719304,109.422 C212.934304,112.986 216.025304,118.035 216.868304,124.866 C216.868304,126.054 216.306304,126.945 215.463304,126.945 L166.569304,126.945 C165.726304,126.945 165.164304,126.054 165.164304,125.163 C165.726304,118.035 168.817304,112.986 173.313304,109.422 C176.123304,107.046 179.495304,105.264 183.148304,104.373 C178.090304,101.403 174.718304,95.463 174.718304,89.226 C174.718304,79.722 182.024304,72 191.016304,72 Z"></path>
        </g>
    </g>
</svg>