<svg width="129px" height="106px" viewBox="0 0 129 106" version="1.1" xmlns="http://www.w3.org/2000/svg" xmlns:xlink="http://www.w3.org/1999/xlink">
    <defs>
        <path d="M62.815,5.1975 C70.121,5.1975 76.022,11.7315 76.022,19.4535 C76.022,24.2055 73.774,28.9575 69.84,31.3335 C77.427,33.7095 82.766,39.3525 83.609,47.9655 C83.89,48.8565 83.328,49.7475 82.204,49.7475 L70.964,49.7475 C69.559,44.1045 66.749,39.0555 62.253,35.1945 C60.567,33.7095 58.6,32.5215 56.352,31.3335 C59.724,27.7695 61.691,22.7205 61.691,17.3745 C61.691,13.2165 60.567,9.3555 58.6,6.0885 C60.005,5.4945 61.41,5.1975 62.815,5.1975 Z M20.8656084,5.225 C13.5596084,5.225 7.65860835,11.759 7.65860835,19.481 C7.65860835,24.233 9.90660835,28.985 13.8406084,31.361 C6.25360835,33.737 0.914608353,39.38 0.0716083529,47.993 C-0.209391647,48.884 0.352608353,49.775 1.47660835,49.775 L12.7166084,49.775 C14.1216084,44.132 16.9316084,39.083 21.4276084,35.222 C23.1136084,33.737 25.0806084,32.549 27.3286084,31.361 C23.9566084,27.797 21.9896084,22.748 21.9896084,17.402 C21.9896084,13.244 23.1136084,9.383 25.0806084,6.116 C23.6756084,5.522 22.2706084,5.225 20.8656084,5.225 Z M42.0163042,1.63424829e-13 C51.0083042,1.63424829e-13 58.3143042,7.722 58.3143042,17.226 C58.3143042,23.463 54.9423042,29.403 49.8843042,32.373 C53.5373042,33.264 56.9093042,35.046 59.7193042,37.422 C63.9343042,40.986 67.0253042,46.035 67.8683042,52.866 C67.8683042,54.054 67.3063042,54.945 66.4633042,54.945 L17.5693042,54.945 C16.7263042,54.945 16.1643042,54.054 16.1643042,53.163 C16.7263042,46.035 19.8173042,40.986 24.3133042,37.422 C27.1233042,35.046 30.4953042,33.264 34.1483042,32.373 C29.0903042,29.403 25.7183042,23.463 25.7183042,17.226 C25.7183042,7.722 33.0243042,1.63424829e-13 42.0163042,1.63424829e-13 Z" id="teamMaker-path-1"></path>
        <filter x="-40.1%" y="-58.2%" width="180.7%" height="223.8%" filterUnits="objectBoundingBox" id="teamMaker-filter-2">
            <feGaussianBlur stdDeviation="10" in="SourceGraphic"></feGaussianBlur>
        </filter>
        <filter x="-43.6%" y="-63.7%" width="187.9%" height="234.7%" filterUnits="objectBoundingBox" id="teamMaker-filter-3">
            <feOffset dx="0" dy="2" in="SourceAlpha" result="shadowOffsetOuter1"></feOffset>
            <feMorphology radius="2" operator="erode" in="SourceAlpha" result="shadowInner"></feMorphology>
            <feOffset dx="0" dy="2" in="shadowInner" result="shadowInner"></feOffset>
            <feComposite in="shadowOffsetOuter1" in2="shadowInner" operator="out" result="shadowOffsetOuter1"></feComposite>
            <feGaussianBlur stdDeviation="2" in="shadowOffsetOuter1" result="shadowBlurOuter1"></feGaussianBlur>
            <feColorMatrix values="0 0 0 0 0   0 0 0 0 0   0 0 0 0 0  0 0 0 0.5 0" type="matrix" in="shadowBlurOuter1"></feColorMatrix>
        </filter>
        <path d="M60.815,5.1975 C68.121,5.1975 74.022,11.7315 74.022,19.4535 C74.022,24.2055 71.774,28.9575 67.84,31.3335 C75.427,33.7095 80.766,39.3525 81.609,47.9655 C81.89,48.8565 81.328,49.7475 80.204,49.7475 L68.964,49.7475 C67.559,44.1045 64.749,39.0555 60.253,35.1945 C58.567,33.7095 56.6,32.5215 54.352,31.3335 C57.724,27.7695 59.691,22.7205 59.691,17.3745 C59.691,13.2165 58.567,9.3555 56.6,6.0885 C58.005,5.4945 59.41,5.1975 60.815,5.1975 Z M22.8656084,5.225 C15.5596084,5.225 9.65860835,11.759 9.65860835,19.481 C9.65860835,24.233 11.9066084,28.985 15.8406084,31.361 C8.25360835,33.737 2.91460835,39.38 2.07160835,47.993 C1.79060835,48.884 2.35260835,49.775 3.47660835,49.775 L14.7166084,49.775 C16.1216084,44.132 18.9316084,39.083 23.4276084,35.222 C25.1136084,33.737 27.0806084,32.549 29.3286084,31.361 C25.9566084,27.797 23.9896084,22.748 23.9896084,17.402 C23.9896084,13.244 25.1136084,9.383 27.0806084,6.116 C25.6756084,5.522 24.2706084,5.225 22.8656084,5.225 Z M42.0163042,1.63424829e-13 C51.0083042,1.63424829e-13 58.3143042,7.722 58.3143042,17.226 C58.3143042,23.463 54.9423042,29.403 49.8843042,32.373 C53.5373042,33.264 56.9093042,35.046 59.7193042,37.422 C63.9343042,40.986 67.0253042,46.035 67.8683042,52.866 C67.8683042,54.054 67.3063042,54.945 66.4633042,54.945 L17.5693042,54.945 C16.7263042,54.945 16.1643042,54.054 16.1643042,53.163 C16.7263042,46.035 19.8173042,40.986 24.3133042,37.422 C27.1233042,35.046 30.4953042,33.264 34.1483042,32.373 C29.0903042,29.403 25.7183042,23.463 25.7183042,17.226 C25.7183042,7.722 33.0243042,1.63424829e-13 42.0163042,1.63424829e-13 Z" id="teamMaker-path-4"></path>
        <filter x="-11.3%" y="-12.7%" width="122.6%" height="132.8%" filterUnits="objectBoundingBox" id="teamMaker-filter-5">
            <feMorphology radius="2" operator="dilate" in="SourceAlpha" result="shadowSpreadOuter1"></feMorphology>
            <feOffset dx="0" dy="2" in="shadowSpreadOuter1" result="shadowOffsetOuter1"></feOffset>
            <feMorphology radius="1" operator="erode" in="SourceAlpha" result="shadowInner"></feMorphology>
            <feOffset dx="0" dy="2" in="shadowInner" result="shadowInner"></feOffset>
            <feComposite in="shadowOffsetOuter1" in2="shadowInner" operator="out" result="shadowOffsetOuter1"></feComposite>
            <feGaussianBlur stdDeviation="2" in="shadowOffsetOuter1" result="shadowBlurOuter1"></feGaussianBlur>
            <feColorMatrix values="0 0 0 0 0   0 0 0 0 0   0 0 0 0 0  0 0 0 0.5 0" type="matrix" in="shadowBlurOuter1"></feColorMatrix>
        </filter>
    </defs>
    <g stroke="none" stroke-width="1" fill="none" fill-rule="evenodd">
        <g transform="translate(-126.000000, -48.000000)">
            <g transform="translate(149.000000, 72.000000)">
                <g filter="url(#teamMaker-filter-2)">
                    <use fill="black" fill-opacity="1" filter="url(#teamMaker-filter-3)" xlink:href="#teamMaker-path-1"></use>
                    <path stroke="#8FC8FF" stroke-width="2" d="M60.050593,6.62240507 C61.7746582,9.87196607 62.691,13.542377 62.691,17.3745 C62.691,22.4773022 60.9749528,27.3642688 57.9337351,31.0524036 C59.9982118,32.1986764 61.5475907,33.2406196 62.9044998,34.4358512 C67.216144,38.1385332 70.1673991,43.0075425 71.7363737,48.7475 L82.204,48.7475 C82.6063138,48.7475 82.7468443,48.55653 82.6553042,48.2662728 L82.6137556,48.0629098 C81.8430076,40.1881135 77.0953019,34.6535132 69.5411449,32.2877985 L67.4236368,31.6246643 L69.3230106,30.4775082 C72.8259366,28.361862 75.022,24.0291305 75.022,19.4535 C75.022,12.2090486 69.4968114,6.1975 62.815,6.1975 C61.8968427,6.1975 60.9761955,6.33853356 60.050593,6.62240507 Z M11.9442342,48.775 C13.5131929,43.0350566 16.464068,38.1663779 20.7666494,34.4715779 C22.1316353,33.2693217 23.68221,32.2263422 25.7468786,31.0799101 C22.7056576,27.3917746 20.9896084,22.5048052 20.9896084,17.402 C20.9896084,13.569877 21.9059501,9.89946607 23.6300154,6.64990507 C22.7044129,6.36603356 21.7837657,6.225 20.8656084,6.225 C14.183797,6.225 8.65860835,12.2365486 8.65860835,19.481 C8.65860835,24.0566305 10.8546717,28.389362 14.3575978,30.5050082 L16.2569715,31.6521643 L14.1394634,32.3152985 C6.58530641,34.6810132 1.8376008,40.2156135 1.06685271,48.0904098 L1.02530419,48.2937728 C0.93376404,48.58403 1.07429456,48.775 1.47660835,48.775 L11.9442342,48.775 Z M66.8677908,52.9239269 C66.0917543,46.7534125 63.383022,41.8294263 59.07363,38.185613 C56.3224695,35.8593649 53.0781677,34.1813285 49.6473419,33.3445188 L47.2504778,32.7599018 L49.3779548,31.5106716 C54.1622777,28.7013716 57.3143042,23.0695481 57.3143042,17.226 C57.3143042,8.26228128 50.4432569,1 42.0163042,1 C33.5893515,1 26.7183042,8.26228128 26.7183042,17.226 C26.7183042,23.0695481 29.8703306,28.7013716 34.6546536,31.5106716 L36.7821306,32.7599018 L34.3852665,33.3445188 C30.9544407,34.1813285 27.7101388,35.8593649 24.934507,38.2056498 C20.3384443,41.84897 17.6703544,46.7839867 17.1643042,53.163 C17.1643042,53.6201086 17.4033844,53.945 17.5693042,53.945 L66.4633042,53.945 C66.6277754,53.945 66.8555703,53.6077765 66.8677908,52.9239269 Z" stroke-linejoin="square"></path>
                </g>
                <g>
                    <use fill="black" fill-opacity="1" filter="url(#teamMaker-filter-5)" xlink:href="#teamMaker-path-4"></use>
                    <path stroke="#8FC8FF" stroke-width="2" d="M69.9642161,31.0277661 C77.1876065,33.9155025 81.7817856,39.7824872 82.5949711,47.7751777 C83.009355,49.3148042 81.9151619,50.7475 80.204,50.7475 L68.1824513,50.7475 L67.9936253,49.9891049 C66.5791742,44.3081456 63.7751368,39.5373149 59.5920411,35.9449221 C58.1307523,34.6578439 56.3970117,33.5452796 53.8847629,32.2176321 L52.7208213,31.6025241 L53.6255976,30.6462304 C56.8410746,27.2476657 58.691,22.4347199 58.691,17.3745 C58.691,13.4875127 57.6627187,9.79228705 55.7432948,6.6043063 L55.1485253,5.61645074 L56.2105953,5.16743325 C57.7363138,4.52239636 59.2732815,4.1975 60.815,4.1975 C68.6408172,4.1975 75.022,11.1403925 75.022,19.4535 C75.022,23.9796525 73.1370874,28.3189508 69.9642161,31.0277661 Z M1.08563727,47.8026777 C1.89882278,39.8099872 6.49300182,33.9430025 13.7163923,31.0552661 C10.543521,28.3464508 8.65860835,24.0071525 8.65860835,19.481 C8.65860835,11.1678925 15.0397912,4.225 22.8656084,4.225 C24.4073269,4.225 25.9442945,4.54989636 27.4700131,5.19493325 L28.5320831,5.64395074 L27.9373136,6.6318063 C26.0178896,9.81978705 24.9896084,13.5150127 24.9896084,17.402 C24.9896084,22.4622199 26.8395338,27.2751657 30.0550108,30.6737304 L30.959787,31.6300241 L29.7958454,32.2451321 C27.2835966,33.5727796 25.549856,34.6853439 24.0791081,35.9806488 C19.9054716,39.5648149 17.1014342,44.3356456 15.6869831,50.0166049 L15.4981571,50.775 L3.47660835,50.775 C1.76544646,50.775 0.67125332,49.3423042 1.08563727,47.8026777 Z M52.1950932,32.0076821 C55.1578418,33.0196303 57.9393279,34.6073743 60.3649784,36.658387 C65.0705425,40.6371843 68.0333994,46.039126 68.8607753,52.7435211 L68.8683042,52.866 C68.8683042,54.5616919 67.9521537,55.945 66.4633042,55.945 L17.5693042,55.945 C16.1428906,55.945 15.1643042,54.6151771 15.1673979,53.0843999 C15.720571,46.0683548 18.6639141,40.6242175 23.66763,36.658387 C26.0932805,34.6073743 28.8747666,33.0196303 31.8375151,32.0076821 C27.468776,28.5975738 24.7183042,23.0110269 24.7183042,17.226 C24.7183042,7.18171872 32.4592569,-1 42.0163042,-1 C51.5733515,-1 59.3143042,7.18171872 59.3143042,17.226 C59.3143042,23.0110269 56.5638323,28.5975738 52.1950932,32.0076821 Z"></path>
                </g>
            </g>
        </g>
    </g>
</svg>